<?xml version="1.0" encoding="UTF-8" standalone="no"?><svg xmlns="http://www.w3.org/2000/svg" xmlns:xlink="http://www.w3.org/1999/xlink" contentScriptType="application/ecmascript" contentStyleType="text/css" height="203px" preserveAspectRatio="none" style="width:752px;height:203px;" version="1.1" viewBox="0 0 752 203" width="752px" zoomAndPan="magnify"><defs/><g><!--MD5=[64d5e6a70a29946089aa2bd5a6c51607]
cluster Base--><polygon fill="#CCCCCC" points="16,6,61,6,68,28.2969,153,28.2969,153,196,16,196,16,6" style="stroke:#000000;stroke-width:1.5;"/><line style="stroke:#000000;stroke-width:1.5;" x1="16" x2="68" y1="28.2969" y2="28.2969"/><text fill="#000000" font-family="sans-serif" font-size="14" font-weight="bold" lengthAdjust="spacing" textLength="39" x="20" y="20.9951">Base</text><!--MD5=[c16d822e175d79abcb56292e8c5a0d37]
cluster Network--><polygon fill="#FFCCCC" points="186,6,259,6,266,28.2969,564,28.2969,564,178,186,178,186,6" style="stroke:#000000;stroke-width:1.5;"/><line style="stroke:#000000;stroke-width:1.5;" x1="186" x2="266" y1="28.2969" y2="28.2969"/><text fill="#000000" font-family="sans-serif" font-size="14" font-weight="bold" lengthAdjust="spacing" textLength="67" x="190" y="20.9951">Network</text><!--MD5=[a2065d17dd08f09b244408669772d1d6]
cluster NetEntity--><polygon fill="#CCFFFF" points="597,21,680,21,687,43.2969,735,43.2969,735,155,597,155,597,21" style="stroke:#000000;stroke-width:1.5;"/><line style="stroke:#000000;stroke-width:1.5;" x1="597" x2="687" y1="43.2969" y2="43.2969"/><text fill="#000000" font-family="sans-serif" font-size="14" font-weight="bold" lengthAdjust="spacing" textLength="77" x="601" y="35.9951">NetEntity</text><!--MD5=[7fdce667dd5c2bfd6fafd3e45c05fe82]
class BaseObject--><rect codeLine="16" fill="#FFFFFF" height="44.7734" id="BaseObject" style="stroke:#A80036;stroke-width:1.5;" width="76" x="46.5" y="41.5"/><text fill="#000000" font-family="sans-serif" font-size="12" lengthAdjust="spacing" textLength="70" x="49.5" y="57.6387">BaseObject</text><line style="stroke:#A80036;stroke-width:1.5;" x1="47.5" x2="121.5" y1="65.4688" y2="65.4688"/><text fill="#000000" font-family="sans-serif" font-size="11" lengthAdjust="spacing" textLength="10" x="52.5" y="79.6792">id</text><!--MD5=[9f9bbf549fc731e8561a3deacc0a77b9]
class NamedResource--><rect codeLine="19" fill="#FFFFFF" height="57.5781" id="NamedResource" style="stroke:#A80036;stroke-width:1.5;" width="105" x="32" y="122"/><text fill="#000000" font-family="sans-serif" font-size="12" lengthAdjust="spacing" textLength="99" x="35" y="138.1387">NamedResource</text><line style="stroke:#A80036;stroke-width:1.5;" x1="33" x2="136" y1="145.9688" y2="145.9688"/><text fill="#000000" font-family="sans-serif" font-size="11" lengthAdjust="spacing" textLength="33" x="38" y="160.1792">name</text><text fill="#000000" font-family="sans-serif" font-size="11" lengthAdjust="spacing" textLength="57" x="38" y="172.9839">longname</text><!--MD5=[ec81f511f4d20a18ef555a8be4cd58b8]
class Network--><rect codeLine="26" fill="#FFFFFF" height="23.9688" id="Network" style="stroke:#A80036;stroke-width:1.5;" width="56" x="227" y="138"/><text fill="#000000" font-family="sans-serif" font-size="12" lengthAdjust="spacing" textLength="50" x="230" y="154.1387">Network</text><!--MD5=[2af99975bf55d8d77accb4b0cfe99808]
class LevelNetwork--><rect codeLine="27" fill="#FFFFFF" height="44.7734" id="LevelNetwork" style="stroke:#A80036;stroke-width:1.5;" width="106" x="202" y="41.5"/><text fill="#000000" font-family="sans-serif" font-size="12" lengthAdjust="spacing" textLength="82" x="214" y="57.6387">LevelNetwork</text><line style="stroke:#A80036;stroke-width:1.5;" x1="203" x2="307" y1="65.4688" y2="65.4688"/><text fill="#000000" font-family="sans-serif" font-size="11" lengthAdjust="spacing" textLength="94" x="208" y="79.6792">descriptionLevel</text><!--MD5=[68ebd5602d5c1818272b8fbc834ffe1f]
class NetworkResource--><rect codeLine="30" fill="#FFFFFF" height="57.5781" id="NetworkResource" style="stroke:#A80036;stroke-width:1.5;" width="113" x="435" y="98"/><text fill="#000000" font-family="sans-serif" font-size="12" lengthAdjust="spacing" textLength="107" x="438" y="114.1387">NetworkResource</text><line style="stroke:#A80036;stroke-width:1.5;" x1="436" x2="547" y1="121.9688" y2="121.9688"/><text fill="#000000" font-family="sans-serif" font-size="11" lengthAdjust="spacing" textLength="41" x="441" y="136.1792">validTo</text><text fill="#000000" font-family="sans-serif" font-size="11" lengthAdjust="spacing" textLength="55" x="441" y="148.9839">validFrom</text><!--MD5=[179a880ae7f4d148da2834db687f671e]
class NetEntity--><rect codeLine="43" fill="#FFFFFF" height="23.9688" id="NetEntity" style="stroke:#A80036;stroke-width:1.5;" width="58" x="637" y="115"/><text fill="#000000" font-family="sans-serif" font-size="12" lengthAdjust="spacing" textLength="52" x="640" y="131.1387">NetEntity</text><!--MD5=[f31f029335f1643dfcd7fa7e86c4f23a]
class LocatedNetEntity--><rect codeLine="44" fill="#FFFFFF" height="23.9688" id="LocatedNetEntity" style="stroke:#A80036;stroke-width:1.5;" width="106" x="613" y="56"/><text fill="#000000" font-family="sans-serif" font-size="12" lengthAdjust="spacing" textLength="100" x="616" y="72.1387">LocatedNetEntity</text><!--MD5=[03419b3a1cad888290cb8234a5f6cf94]
reverse link BaseObject to NamedResource--><path codeLine="23" d="M84.5,106.646 C84.5,111.688 84.5,116.731 84.5,121.7734 " fill="none" id="BaseObject-backto-NamedResource" style="stroke:#A80036;stroke-width:1.0;"/><polygon fill="none" points="77.5001,106.568,84.5,86.568,91.5001,106.568,77.5001,106.568" style="stroke:#A80036;stroke-width:1.0;"/><!--MD5=[2d84e697a4d8e2755dc6fdb123d0fcd1]
reverse link Network to NetworkResource--><path codeLine="34" d="M296.495,146.0282 C334.707,142.2803 392.32,136.6296 434.841,132.4591 " fill="none" id="Network-backto-NetworkResource" style="stroke:#A80036;stroke-width:1.0;"/><polygon fill="#FFFFFF" points="283.359,147.3166,289.7207,150.712,295.3017,146.1456,288.94,142.7502,283.359,147.3166" style="stroke:#A80036;stroke-width:1.0;"/><text fill="#000000" font-family="sans-serif" font-size="13" lengthAdjust="spacing" textLength="105" x="319" y="129.0669">networkResoure</text><!--MD5=[6c2febfd1945fe396950040c55043004]
reverse link LevelNetwork to NetworkResource--><path codeLine="35" d="M320.847,80.436 C352.341,88.533 390.701,98.562 425,108 C428.196,108.88 431.477,109.794 434.786,110.725 " fill="none" id="LevelNetwork-backto-NetworkResource" style="stroke:#A80036;stroke-width:1.0;"/><polygon fill="#FFFFFF" points="308.25,77.207,313.0686,82.5718,319.874,80.1872,315.0554,74.8224,308.25,77.207" style="stroke:#A80036;stroke-width:1.0;"/><text fill="#000000" font-family="sans-serif" font-size="13" lengthAdjust="spacing" textLength="105" x="319" y="77.0669">networkResoure</text><!--MD5=[92fdfee3eaefeac0db1058f1d67240cd]
link Network to LevelNetwork--><path codeLine="36" d="M255,137.6783 C255,125.7441 255,107.232 255,91.749 " fill="none" id="Network-to-LevelNetwork" style="stroke:#A80036;stroke-width:1.0;"/><polygon fill="#A80036" points="255,86.629,251,95.629,255,91.629,259,95.629,255,86.629" style="stroke:#A80036;stroke-width:1.0;"/><text fill="#000000" font-family="sans-serif" font-size="13" lengthAdjust="spacing" textLength="30" x="228.5" y="116.8169">level</text><!--MD5=[16bb29b7e0755f4e1befdafc95c3f060]
reverse link NamedResource to Network--><path codeLine="38" d="M157.559,150.5723 C182.144,150.4264 208.143,150.2721 226.944,150.1606 " fill="none" id="NamedResource-backto-Network" style="stroke:#A80036;stroke-width:1.0;"/><polygon fill="none" points="157.472,157.5729,137.43,150.6918,157.389,143.5731,157.472,157.5729" style="stroke:#A80036;stroke-width:1.0;"/><!--MD5=[697092c088eea109afc4dfe65a6f12c7]
reverse link NamedResource to NetworkResource--><path codeLine="39" d="M156.497,175.622 C163.692,177.4027 170.947,178.9202 178,180 C287.259,196.7257 319.31,183.3573 425,151 C428.242,150.0073 431.559,148.9446 434.895,147.8392 " fill="none" id="NamedResource-backto-NetworkResource" style="stroke:#A80036;stroke-width:1.0;"/><polygon fill="none" points="154.572,182.3521,137.188,170.2355,158.333,168.867,154.572,182.3521" style="stroke:#A80036;stroke-width:1.0;"/><!--MD5=[75b602d559ae1e146ec880c0ad70d81e]
reverse link BaseObject to LevelNetwork--><path codeLine="40" d="M142.918,64 C161.964,64 183.052,64 201.692,64 " fill="none" id="BaseObject-backto-LevelNetwork" style="stroke:#A80036;stroke-width:1.0;"/><polygon fill="none" points="142.896,71,122.896,64,142.896,57,142.896,71" style="stroke:#A80036;stroke-width:1.0;"/><!--MD5=[5c01f100afe0744aed7b157f45ccee22]
reverse link NetEntity to LocatedNetEntity--><path codeLine="45" d="M666,94.309 C666,89.54 666,84.771 666,80.002 " fill="none" id="NetEntity-backto-LocatedNetEntity" style="stroke:#A80036;stroke-width:1.0;"/><polygon fill="none" points="673,94.555,666,114.5547,659,94.555,673,94.555" style="stroke:#A80036;stroke-width:1.0;"/><!--MD5=[4e564bda1fda9498343bec7c477e3c47]
reverse link NetworkResource to NetEntity--><path codeLine="47" d="M568.04,127 C592.393,127 617.904,127 636.642,127 " fill="none" id="NetworkResource-backto-NetEntity" style="stroke:#A80036;stroke-width:1.0;"/><polygon fill="none" points="568.03,133.9999,548.03,127,568.03,119.9999,568.03,133.9999" style="stroke:#A80036;stroke-width:1.0;"/><!--MD5=[7b2ab08901879eee5468fed5d91f719b]
@startuml
left to right direction
skinparam shadowing false
hide empty members
hide circle
'skinparam monochrome true
skinparam class {
BackgroundColor White
'ArrowColor SeaGreen
'BorderColor SpringGreen
}
hide methods
skinparam shadowing false
skinparam ranksep 20

package "Base" #cccccc {
  class BaseObject {
    id 
  }
  class NamedResource {
    name
    longname
  }
  BaseObject <|- NamedResource
}
package "Network" #ffcccc {
  class Network
  class LevelNetwork {
    descriptionLevel
  }
  class NetworkResource {
    validTo
    validFrom
  }
  Network o- NetworkResource : networkResoure
  LevelNetwork o- - NetworkResource : networkResoure
  Network -> LevelNetwork : level
}
NamedResource <|- - Network
NamedResource <|- - NetworkResource
BaseObject <|- - LevelNetwork

package "NetEntity" #ccffff {
  class NetEntity
  class LocatedNetEntity
  NetEntity <|- LocatedNetEntity
}
NetworkResource <|- - NetEntity
@enduml

@startuml
left to right direction
skinparam shadowing false
hide empty members
hide circle
skinparam class {
BackgroundColor White
}
hide methods
skinparam shadowing false
skinparam ranksep 20

package "Base" #cccccc {
  class BaseObject {
    id 
  }
  class NamedResource {
    name
    longname
  }
  BaseObject <|- NamedResource
}
package "Network" #ffcccc {
  class Network
  class LevelNetwork {
    descriptionLevel
  }
  class NetworkResource {
    validTo
    validFrom
  }
  Network o- NetworkResource : networkResoure
  LevelNetwork o- - NetworkResource : networkResoure
  Network -> LevelNetwork : level
}
NamedResource <|- - Network
NamedResource <|- - NetworkResource
BaseObject <|- - LevelNetwork

package "NetEntity" #ccffff {
  class NetEntity
  class LocatedNetEntity
  NetEntity <|- LocatedNetEntity
}
NetworkResource <|- - NetEntity
@enduml

PlantUML version 1.2021.5beta3(Unknown compile time)
(GPL source distribution)
Java Runtime: Java(TM) SE Runtime Environment
JVM: Java HotSpot(TM) 64-Bit Server VM
Default Encoding: UTF-8
Language: en
Country: US
--></g></svg>