<?xml version="1.0" encoding="UTF-8" standalone="no"?><svg xmlns="http://www.w3.org/2000/svg" xmlns:xlink="http://www.w3.org/1999/xlink" contentScriptType="application/ecmascript" contentStyleType="text/css" height="759px" preserveAspectRatio="none" style="width:358px;height:759px;" version="1.1" viewBox="0 0 358 759" width="358px" zoomAndPan="magnify"><defs/><g><!--MD5=[64d5e6a70a29946089aa2bd5a6c51607]
cluster Base--><polygon fill="#CCCCCC" points="16,6,57,6,64,29.6094,176,29.6094,176,241,16,241,16,6" style="stroke:#000000;stroke-width:1.5;"/><line style="stroke:#000000;stroke-width:1.5;" x1="16" x2="64" y1="29.6094" y2="29.6094"/><text fill="#000000" font-family="sans-serif" font-size="14" font-weight="bold" lengthAdjust="spacing" textLength="35" x="20" y="22.5332">Base</text><!--MD5=[c16d822e175d79abcb56292e8c5a0d37]
cluster Network--><polygon fill="#FFCCCC" points="30,274,94,274,101,297.6094,341,297.6094,341,526,30,526,30,274" style="stroke:#000000;stroke-width:1.5;"/><line style="stroke:#000000;stroke-width:1.5;" x1="30" x2="101" y1="297.6094" y2="297.6094"/><text fill="#000000" font-family="sans-serif" font-size="14" font-weight="bold" lengthAdjust="spacing" textLength="58" x="34" y="290.5332">Network</text><!--MD5=[a2065d17dd08f09b244408669772d1d6]
cluster NetEntity--><polygon fill="#CCFFFF" points="34,559,103,559,110,582.6094,190,582.6094,190,752,34,752,34,559" style="stroke:#000000;stroke-width:1.5;"/><line style="stroke:#000000;stroke-width:1.5;" x1="34" x2="110" y1="582.6094" y2="582.6094"/><text fill="#000000" font-family="sans-serif" font-size="14" font-weight="bold" lengthAdjust="spacing" textLength="63" x="38" y="575.5332">NetEntity</text><!--MD5=[7fdce667dd5c2bfd6fafd3e45c05fe82]
class BaseObject--><rect codeLine="4" fill="#FEFECE" height="53.8359" id="BaseObject" style="stroke:#A80036;stroke-width:1.5;" width="96" x="56" y="42"/><ellipse cx="71" cy="58" fill="#ADD1B2" rx="11" ry="11" style="stroke:#A80036;stroke-width:1.0;"/><path d="M73.7656,53.875 Q73.9219,53.6563 74.1094,53.5469 Q74.2969,53.4375 74.5156,53.4375 Q74.8906,53.4375 75.125,53.7031 Q75.3594,53.9531 75.3594,54.5625 L75.3594,56.0156 Q75.3594,56.625 75.125,56.8906 Q74.8906,57.1563 74.5156,57.1563 Q74.1719,57.1563 73.9688,56.9531 Q73.7656,56.7656 73.6563,56.25 Q73.6094,55.8906 73.4219,55.7031 Q73.0938,55.3281 72.4844,55.1094 Q71.875,54.8906 71.25,54.8906 Q70.4844,54.8906 69.8438,55.2188 Q69.2188,55.5469 68.7188,56.2969 Q68.2344,57.0469 68.2344,58.0781 L68.2344,59.1719 Q68.2344,60.4063 69.125,61.2344 Q70.0156,62.0469 71.6094,62.0469 Q72.5469,62.0469 73.2031,61.7969 Q73.5938,61.6406 74.0156,61.2031 Q74.2813,60.9375 74.4219,60.8594 Q74.5781,60.7813 74.7813,60.7813 Q75.1094,60.7813 75.3594,61.0469 Q75.625,61.2969 75.625,61.6406 Q75.625,61.9844 75.2813,62.3906 Q74.7813,62.9688 73.9844,63.2969 Q72.9063,63.75 71.6094,63.75 Q70.0938,63.75 68.8906,63.125 Q67.9063,62.625 67.2188,61.5625 Q66.5313,60.4844 66.5313,59.2031 L66.5313,58.0469 Q66.5313,56.7188 67.1406,55.5781 Q67.7656,54.4219 68.8594,53.8125 Q69.9531,53.1875 71.1875,53.1875 Q71.9219,53.1875 72.5625,53.3594 Q73.2188,53.5156 73.7656,53.875 Z " fill="#000000"/><text fill="#000000" font-family="sans-serif" font-size="12" lengthAdjust="spacing" textLength="64" x="85" y="62.9102">BaseObject</text><line style="stroke:#A80036;stroke-width:1.5;" x1="57" x2="151" y1="74" y2="74"/><text fill="#000000" font-family="sans-serif" font-size="11" lengthAdjust="spacing" textLength="8" x="62" y="89.4189">id</text><!--MD5=[9f9bbf549fc731e8561a3deacc0a77b9]
class NamedResource--><rect codeLine="7" fill="#FEFECE" height="67.6719" id="NamedResource" style="stroke:#A80036;stroke-width:1.5;" width="127" x="32.5" y="157"/><ellipse cx="47.5" cy="173" fill="#ADD1B2" rx="11" ry="11" style="stroke:#A80036;stroke-width:1.0;"/><path d="M50.2656,168.875 Q50.4219,168.6563 50.6094,168.5469 Q50.7969,168.4375 51.0156,168.4375 Q51.3906,168.4375 51.625,168.7031 Q51.8594,168.9531 51.8594,169.5625 L51.8594,171.0156 Q51.8594,171.625 51.625,171.8906 Q51.3906,172.1563 51.0156,172.1563 Q50.6719,172.1563 50.4688,171.9531 Q50.2656,171.7656 50.1563,171.25 Q50.1094,170.8906 49.9219,170.7031 Q49.5938,170.3281 48.9844,170.1094 Q48.375,169.8906 47.75,169.8906 Q46.9844,169.8906 46.3438,170.2188 Q45.7188,170.5469 45.2188,171.2969 Q44.7344,172.0469 44.7344,173.0781 L44.7344,174.1719 Q44.7344,175.4063 45.625,176.2344 Q46.5156,177.0469 48.1094,177.0469 Q49.0469,177.0469 49.7031,176.7969 Q50.0938,176.6406 50.5156,176.2031 Q50.7813,175.9375 50.9219,175.8594 Q51.0781,175.7813 51.2813,175.7813 Q51.6094,175.7813 51.8594,176.0469 Q52.125,176.2969 52.125,176.6406 Q52.125,176.9844 51.7813,177.3906 Q51.2813,177.9688 50.4844,178.2969 Q49.4063,178.75 48.1094,178.75 Q46.5938,178.75 45.3906,178.125 Q44.4063,177.625 43.7188,176.5625 Q43.0313,175.4844 43.0313,174.2031 L43.0313,173.0469 Q43.0313,171.7188 43.6406,170.5781 Q44.2656,169.4219 45.3594,168.8125 Q46.4531,168.1875 47.6875,168.1875 Q48.4219,168.1875 49.0625,168.3594 Q49.7188,168.5156 50.2656,168.875 Z " fill="#000000"/><text fill="#000000" font-family="sans-serif" font-size="12" lengthAdjust="spacing" textLength="95" x="61.5" y="177.9102">NamedResource</text><line style="stroke:#A80036;stroke-width:1.5;" x1="33.5" x2="158.5" y1="189" y2="189"/><text fill="#000000" font-family="sans-serif" font-size="11" lengthAdjust="spacing" textLength="26" x="38.5" y="204.4189">name</text><text fill="#000000" font-family="sans-serif" font-size="11" lengthAdjust="spacing" textLength="46" x="38.5" y="218.2549">longname</text><!--MD5=[2af99975bf55d8d77accb4b0cfe99808]
class LevelNetwork--><rect codeLine="15" fill="#FEFECE" height="53.8359" id="LevelNetwork" style="stroke:#A80036;stroke-width:1.5;" width="106" x="170" y="310"/><ellipse cx="185" cy="326" fill="#ADD1B2" rx="11" ry="11" style="stroke:#A80036;stroke-width:1.0;"/><path d="M187.7656,321.875 Q187.9219,321.6563 188.1094,321.5469 Q188.2969,321.4375 188.5156,321.4375 Q188.8906,321.4375 189.125,321.7031 Q189.3594,321.9531 189.3594,322.5625 L189.3594,324.0156 Q189.3594,324.625 189.125,324.8906 Q188.8906,325.1563 188.5156,325.1563 Q188.1719,325.1563 187.9688,324.9531 Q187.7656,324.7656 187.6563,324.25 Q187.6094,323.8906 187.4219,323.7031 Q187.0938,323.3281 186.4844,323.1094 Q185.875,322.8906 185.25,322.8906 Q184.4844,322.8906 183.8438,323.2188 Q183.2188,323.5469 182.7188,324.2969 Q182.2344,325.0469 182.2344,326.0781 L182.2344,327.1719 Q182.2344,328.4063 183.125,329.2344 Q184.0156,330.0469 185.6094,330.0469 Q186.5469,330.0469 187.2031,329.7969 Q187.5938,329.6406 188.0156,329.2031 Q188.2813,328.9375 188.4219,328.8594 Q188.5781,328.7813 188.7813,328.7813 Q189.1094,328.7813 189.3594,329.0469 Q189.625,329.2969 189.625,329.6406 Q189.625,329.9844 189.2813,330.3906 Q188.7813,330.9688 187.9844,331.2969 Q186.9063,331.75 185.6094,331.75 Q184.0938,331.75 182.8906,331.125 Q181.9063,330.625 181.2188,329.5625 Q180.5313,328.4844 180.5313,327.2031 L180.5313,326.0469 Q180.5313,324.7188 181.1406,323.5781 Q181.7656,322.4219 182.8594,321.8125 Q183.9531,321.1875 185.1875,321.1875 Q185.9219,321.1875 186.5625,321.3594 Q187.2188,321.5156 187.7656,321.875 Z " fill="#000000"/><text fill="#000000" font-family="sans-serif" font-size="12" lengthAdjust="spacing" textLength="74" x="199" y="330.9102">LevelNetwork</text><line style="stroke:#A80036;stroke-width:1.5;" x1="171" x2="275" y1="342" y2="342"/><text fill="#000000" font-family="sans-serif" font-size="11" lengthAdjust="spacing" textLength="79" x="176" y="357.4189">descriptionLevel</text><!--MD5=[68ebd5602d5c1818272b8fbc834ffe1f]
class NetworkResource--><rect codeLine="18" fill="#FEFECE" height="67.6719" id="NetworkResource" style="stroke:#A80036;stroke-width:1.5;" width="131" x="46.5" y="442"/><ellipse cx="61.5" cy="458" fill="#ADD1B2" rx="11" ry="11" style="stroke:#A80036;stroke-width:1.0;"/><path d="M64.2656,453.875 Q64.4219,453.6563 64.6094,453.5469 Q64.7969,453.4375 65.0156,453.4375 Q65.3906,453.4375 65.625,453.7031 Q65.8594,453.9531 65.8594,454.5625 L65.8594,456.0156 Q65.8594,456.625 65.625,456.8906 Q65.3906,457.1563 65.0156,457.1563 Q64.6719,457.1563 64.4688,456.9531 Q64.2656,456.7656 64.1563,456.25 Q64.1094,455.8906 63.9219,455.7031 Q63.5938,455.3281 62.9844,455.1094 Q62.375,454.8906 61.75,454.8906 Q60.9844,454.8906 60.3438,455.2188 Q59.7188,455.5469 59.2188,456.2969 Q58.7344,457.0469 58.7344,458.0781 L58.7344,459.1719 Q58.7344,460.4063 59.625,461.2344 Q60.5156,462.0469 62.1094,462.0469 Q63.0469,462.0469 63.7031,461.7969 Q64.0938,461.6406 64.5156,461.2031 Q64.7813,460.9375 64.9219,460.8594 Q65.0781,460.7813 65.2813,460.7813 Q65.6094,460.7813 65.8594,461.0469 Q66.125,461.2969 66.125,461.6406 Q66.125,461.9844 65.7813,462.3906 Q65.2813,462.9688 64.4844,463.2969 Q63.4063,463.75 62.1094,463.75 Q60.5938,463.75 59.3906,463.125 Q58.4063,462.625 57.7188,461.5625 Q57.0313,460.4844 57.0313,459.2031 L57.0313,458.0469 Q57.0313,456.7188 57.6406,455.5781 Q58.2656,454.4219 59.3594,453.8125 Q60.4531,453.1875 61.6875,453.1875 Q62.4219,453.1875 63.0625,453.3594 Q63.7188,453.5156 64.2656,453.875 Z " fill="#000000"/><text fill="#000000" font-family="sans-serif" font-size="12" lengthAdjust="spacing" textLength="99" x="75.5" y="462.9102">NetworkResource</text><line style="stroke:#A80036;stroke-width:1.5;" x1="47.5" x2="176.5" y1="474" y2="474"/><text fill="#000000" font-family="sans-serif" font-size="11" lengthAdjust="spacing" textLength="34" x="52.5" y="489.4189">validTo</text><text fill="#000000" font-family="sans-serif" font-size="11" lengthAdjust="spacing" textLength="46" x="52.5" y="503.2549">validFrom</text><!--MD5=[ec81f511f4d20a18ef555a8be4cd58b8]
class Network--><rect codeLine="22" fill="#FEFECE" height="40" id="Network" style="stroke:#A80036;stroke-width:1.5;" width="77" x="57.5" y="317"/><ellipse cx="72.5" cy="333" fill="#ADD1B2" rx="11" ry="11" style="stroke:#A80036;stroke-width:1.0;"/><path d="M75.2656,328.875 Q75.4219,328.6563 75.6094,328.5469 Q75.7969,328.4375 76.0156,328.4375 Q76.3906,328.4375 76.625,328.7031 Q76.8594,328.9531 76.8594,329.5625 L76.8594,331.0156 Q76.8594,331.625 76.625,331.8906 Q76.3906,332.1563 76.0156,332.1563 Q75.6719,332.1563 75.4688,331.9531 Q75.2656,331.7656 75.1563,331.25 Q75.1094,330.8906 74.9219,330.7031 Q74.5938,330.3281 73.9844,330.1094 Q73.375,329.8906 72.75,329.8906 Q71.9844,329.8906 71.3438,330.2188 Q70.7188,330.5469 70.2188,331.2969 Q69.7344,332.0469 69.7344,333.0781 L69.7344,334.1719 Q69.7344,335.4063 70.625,336.2344 Q71.5156,337.0469 73.1094,337.0469 Q74.0469,337.0469 74.7031,336.7969 Q75.0938,336.6406 75.5156,336.2031 Q75.7813,335.9375 75.9219,335.8594 Q76.0781,335.7813 76.2813,335.7813 Q76.6094,335.7813 76.8594,336.0469 Q77.125,336.2969 77.125,336.6406 Q77.125,336.9844 76.7813,337.3906 Q76.2813,337.9688 75.4844,338.2969 Q74.4063,338.75 73.1094,338.75 Q71.5938,338.75 70.3906,338.125 Q69.4063,337.625 68.7188,336.5625 Q68.0313,335.4844 68.0313,334.2031 L68.0313,333.0469 Q68.0313,331.7188 68.6406,330.5781 Q69.2656,329.4219 70.3594,328.8125 Q71.4531,328.1875 72.6875,328.1875 Q73.4219,328.1875 74.0625,328.3594 Q74.7188,328.5156 75.2656,328.875 Z " fill="#000000"/><text fill="#000000" font-family="sans-serif" font-size="12" lengthAdjust="spacing" textLength="45" x="86.5" y="337.9102">Network</text><line style="stroke:#A80036;stroke-width:1.5;" x1="58.5" x2="133.5" y1="349" y2="349"/><!--MD5=[179a880ae7f4d148da2834db687f671e]
class NetEntity--><rect codeLine="33" fill="#FEFECE" height="40" id="NetEntity" style="stroke:#A80036;stroke-width:1.5;" width="80" x="72" y="595"/><ellipse cx="87" cy="611" fill="#ADD1B2" rx="11" ry="11" style="stroke:#A80036;stroke-width:1.0;"/><path d="M89.7656,606.875 Q89.9219,606.6563 90.1094,606.5469 Q90.2969,606.4375 90.5156,606.4375 Q90.8906,606.4375 91.125,606.7031 Q91.3594,606.9531 91.3594,607.5625 L91.3594,609.0156 Q91.3594,609.625 91.125,609.8906 Q90.8906,610.1563 90.5156,610.1563 Q90.1719,610.1563 89.9688,609.9531 Q89.7656,609.7656 89.6563,609.25 Q89.6094,608.8906 89.4219,608.7031 Q89.0938,608.3281 88.4844,608.1094 Q87.875,607.8906 87.25,607.8906 Q86.4844,607.8906 85.8438,608.2188 Q85.2188,608.5469 84.7188,609.2969 Q84.2344,610.0469 84.2344,611.0781 L84.2344,612.1719 Q84.2344,613.4063 85.125,614.2344 Q86.0156,615.0469 87.6094,615.0469 Q88.5469,615.0469 89.2031,614.7969 Q89.5938,614.6406 90.0156,614.2031 Q90.2813,613.9375 90.4219,613.8594 Q90.5781,613.7813 90.7813,613.7813 Q91.1094,613.7813 91.3594,614.0469 Q91.625,614.2969 91.625,614.6406 Q91.625,614.9844 91.2813,615.3906 Q90.7813,615.9688 89.9844,616.2969 Q88.9063,616.75 87.6094,616.75 Q86.0938,616.75 84.8906,616.125 Q83.9063,615.625 83.2188,614.5625 Q82.5313,613.4844 82.5313,612.2031 L82.5313,611.0469 Q82.5313,609.7188 83.1406,608.5781 Q83.7656,607.4219 84.8594,606.8125 Q85.9531,606.1875 87.1875,606.1875 Q87.9219,606.1875 88.5625,606.3594 Q89.2188,606.5156 89.7656,606.875 Z " fill="#000000"/><text fill="#000000" font-family="sans-serif" font-size="12" lengthAdjust="spacing" textLength="48" x="101" y="615.9102">NetEntity</text><line style="stroke:#A80036;stroke-width:1.5;" x1="73" x2="151" y1="627" y2="627"/><!--MD5=[f31f029335f1643dfcd7fa7e86c4f23a]
class LocatedNetEntity--><rect codeLine="35" fill="#FEFECE" height="40" id="LocatedNetEntity" style="stroke:#A80036;stroke-width:1.5;" width="124" x="50" y="696"/><ellipse cx="65" cy="712" fill="#ADD1B2" rx="11" ry="11" style="stroke:#A80036;stroke-width:1.0;"/><path d="M67.7656,707.875 Q67.9219,707.6563 68.1094,707.5469 Q68.2969,707.4375 68.5156,707.4375 Q68.8906,707.4375 69.125,707.7031 Q69.3594,707.9531 69.3594,708.5625 L69.3594,710.0156 Q69.3594,710.625 69.125,710.8906 Q68.8906,711.1563 68.5156,711.1563 Q68.1719,711.1563 67.9688,710.9531 Q67.7656,710.7656 67.6563,710.25 Q67.6094,709.8906 67.4219,709.7031 Q67.0938,709.3281 66.4844,709.1094 Q65.875,708.8906 65.25,708.8906 Q64.4844,708.8906 63.8438,709.2188 Q63.2188,709.5469 62.7188,710.2969 Q62.2344,711.0469 62.2344,712.0781 L62.2344,713.1719 Q62.2344,714.4063 63.125,715.2344 Q64.0156,716.0469 65.6094,716.0469 Q66.5469,716.0469 67.2031,715.7969 Q67.5938,715.6406 68.0156,715.2031 Q68.2813,714.9375 68.4219,714.8594 Q68.5781,714.7813 68.7813,714.7813 Q69.1094,714.7813 69.3594,715.0469 Q69.625,715.2969 69.625,715.6406 Q69.625,715.9844 69.2813,716.3906 Q68.7813,716.9688 67.9844,717.2969 Q66.9063,717.75 65.6094,717.75 Q64.0938,717.75 62.8906,717.125 Q61.9063,716.625 61.2188,715.5625 Q60.5313,714.4844 60.5313,713.2031 L60.5313,712.0469 Q60.5313,710.7188 61.1406,709.5781 Q61.7656,708.4219 62.8594,707.8125 Q63.9531,707.1875 65.1875,707.1875 Q65.9219,707.1875 66.5625,707.3594 Q67.2188,707.5156 67.7656,707.875 Z " fill="#000000"/><text fill="#000000" font-family="sans-serif" font-size="12" lengthAdjust="spacing" textLength="92" x="79" y="716.9102">LocatedNetEntity</text><line style="stroke:#A80036;stroke-width:1.5;" x1="51" x2="173" y1="728" y2="728"/><!--MD5=[03419b3a1cad888290cb8234a5f6cf94]
reverse link BaseObject to NamedResource--><path codeLine="11" d="M100.93,116.06 C100.03,129.59 99.06,144.13 98.22,156.7 " fill="none" id="BaseObject-backto-NamedResource" style="stroke:#A80036;stroke-width:1.0;"/><polygon fill="none" points="93.95,115.53,102.26,96.04,107.92,116.46,93.95,115.53" style="stroke:#A80036;stroke-width:1.0;"/><!--MD5=[2d84e697a4d8e2755dc6fdb123d0fcd1]
reverse link Network to NetworkResource--><path codeLine="25" d="M81.49,369.45 C77.2,382.61 74.48,398.06 78,412 C80.59,422.24 85.21,432.63 90.22,441.93 " fill="none" id="Network-backto-NetworkResource" style="stroke:#A80036;stroke-width:1.0;"/><polygon fill="#FFFFFF" points="86.13,357.19,80.2612,361.3801,81.8718,368.4091,87.7406,364.2189,86.13,357.19" style="stroke:#A80036;stroke-width:1.0;"/><text fill="#000000" font-family="sans-serif" font-size="13" lengthAdjust="spacing" textLength="100" x="79" y="408.4951">networkResource</text><!--MD5=[6c2febfd1945fe396950040c55043004]
reverse link LevelNetwork to NetworkResource--><path codeLine="26" d="M206.47,375.77 C200.29,387.92 192.64,401.06 184,412 C175.66,422.56 165.39,432.74 155.25,441.73 " fill="none" id="LevelNetwork-backto-NetworkResource" style="stroke:#A80036;stroke-width:1.0;"/><polygon fill="#FFFFFF" points="212.14,364.06,205.9217,367.7114,206.9005,374.8557,213.1188,371.2044,212.14,364.06" style="stroke:#A80036;stroke-width:1.0;"/><text fill="#000000" font-family="sans-serif" font-size="13" lengthAdjust="spacing" textLength="100" x="196" y="408.4951">networkResource</text><!--MD5=[16bb29b7e0755f4e1befdafc95c3f060]
reverse link NamedResource to Network--><path codeLine="28" d="M96,245.04 C96,270.13 96,298.53 96,316.82 " fill="none" id="NamedResource-backto-Network" style="stroke:#A80036;stroke-width:1.0;"/><polygon fill="none" points="89,245.04,96,225.04,103,245.04,89,245.04" style="stroke:#A80036;stroke-width:1.0;"/><!--MD5=[75b602d559ae1e146ec880c0ad70d81e]
reverse link BaseObject to LevelNetwork--><path codeLine="29" d="M145.01,111.19 C156.76,124.85 168.64,140.74 177,157 C202.96,207.51 215.02,273.74 219.98,309.81 " fill="none" id="BaseObject-backto-LevelNetwork" style="stroke:#A80036;stroke-width:1.0;"/><polygon fill="none" points="139.74,115.8,131.49,96.29,150.11,106.39,139.74,115.8" style="stroke:#A80036;stroke-width:1.0;"/><!--MD5=[697092c088eea109afc4dfe65a6f12c7]
reverse link NamedResource to NetworkResource--><path codeLine="30" d="M51.94,241.55 C47.06,249.3 42.84,257.55 40,266 C26.14,307.29 28.63,321.95 40,364 C47.79,392.83 66.24,421 82.51,441.75 " fill="none" id="NamedResource-backto-NetworkResource" style="stroke:#A80036;stroke-width:1.0;"/><polygon fill="none" points="46.44,237.21,63.78,225.03,57.82,245.37,46.44,237.21" style="stroke:#A80036;stroke-width:1.0;"/><!--MD5=[5c01f100afe0744aed7b157f45ccee22]
reverse link NetEntity to LocatedNetEntity--><path codeLine="37" d="M112,655.44 C112,669.4 112,684.48 112,695.97 " fill="none" id="NetEntity-backto-LocatedNetEntity" style="stroke:#A80036;stroke-width:1.0;"/><polygon fill="none" points="105,655.09,112,635.09,119,655.09,105,655.09" style="stroke:#A80036;stroke-width:1.0;"/><!--MD5=[4e564bda1fda9498343bec7c477e3c47]
reverse link NetworkResource to NetEntity--><path codeLine="39" d="M112,530.4 C112,553.02 112,577.97 112,594.67 " fill="none" id="NetworkResource-backto-NetEntity" style="stroke:#A80036;stroke-width:1.0;"/><polygon fill="none" points="105,530.16,112,510.16,119,530.16,105,530.16" style="stroke:#A80036;stroke-width:1.0;"/><!--MD5=[605e57ffe3dd8122e86506d3672584c6]
@startuml
hide methods
skinparam shadowing false
package "Base" #cccccc {
	class BaseObject{
		id
	}
	class NamedResource{
		name
		longname
	}
	BaseObject <|- - NamedResource
}

package "Network" #ffcccc {
	class LevelNetwork{
		descriptionLevel
	}
	class NetworkResource{
		validTo
		validFrom
	}
	class Network{
	}
	
	Network o- - NetworkResource : networkResource
	LevelNetwork o- - NetworkResource : networkResource
}
NamedResource <|- - Network
BaseObject <|- - LevelNetwork
NamedResource <|- - NetworkResource

package "NetEntity" #ccffff {
	class NetEntity{
	}
	class LocatedNetEntity{
	}
	NetEntity <|- - LocatedNetEntity
}
NetworkResource <|- - NetEntity
@enduml

PlantUML version 1.2021.3(Mon Mar 22 17:53:19 CET 2021)
(GPL source distribution)
Java Runtime: OpenJDK Runtime Environment
JVM: OpenJDK Client VM
Default Encoding: Cp1252
Language: en
Country: US
--></g></svg>