<?xml version="1.0" encoding="UTF-8" standalone="no"?><svg xmlns="http://www.w3.org/2000/svg" xmlns:xlink="http://www.w3.org/1999/xlink" contentScriptType="application/ecmascript" contentStyleType="text/css" height="707px" preserveAspectRatio="none" style="width:1148px;height:707px;" version="1.1" viewBox="0 0 1148 707" width="1148px" zoomAndPan="magnify"><defs/><g><!--MD5=[04e6231a81170435a4f2e8a330a47782]
cluster Location--><polygon fill="#CCCCFF" points="16,111,82,111,89,134.6094,983,134.6094,983,596,16,596,16,111" style="stroke:#000000;stroke-width:1.5;"/><line style="stroke:#000000;stroke-width:1.5;" x1="16" x2="89" y1="134.6094" y2="134.6094"/><text fill="#000000" font-family="sans-serif" font-size="14" font-weight="bold" lengthAdjust="spacing" textLength="60" x="20" y="127.5332">Location</text><!--MD5=[5d7a24d3103cb18d8946687e80298375]
class SpotLocation--><rect codeLine="5" fill="#FEFECE" height="53.8359" id="SpotLocation" style="stroke:#A80036;stroke-width:1.5;" width="105" x="713.5" y="248"/><ellipse cx="728.95" cy="264" fill="#ADD1B2" rx="11" ry="11" style="stroke:#A80036;stroke-width:1.0;"/><path d="M731.7156,259.875 Q731.8719,259.6563 732.0594,259.5469 Q732.2469,259.4375 732.4656,259.4375 Q732.8406,259.4375 733.075,259.7031 Q733.3094,259.9531 733.3094,260.5625 L733.3094,262.0156 Q733.3094,262.625 733.075,262.8906 Q732.8406,263.1563 732.4656,263.1563 Q732.1219,263.1563 731.9188,262.9531 Q731.7156,262.7656 731.6063,262.25 Q731.5594,261.8906 731.3719,261.7031 Q731.0438,261.3281 730.4344,261.1094 Q729.825,260.8906 729.2,260.8906 Q728.4344,260.8906 727.7938,261.2188 Q727.1688,261.5469 726.6688,262.2969 Q726.1844,263.0469 726.1844,264.0781 L726.1844,265.1719 Q726.1844,266.4063 727.075,267.2344 Q727.9656,268.0469 729.5594,268.0469 Q730.4969,268.0469 731.1531,267.7969 Q731.5438,267.6406 731.9656,267.2031 Q732.2313,266.9375 732.3719,266.8594 Q732.5281,266.7813 732.7313,266.7813 Q733.0594,266.7813 733.3094,267.0469 Q733.575,267.2969 733.575,267.6406 Q733.575,267.9844 733.2313,268.3906 Q732.7313,268.9688 731.9344,269.2969 Q730.8563,269.75 729.5594,269.75 Q728.0438,269.75 726.8406,269.125 Q725.8563,268.625 725.1688,267.5625 Q724.4813,266.4844 724.4813,265.2031 L724.4813,264.0469 Q724.4813,262.7188 725.0906,261.5781 Q725.7156,260.4219 726.8094,259.8125 Q727.9031,259.1875 729.1375,259.1875 Q729.8719,259.1875 730.5125,259.3594 Q731.1688,259.5156 731.7156,259.875 Z " fill="#000000"/><text fill="#000000" font-family="sans-serif" font-size="12" lengthAdjust="spacing" textLength="72" x="743.05" y="268.9102">SpotLocation</text><line style="stroke:#A80036;stroke-width:1.5;" x1="714.5" x2="817.5" y1="280" y2="280"/><text fill="#000000" font-family="sans-serif" font-size="11" lengthAdjust="spacing" textLength="93" x="719.5" y="295.4189">applicationDirection</text><!--MD5=[086c683bdef04a07506cd1aece793b25]
class SpotLocationIntrinsic--><rect codeLine="9" fill="#FEFECE" height="53.8359" id="SpotLocationIntrinsic" style="stroke:#A80036;stroke-width:1.5;" width="147" x="619.5" y="380"/><ellipse cx="634.5" cy="396" fill="#ADD1B2" rx="11" ry="11" style="stroke:#A80036;stroke-width:1.0;"/><path d="M637.2656,391.875 Q637.4219,391.6563 637.6094,391.5469 Q637.7969,391.4375 638.0156,391.4375 Q638.3906,391.4375 638.625,391.7031 Q638.8594,391.9531 638.8594,392.5625 L638.8594,394.0156 Q638.8594,394.625 638.625,394.8906 Q638.3906,395.1563 638.0156,395.1563 Q637.6719,395.1563 637.4688,394.9531 Q637.2656,394.7656 637.1563,394.25 Q637.1094,393.8906 636.9219,393.7031 Q636.5938,393.3281 635.9844,393.1094 Q635.375,392.8906 634.75,392.8906 Q633.9844,392.8906 633.3438,393.2188 Q632.7188,393.5469 632.2188,394.2969 Q631.7344,395.0469 631.7344,396.0781 L631.7344,397.1719 Q631.7344,398.4063 632.625,399.2344 Q633.5156,400.0469 635.1094,400.0469 Q636.0469,400.0469 636.7031,399.7969 Q637.0938,399.6406 637.5156,399.2031 Q637.7813,398.9375 637.9219,398.8594 Q638.0781,398.7813 638.2813,398.7813 Q638.6094,398.7813 638.8594,399.0469 Q639.125,399.2969 639.125,399.6406 Q639.125,399.9844 638.7813,400.3906 Q638.2813,400.9688 637.4844,401.2969 Q636.4063,401.75 635.1094,401.75 Q633.5938,401.75 632.3906,401.125 Q631.4063,400.625 630.7188,399.5625 Q630.0313,398.4844 630.0313,397.2031 L630.0313,396.0469 Q630.0313,394.7188 630.6406,393.5781 Q631.2656,392.4219 632.3594,391.8125 Q633.4531,391.1875 634.6875,391.1875 Q635.4219,391.1875 636.0625,391.3594 Q636.7188,391.5156 637.2656,391.875 Z " fill="#000000"/><text fill="#000000" font-family="sans-serif" font-size="12" lengthAdjust="spacing" textLength="115" x="648.5" y="400.9102">SpotLocationIntrinsic</text><line style="stroke:#A80036;stroke-width:1.5;" x1="620.5" x2="765.5" y1="412" y2="412"/><text fill="#000000" font-family="sans-serif" font-size="11" lengthAdjust="spacing" textLength="66" x="625.5" y="427.4189">intrinsicCoord</text><!--MD5=[241f03647eeeae408a552809330daef8]
class SpotLocationCoordinate--><rect codeLine="13" fill="#FEFECE" height="40" id="SpotLocationCoordinate" style="stroke:#A80036;stroke-width:1.5;" width="165" x="801.5" y="387"/><ellipse cx="816.5" cy="403" fill="#ADD1B2" rx="11" ry="11" style="stroke:#A80036;stroke-width:1.0;"/><path d="M819.2656,398.875 Q819.4219,398.6563 819.6094,398.5469 Q819.7969,398.4375 820.0156,398.4375 Q820.3906,398.4375 820.625,398.7031 Q820.8594,398.9531 820.8594,399.5625 L820.8594,401.0156 Q820.8594,401.625 820.625,401.8906 Q820.3906,402.1563 820.0156,402.1563 Q819.6719,402.1563 819.4688,401.9531 Q819.2656,401.7656 819.1563,401.25 Q819.1094,400.8906 818.9219,400.7031 Q818.5938,400.3281 817.9844,400.1094 Q817.375,399.8906 816.75,399.8906 Q815.9844,399.8906 815.3438,400.2188 Q814.7188,400.5469 814.2188,401.2969 Q813.7344,402.0469 813.7344,403.0781 L813.7344,404.1719 Q813.7344,405.4063 814.625,406.2344 Q815.5156,407.0469 817.1094,407.0469 Q818.0469,407.0469 818.7031,406.7969 Q819.0938,406.6406 819.5156,406.2031 Q819.7813,405.9375 819.9219,405.8594 Q820.0781,405.7813 820.2813,405.7813 Q820.6094,405.7813 820.8594,406.0469 Q821.125,406.2969 821.125,406.6406 Q821.125,406.9844 820.7813,407.3906 Q820.2813,407.9688 819.4844,408.2969 Q818.4063,408.75 817.1094,408.75 Q815.5938,408.75 814.3906,408.125 Q813.4063,407.625 812.7188,406.5625 Q812.0313,405.4844 812.0313,404.2031 L812.0313,403.0469 Q812.0313,401.7188 812.6406,400.5781 Q813.2656,399.4219 814.3594,398.8125 Q815.4531,398.1875 816.6875,398.1875 Q817.4219,398.1875 818.0625,398.3594 Q818.7188,398.5156 819.2656,398.875 Z " fill="#000000"/><text fill="#000000" font-family="sans-serif" font-size="12" lengthAdjust="spacing" textLength="133" x="830.5" y="407.9102">SpotLocationCoordinate</text><line style="stroke:#A80036;stroke-width:1.5;" x1="802.5" x2="965.5" y1="419" y2="419"/><!--MD5=[d39a3363bedd65259d525ae275866678]
class AssociatedNetElement--><rect codeLine="17" fill="#FEFECE" height="53.8359" id="AssociatedNetElement" style="stroke:#A80036;stroke-width:1.5;" width="158" x="426" y="380"/><ellipse cx="441" cy="396" fill="#ADD1B2" rx="11" ry="11" style="stroke:#A80036;stroke-width:1.0;"/><path d="M443.7656,391.875 Q443.9219,391.6563 444.1094,391.5469 Q444.2969,391.4375 444.5156,391.4375 Q444.8906,391.4375 445.125,391.7031 Q445.3594,391.9531 445.3594,392.5625 L445.3594,394.0156 Q445.3594,394.625 445.125,394.8906 Q444.8906,395.1563 444.5156,395.1563 Q444.1719,395.1563 443.9688,394.9531 Q443.7656,394.7656 443.6563,394.25 Q443.6094,393.8906 443.4219,393.7031 Q443.0938,393.3281 442.4844,393.1094 Q441.875,392.8906 441.25,392.8906 Q440.4844,392.8906 439.8438,393.2188 Q439.2188,393.5469 438.7188,394.2969 Q438.2344,395.0469 438.2344,396.0781 L438.2344,397.1719 Q438.2344,398.4063 439.125,399.2344 Q440.0156,400.0469 441.6094,400.0469 Q442.5469,400.0469 443.2031,399.7969 Q443.5938,399.6406 444.0156,399.2031 Q444.2813,398.9375 444.4219,398.8594 Q444.5781,398.7813 444.7813,398.7813 Q445.1094,398.7813 445.3594,399.0469 Q445.625,399.2969 445.625,399.6406 Q445.625,399.9844 445.2813,400.3906 Q444.7813,400.9688 443.9844,401.2969 Q442.9063,401.75 441.6094,401.75 Q440.0938,401.75 438.8906,401.125 Q437.9063,400.625 437.2188,399.5625 Q436.5313,398.4844 436.5313,397.2031 L436.5313,396.0469 Q436.5313,394.7188 437.1406,393.5781 Q437.7656,392.4219 438.8594,391.8125 Q439.9531,391.1875 441.1875,391.1875 Q441.9219,391.1875 442.5625,391.3594 Q443.2188,391.5156 443.7656,391.875 Z " fill="#000000"/><text fill="#000000" font-family="sans-serif" font-size="12" lengthAdjust="spacing" textLength="126" x="455" y="400.9102">AssociatedNetElement</text><line style="stroke:#A80036;stroke-width:1.5;" x1="427" x2="583" y1="412" y2="412"/><text fill="#000000" font-family="sans-serif" font-size="11" lengthAdjust="spacing" textLength="81" x="432" y="427.4189">keepsOrientation</text><!--MD5=[1173586a1f820f66efee26874d88de5f]
class OrderedAssociatedNetElement--><rect codeLine="20" fill="#FEFECE" height="53.8359" id="OrderedAssociatedNetElement" style="stroke:#A80036;stroke-width:1.5;" width="203" x="131.5" y="519"/><ellipse cx="146.5" cy="535" fill="#ADD1B2" rx="11" ry="11" style="stroke:#A80036;stroke-width:1.0;"/><path d="M149.2656,530.875 Q149.4219,530.6563 149.6094,530.5469 Q149.7969,530.4375 150.0156,530.4375 Q150.3906,530.4375 150.625,530.7031 Q150.8594,530.9531 150.8594,531.5625 L150.8594,533.0156 Q150.8594,533.625 150.625,533.8906 Q150.3906,534.1563 150.0156,534.1563 Q149.6719,534.1563 149.4688,533.9531 Q149.2656,533.7656 149.1563,533.25 Q149.1094,532.8906 148.9219,532.7031 Q148.5938,532.3281 147.9844,532.1094 Q147.375,531.8906 146.75,531.8906 Q145.9844,531.8906 145.3438,532.2188 Q144.7188,532.5469 144.2188,533.2969 Q143.7344,534.0469 143.7344,535.0781 L143.7344,536.1719 Q143.7344,537.4063 144.625,538.2344 Q145.5156,539.0469 147.1094,539.0469 Q148.0469,539.0469 148.7031,538.7969 Q149.0938,538.6406 149.5156,538.2031 Q149.7813,537.9375 149.9219,537.8594 Q150.0781,537.7813 150.2813,537.7813 Q150.6094,537.7813 150.8594,538.0469 Q151.125,538.2969 151.125,538.6406 Q151.125,538.9844 150.7813,539.3906 Q150.2813,539.9688 149.4844,540.2969 Q148.4063,540.75 147.1094,540.75 Q145.5938,540.75 144.3906,540.125 Q143.4063,539.625 142.7188,538.5625 Q142.0313,537.4844 142.0313,536.2031 L142.0313,535.0469 Q142.0313,533.7188 142.6406,532.5781 Q143.2656,531.4219 144.3594,530.8125 Q145.4531,530.1875 146.6875,530.1875 Q147.4219,530.1875 148.0625,530.3594 Q148.7188,530.5156 149.2656,530.875 Z " fill="#000000"/><text fill="#000000" font-family="sans-serif" font-size="12" lengthAdjust="spacing" textLength="171" x="160.5" y="539.9102">OrderedAssociatedNetElement</text><line style="stroke:#A80036;stroke-width:1.5;" x1="132.5" x2="333.5" y1="551" y2="551"/><text fill="#000000" font-family="sans-serif" font-size="11" lengthAdjust="spacing" textLength="48" x="137.5" y="566.4189">sequence</text><!--MD5=[c6d1b0e3f7e29efac47a409d9fb6fa87]
class AssociatedNetElementIntrinsic--><rect codeLine="24" fill="#FEFECE" height="67.6719" id="AssociatedNetElementIntrinsic" style="stroke:#A80036;stroke-width:1.5;" width="201" x="623.5" y="512"/><ellipse cx="638.5" cy="528" fill="#ADD1B2" rx="11" ry="11" style="stroke:#A80036;stroke-width:1.0;"/><path d="M641.2656,523.875 Q641.4219,523.6563 641.6094,523.5469 Q641.7969,523.4375 642.0156,523.4375 Q642.3906,523.4375 642.625,523.7031 Q642.8594,523.9531 642.8594,524.5625 L642.8594,526.0156 Q642.8594,526.625 642.625,526.8906 Q642.3906,527.1563 642.0156,527.1563 Q641.6719,527.1563 641.4688,526.9531 Q641.2656,526.7656 641.1563,526.25 Q641.1094,525.8906 640.9219,525.7031 Q640.5938,525.3281 639.9844,525.1094 Q639.375,524.8906 638.75,524.8906 Q637.9844,524.8906 637.3438,525.2188 Q636.7188,525.5469 636.2188,526.2969 Q635.7344,527.0469 635.7344,528.0781 L635.7344,529.1719 Q635.7344,530.4063 636.625,531.2344 Q637.5156,532.0469 639.1094,532.0469 Q640.0469,532.0469 640.7031,531.7969 Q641.0938,531.6406 641.5156,531.2031 Q641.7813,530.9375 641.9219,530.8594 Q642.0781,530.7813 642.2813,530.7813 Q642.6094,530.7813 642.8594,531.0469 Q643.125,531.2969 643.125,531.6406 Q643.125,531.9844 642.7813,532.3906 Q642.2813,532.9688 641.4844,533.2969 Q640.4063,533.75 639.1094,533.75 Q637.5938,533.75 636.3906,533.125 Q635.4063,532.625 634.7188,531.5625 Q634.0313,530.4844 634.0313,529.2031 L634.0313,528.0469 Q634.0313,526.7188 634.6406,525.5781 Q635.2656,524.4219 636.3594,523.8125 Q637.4531,523.1875 638.6875,523.1875 Q639.4219,523.1875 640.0625,523.3594 Q640.7188,523.5156 641.2656,523.875 Z " fill="#000000"/><text fill="#000000" font-family="sans-serif" font-size="12" lengthAdjust="spacing" textLength="169" x="652.5" y="532.9102">AssociatedNetElementIntrinsic</text><line style="stroke:#A80036;stroke-width:1.5;" x1="624.5" x2="823.5" y1="544" y2="544"/><text fill="#000000" font-family="sans-serif" font-size="11" lengthAdjust="spacing" textLength="93" x="629.5" y="559.4189">intrinsicCoordBegin</text><text fill="#000000" font-family="sans-serif" font-size="11" lengthAdjust="spacing" textLength="84" x="629.5" y="573.2549">intrinsicCoordEnd</text><!--MD5=[e1d641e16c694f3a3a11c9f92a8a536a]
class AssociatedNetElementCoordinate--><rect codeLine="29" fill="#FEFECE" height="40" id="AssociatedNetElementCoordinate" style="stroke:#A80036;stroke-width:1.5;" width="219" x="369.5" y="526"/><ellipse cx="384.5" cy="542" fill="#ADD1B2" rx="11" ry="11" style="stroke:#A80036;stroke-width:1.0;"/><path d="M387.2656,537.875 Q387.4219,537.6563 387.6094,537.5469 Q387.7969,537.4375 388.0156,537.4375 Q388.3906,537.4375 388.625,537.7031 Q388.8594,537.9531 388.8594,538.5625 L388.8594,540.0156 Q388.8594,540.625 388.625,540.8906 Q388.3906,541.1563 388.0156,541.1563 Q387.6719,541.1563 387.4688,540.9531 Q387.2656,540.7656 387.1563,540.25 Q387.1094,539.8906 386.9219,539.7031 Q386.5938,539.3281 385.9844,539.1094 Q385.375,538.8906 384.75,538.8906 Q383.9844,538.8906 383.3438,539.2188 Q382.7188,539.5469 382.2188,540.2969 Q381.7344,541.0469 381.7344,542.0781 L381.7344,543.1719 Q381.7344,544.4063 382.625,545.2344 Q383.5156,546.0469 385.1094,546.0469 Q386.0469,546.0469 386.7031,545.7969 Q387.0938,545.6406 387.5156,545.2031 Q387.7813,544.9375 387.9219,544.8594 Q388.0781,544.7813 388.2813,544.7813 Q388.6094,544.7813 388.8594,545.0469 Q389.125,545.2969 389.125,545.6406 Q389.125,545.9844 388.7813,546.3906 Q388.2813,546.9688 387.4844,547.2969 Q386.4063,547.75 385.1094,547.75 Q383.5938,547.75 382.3906,547.125 Q381.4063,546.625 380.7188,545.5625 Q380.0313,544.4844 380.0313,543.2031 L380.0313,542.0469 Q380.0313,540.7188 380.6406,539.5781 Q381.2656,538.4219 382.3594,537.8125 Q383.4531,537.1875 384.6875,537.1875 Q385.4219,537.1875 386.0625,537.3594 Q386.7188,537.5156 387.2656,537.875 Z " fill="#000000"/><text fill="#000000" font-family="sans-serif" font-size="12" lengthAdjust="spacing" textLength="187" x="398.5" y="546.9102">AssociatedNetElementCoordinate</text><line style="stroke:#A80036;stroke-width:1.5;" x1="370.5" x2="587.5" y1="558" y2="558"/><!--MD5=[f2b13f5f13b3a04ededdada1c0b01ee4]
class AreaLocation--><rect codeLine="33" fill="#FEFECE" height="40" id="AreaLocation" style="stroke:#A80036;stroke-width:1.5;" width="104" x="453" y="255"/><ellipse cx="468" cy="271" fill="#ADD1B2" rx="11" ry="11" style="stroke:#A80036;stroke-width:1.0;"/><path d="M470.7656,266.875 Q470.9219,266.6563 471.1094,266.5469 Q471.2969,266.4375 471.5156,266.4375 Q471.8906,266.4375 472.125,266.7031 Q472.3594,266.9531 472.3594,267.5625 L472.3594,269.0156 Q472.3594,269.625 472.125,269.8906 Q471.8906,270.1563 471.5156,270.1563 Q471.1719,270.1563 470.9688,269.9531 Q470.7656,269.7656 470.6563,269.25 Q470.6094,268.8906 470.4219,268.7031 Q470.0938,268.3281 469.4844,268.1094 Q468.875,267.8906 468.25,267.8906 Q467.4844,267.8906 466.8438,268.2188 Q466.2188,268.5469 465.7188,269.2969 Q465.2344,270.0469 465.2344,271.0781 L465.2344,272.1719 Q465.2344,273.4063 466.125,274.2344 Q467.0156,275.0469 468.6094,275.0469 Q469.5469,275.0469 470.2031,274.7969 Q470.5938,274.6406 471.0156,274.2031 Q471.2813,273.9375 471.4219,273.8594 Q471.5781,273.7813 471.7813,273.7813 Q472.1094,273.7813 472.3594,274.0469 Q472.625,274.2969 472.625,274.6406 Q472.625,274.9844 472.2813,275.3906 Q471.7813,275.9688 470.9844,276.2969 Q469.9063,276.75 468.6094,276.75 Q467.0938,276.75 465.8906,276.125 Q464.9063,275.625 464.2188,274.5625 Q463.5313,273.4844 463.5313,272.2031 L463.5313,271.0469 Q463.5313,269.7188 464.1406,268.5781 Q464.7656,267.4219 465.8594,266.8125 Q466.9531,266.1875 468.1875,266.1875 Q468.9219,266.1875 469.5625,266.3594 Q470.2188,266.5156 470.7656,266.875 Z " fill="#000000"/><text fill="#000000" font-family="sans-serif" font-size="12" lengthAdjust="spacing" textLength="72" x="482" y="275.9102">AreaLocation</text><line style="stroke:#A80036;stroke-width:1.5;" x1="454" x2="556" y1="287" y2="287"/><!--MD5=[02074e8c8c694353e2594d5c4efe03fb]
class LinearLocation--><rect codeLine="36" fill="#FEFECE" height="53.8359" id="LinearLocation" style="stroke:#A80036;stroke-width:1.5;" width="114" x="221" y="248"/><ellipse cx="236" cy="264" fill="#ADD1B2" rx="11" ry="11" style="stroke:#A80036;stroke-width:1.0;"/><path d="M238.7656,259.875 Q238.9219,259.6563 239.1094,259.5469 Q239.2969,259.4375 239.5156,259.4375 Q239.8906,259.4375 240.125,259.7031 Q240.3594,259.9531 240.3594,260.5625 L240.3594,262.0156 Q240.3594,262.625 240.125,262.8906 Q239.8906,263.1563 239.5156,263.1563 Q239.1719,263.1563 238.9688,262.9531 Q238.7656,262.7656 238.6563,262.25 Q238.6094,261.8906 238.4219,261.7031 Q238.0938,261.3281 237.4844,261.1094 Q236.875,260.8906 236.25,260.8906 Q235.4844,260.8906 234.8438,261.2188 Q234.2188,261.5469 233.7188,262.2969 Q233.2344,263.0469 233.2344,264.0781 L233.2344,265.1719 Q233.2344,266.4063 234.125,267.2344 Q235.0156,268.0469 236.6094,268.0469 Q237.5469,268.0469 238.2031,267.7969 Q238.5938,267.6406 239.0156,267.2031 Q239.2813,266.9375 239.4219,266.8594 Q239.5781,266.7813 239.7813,266.7813 Q240.1094,266.7813 240.3594,267.0469 Q240.625,267.2969 240.625,267.6406 Q240.625,267.9844 240.2813,268.3906 Q239.7813,268.9688 238.9844,269.2969 Q237.9063,269.75 236.6094,269.75 Q235.0938,269.75 233.8906,269.125 Q232.9063,268.625 232.2188,267.5625 Q231.5313,266.4844 231.5313,265.2031 L231.5313,264.0469 Q231.5313,262.7188 232.1406,261.5781 Q232.7656,260.4219 233.8594,259.8125 Q234.9531,259.1875 236.1875,259.1875 Q236.9219,259.1875 237.5625,259.3594 Q238.2188,259.5156 238.7656,259.875 Z " fill="#000000"/><text fill="#000000" font-family="sans-serif" font-size="12" lengthAdjust="spacing" textLength="82" x="250" y="268.9102">LinearLocation</text><line style="stroke:#A80036;stroke-width:1.5;" x1="222" x2="334" y1="280" y2="280"/><text fill="#000000" font-family="sans-serif" font-size="11" lengthAdjust="spacing" textLength="93" x="227" y="295.4189">applicationDirection</text><!--MD5=[de854ba6a963f237b9963c069d330461]
class LinearLocationCoordinate--><rect codeLine="40" fill="#FEFECE" height="40" id="LinearLocationCoordinate" style="stroke:#A80036;stroke-width:1.5;" width="175" x="32.5" y="387"/><ellipse cx="47.5" cy="403" fill="#ADD1B2" rx="11" ry="11" style="stroke:#A80036;stroke-width:1.0;"/><path d="M50.2656,398.875 Q50.4219,398.6563 50.6094,398.5469 Q50.7969,398.4375 51.0156,398.4375 Q51.3906,398.4375 51.625,398.7031 Q51.8594,398.9531 51.8594,399.5625 L51.8594,401.0156 Q51.8594,401.625 51.625,401.8906 Q51.3906,402.1563 51.0156,402.1563 Q50.6719,402.1563 50.4688,401.9531 Q50.2656,401.7656 50.1563,401.25 Q50.1094,400.8906 49.9219,400.7031 Q49.5938,400.3281 48.9844,400.1094 Q48.375,399.8906 47.75,399.8906 Q46.9844,399.8906 46.3438,400.2188 Q45.7188,400.5469 45.2188,401.2969 Q44.7344,402.0469 44.7344,403.0781 L44.7344,404.1719 Q44.7344,405.4063 45.625,406.2344 Q46.5156,407.0469 48.1094,407.0469 Q49.0469,407.0469 49.7031,406.7969 Q50.0938,406.6406 50.5156,406.2031 Q50.7813,405.9375 50.9219,405.8594 Q51.0781,405.7813 51.2813,405.7813 Q51.6094,405.7813 51.8594,406.0469 Q52.125,406.2969 52.125,406.6406 Q52.125,406.9844 51.7813,407.3906 Q51.2813,407.9688 50.4844,408.2969 Q49.4063,408.75 48.1094,408.75 Q46.5938,408.75 45.3906,408.125 Q44.4063,407.625 43.7188,406.5625 Q43.0313,405.4844 43.0313,404.2031 L43.0313,403.0469 Q43.0313,401.7188 43.6406,400.5781 Q44.2656,399.4219 45.3594,398.8125 Q46.4531,398.1875 47.6875,398.1875 Q48.4219,398.1875 49.0625,398.3594 Q49.7188,398.5156 50.2656,398.875 Z " fill="#000000"/><text fill="#000000" font-family="sans-serif" font-size="12" lengthAdjust="spacing" textLength="143" x="61.5" y="407.9102">LinearLocationCoordinate</text><line style="stroke:#A80036;stroke-width:1.5;" x1="33.5" x2="206.5" y1="419" y2="419"/><!--MD5=[e2939bbfbcfd9faca3b9414ba0483c04]
class EntityLocation--><rect codeLine="43" fill="#FEFECE" height="40" id="EntityLocation" style="stroke:#A80036;stroke-width:1.5;" width="108" x="451" y="147"/><ellipse cx="466" cy="163" fill="#ADD1B2" rx="11" ry="11" style="stroke:#A80036;stroke-width:1.0;"/><path d="M468.7656,158.875 Q468.9219,158.6563 469.1094,158.5469 Q469.2969,158.4375 469.5156,158.4375 Q469.8906,158.4375 470.125,158.7031 Q470.3594,158.9531 470.3594,159.5625 L470.3594,161.0156 Q470.3594,161.625 470.125,161.8906 Q469.8906,162.1563 469.5156,162.1563 Q469.1719,162.1563 468.9688,161.9531 Q468.7656,161.7656 468.6563,161.25 Q468.6094,160.8906 468.4219,160.7031 Q468.0938,160.3281 467.4844,160.1094 Q466.875,159.8906 466.25,159.8906 Q465.4844,159.8906 464.8438,160.2188 Q464.2188,160.5469 463.7188,161.2969 Q463.2344,162.0469 463.2344,163.0781 L463.2344,164.1719 Q463.2344,165.4063 464.125,166.2344 Q465.0156,167.0469 466.6094,167.0469 Q467.5469,167.0469 468.2031,166.7969 Q468.5938,166.6406 469.0156,166.2031 Q469.2813,165.9375 469.4219,165.8594 Q469.5781,165.7813 469.7813,165.7813 Q470.1094,165.7813 470.3594,166.0469 Q470.625,166.2969 470.625,166.6406 Q470.625,166.9844 470.2813,167.3906 Q469.7813,167.9688 468.9844,168.2969 Q467.9063,168.75 466.6094,168.75 Q465.0938,168.75 463.8906,168.125 Q462.9063,167.625 462.2188,166.5625 Q461.5313,165.4844 461.5313,164.2031 L461.5313,163.0469 Q461.5313,161.7188 462.1406,160.5781 Q462.7656,159.4219 463.8594,158.8125 Q464.9531,158.1875 466.1875,158.1875 Q466.9219,158.1875 467.5625,158.3594 Q468.2188,158.5156 468.7656,158.875 Z " fill="#000000"/><text fill="#000000" font-family="sans-serif" font-size="12" lengthAdjust="spacing" textLength="76" x="480" y="167.9102">EntityLocation</text><line style="stroke:#A80036;stroke-width:1.5;" x1="452" x2="558" y1="179" y2="179"/><!--MD5=[7fdce667dd5c2bfd6fafd3e45c05fe82]
class BaseObject--><rect fill="#FEFECE" height="40" id="BaseObject" style="stroke:#A80036;stroke-width:1.5;" width="96" x="384" y="7"/><ellipse cx="399" cy="23" fill="#ADD1B2" rx="11" ry="11" style="stroke:#A80036;stroke-width:1.0;"/><path d="M401.7656,18.875 Q401.9219,18.6563 402.1094,18.5469 Q402.2969,18.4375 402.5156,18.4375 Q402.8906,18.4375 403.125,18.7031 Q403.3594,18.9531 403.3594,19.5625 L403.3594,21.0156 Q403.3594,21.625 403.125,21.8906 Q402.8906,22.1563 402.5156,22.1563 Q402.1719,22.1563 401.9688,21.9531 Q401.7656,21.7656 401.6563,21.25 Q401.6094,20.8906 401.4219,20.7031 Q401.0938,20.3281 400.4844,20.1094 Q399.875,19.8906 399.25,19.8906 Q398.4844,19.8906 397.8438,20.2188 Q397.2188,20.5469 396.7188,21.2969 Q396.2344,22.0469 396.2344,23.0781 L396.2344,24.1719 Q396.2344,25.4063 397.125,26.2344 Q398.0156,27.0469 399.6094,27.0469 Q400.5469,27.0469 401.2031,26.7969 Q401.5938,26.6406 402.0156,26.2031 Q402.2813,25.9375 402.4219,25.8594 Q402.5781,25.7813 402.7813,25.7813 Q403.1094,25.7813 403.3594,26.0469 Q403.625,26.2969 403.625,26.6406 Q403.625,26.9844 403.2813,27.3906 Q402.7813,27.9688 401.9844,28.2969 Q400.9063,28.75 399.6094,28.75 Q398.0938,28.75 396.8906,28.125 Q395.9063,27.625 395.2188,26.5625 Q394.5313,25.4844 394.5313,24.2031 L394.5313,23.0469 Q394.5313,21.7188 395.1406,20.5781 Q395.7656,19.4219 396.8594,18.8125 Q397.9531,18.1875 399.1875,18.1875 Q399.9219,18.1875 400.5625,18.3594 Q401.2188,18.5156 401.7656,18.875 Z " fill="#000000"/><text fill="#000000" font-family="sans-serif" font-size="12" lengthAdjust="spacing" textLength="64" x="413" y="27.9102">BaseObject</text><line style="stroke:#A80036;stroke-width:1.5;" x1="385" x2="479" y1="39" y2="39"/><!--MD5=[02a4e21b036f51e0b06039d09daaca82]
class PositioningSystemCoordinate--><rect fill="#FEFECE" height="40" id="PositioningSystemCoordinate" style="stroke:#A80036;stroke-width:1.5;" width="196" x="449" y="660"/><ellipse cx="464" cy="676" fill="#ADD1B2" rx="11" ry="11" style="stroke:#A80036;stroke-width:1.0;"/><path d="M466.7656,671.875 Q466.9219,671.6563 467.1094,671.5469 Q467.2969,671.4375 467.5156,671.4375 Q467.8906,671.4375 468.125,671.7031 Q468.3594,671.9531 468.3594,672.5625 L468.3594,674.0156 Q468.3594,674.625 468.125,674.8906 Q467.8906,675.1563 467.5156,675.1563 Q467.1719,675.1563 466.9688,674.9531 Q466.7656,674.7656 466.6563,674.25 Q466.6094,673.8906 466.4219,673.7031 Q466.0938,673.3281 465.4844,673.1094 Q464.875,672.8906 464.25,672.8906 Q463.4844,672.8906 462.8438,673.2188 Q462.2188,673.5469 461.7188,674.2969 Q461.2344,675.0469 461.2344,676.0781 L461.2344,677.1719 Q461.2344,678.4063 462.125,679.2344 Q463.0156,680.0469 464.6094,680.0469 Q465.5469,680.0469 466.2031,679.7969 Q466.5938,679.6406 467.0156,679.2031 Q467.2813,678.9375 467.4219,678.8594 Q467.5781,678.7813 467.7813,678.7813 Q468.1094,678.7813 468.3594,679.0469 Q468.625,679.2969 468.625,679.6406 Q468.625,679.9844 468.2813,680.3906 Q467.7813,680.9688 466.9844,681.2969 Q465.9063,681.75 464.6094,681.75 Q463.0938,681.75 461.8906,681.125 Q460.9063,680.625 460.2188,679.5625 Q459.5313,678.4844 459.5313,677.2031 L459.5313,676.0469 Q459.5313,674.7188 460.1406,673.5781 Q460.7656,672.4219 461.8594,671.8125 Q462.9531,671.1875 464.1875,671.1875 Q464.9219,671.1875 465.5625,671.3594 Q466.2188,671.5156 466.7656,671.875 Z " fill="#000000"/><text fill="#000000" font-family="sans-serif" font-size="12" lengthAdjust="spacing" textLength="164" x="478" y="680.9102">PositioningSystemCoordinate</text><line style="stroke:#A80036;stroke-width:1.5;" x1="450" x2="644" y1="692" y2="692"/><!--MD5=[f31f029335f1643dfcd7fa7e86c4f23a]
class LocatedNetEntity--><rect fill="#FEFECE" height="40" id="LocatedNetEntity" style="stroke:#A80036;stroke-width:1.5;" width="124" x="515" y="7"/><ellipse cx="530" cy="23" fill="#ADD1B2" rx="11" ry="11" style="stroke:#A80036;stroke-width:1.0;"/><path d="M532.7656,18.875 Q532.9219,18.6563 533.1094,18.5469 Q533.2969,18.4375 533.5156,18.4375 Q533.8906,18.4375 534.125,18.7031 Q534.3594,18.9531 534.3594,19.5625 L534.3594,21.0156 Q534.3594,21.625 534.125,21.8906 Q533.8906,22.1563 533.5156,22.1563 Q533.1719,22.1563 532.9688,21.9531 Q532.7656,21.7656 532.6563,21.25 Q532.6094,20.8906 532.4219,20.7031 Q532.0938,20.3281 531.4844,20.1094 Q530.875,19.8906 530.25,19.8906 Q529.4844,19.8906 528.8438,20.2188 Q528.2188,20.5469 527.7188,21.2969 Q527.2344,22.0469 527.2344,23.0781 L527.2344,24.1719 Q527.2344,25.4063 528.125,26.2344 Q529.0156,27.0469 530.6094,27.0469 Q531.5469,27.0469 532.2031,26.7969 Q532.5938,26.6406 533.0156,26.2031 Q533.2813,25.9375 533.4219,25.8594 Q533.5781,25.7813 533.7813,25.7813 Q534.1094,25.7813 534.3594,26.0469 Q534.625,26.2969 534.625,26.6406 Q534.625,26.9844 534.2813,27.3906 Q533.7813,27.9688 532.9844,28.2969 Q531.9063,28.75 530.6094,28.75 Q529.0938,28.75 527.8906,28.125 Q526.9063,27.625 526.2188,26.5625 Q525.5313,25.4844 525.5313,24.2031 L525.5313,23.0469 Q525.5313,21.7188 526.1406,20.5781 Q526.7656,19.4219 527.8594,18.8125 Q528.9531,18.1875 530.1875,18.1875 Q530.9219,18.1875 531.5625,18.3594 Q532.2188,18.5156 532.7656,18.875 Z " fill="#000000"/><text fill="#000000" font-family="sans-serif" font-size="12" lengthAdjust="spacing" textLength="92" x="544" y="27.9102">LocatedNetEntity</text><line style="stroke:#A80036;stroke-width:1.5;" x1="516" x2="638" y1="39" y2="39"/><!--MD5=[c30feab4fd629f52fcb312dfb305dae4]
class PositioningNetElement--><rect fill="#FEFECE" height="40" id="PositioningNetElement" style="stroke:#A80036;stroke-width:1.5;" width="159" x="947.5" y="660"/><ellipse cx="962.5" cy="676" fill="#ADD1B2" rx="11" ry="11" style="stroke:#A80036;stroke-width:1.0;"/><path d="M965.2656,671.875 Q965.4219,671.6563 965.6094,671.5469 Q965.7969,671.4375 966.0156,671.4375 Q966.3906,671.4375 966.625,671.7031 Q966.8594,671.9531 966.8594,672.5625 L966.8594,674.0156 Q966.8594,674.625 966.625,674.8906 Q966.3906,675.1563 966.0156,675.1563 Q965.6719,675.1563 965.4688,674.9531 Q965.2656,674.7656 965.1563,674.25 Q965.1094,673.8906 964.9219,673.7031 Q964.5938,673.3281 963.9844,673.1094 Q963.375,672.8906 962.75,672.8906 Q961.9844,672.8906 961.3438,673.2188 Q960.7188,673.5469 960.2188,674.2969 Q959.7344,675.0469 959.7344,676.0781 L959.7344,677.1719 Q959.7344,678.4063 960.625,679.2344 Q961.5156,680.0469 963.1094,680.0469 Q964.0469,680.0469 964.7031,679.7969 Q965.0938,679.6406 965.5156,679.2031 Q965.7813,678.9375 965.9219,678.8594 Q966.0781,678.7813 966.2813,678.7813 Q966.6094,678.7813 966.8594,679.0469 Q967.125,679.2969 967.125,679.6406 Q967.125,679.9844 966.7813,680.3906 Q966.2813,680.9688 965.4844,681.2969 Q964.4063,681.75 963.1094,681.75 Q961.5938,681.75 960.3906,681.125 Q959.4063,680.625 958.7188,679.5625 Q958.0313,678.4844 958.0313,677.2031 L958.0313,676.0469 Q958.0313,674.7188 958.6406,673.5781 Q959.2656,672.4219 960.3594,671.8125 Q961.4531,671.1875 962.6875,671.1875 Q963.4219,671.1875 964.0625,671.3594 Q964.7188,671.5156 965.2656,671.875 Z " fill="#000000"/><text fill="#000000" font-family="sans-serif" font-size="12" lengthAdjust="spacing" textLength="127" x="976.5" y="680.9102">PositioningNetElement</text><line style="stroke:#A80036;stroke-width:1.5;" x1="948.5" x2="1105.5" y1="692" y2="692"/><!--MD5=[90e2ddce371514a0797bea9135e016b6]
reverse link SpotLocation to SpotLocationIntrinsic--><path codeLine="12" d="M741.39,319.83 C730.22,339.71 717.39,362.56 707.75,379.73 " fill="none" id="SpotLocation-backto-SpotLocationIntrinsic" style="stroke:#A80036;stroke-width:1.0;"/><polygon fill="none" points="735.33,316.32,751.23,302.31,747.54,323.17,735.33,316.32" style="stroke:#A80036;stroke-width:1.0;"/><!--MD5=[9a280e9395d681dec1b2e4a0bb3e6900]
reverse link SpotLocation to SpotLocationCoordinate--><path codeLine="15" d="M803.37,317.17 C824.57,340.53 850.09,368.65 866.66,386.9 " fill="none" id="SpotLocation-backto-SpotLocationCoordinate" style="stroke:#A80036;stroke-width:1.0;"/><polygon fill="none" points="798.14,321.82,789.88,302.31,808.5,312.41,798.14,321.82" style="stroke:#A80036;stroke-width:1.0;"/><!--MD5=[65b239b88cb42ad375cd7b8f770ca9fa]
reverse link AssociatedNetElement to OrderedAssociatedNetElement--><path codeLine="23" d="M435.04,443.24 C388.23,466.81 327.64,497.33 285.07,518.77 " fill="none" id="AssociatedNetElement-backto-OrderedAssociatedNetElement" style="stroke:#A80036;stroke-width:1.0;"/><polygon fill="none" points="432.19,436.84,453.2,434.09,438.49,449.34,432.19,436.84" style="stroke:#A80036;stroke-width:1.0;"/><!--MD5=[c5cdfb9eb59834ea41c9d9bc751d35ac]
reverse link AssociatedNetElement to AssociatedNetElementIntrinsic--><path codeLine="28" d="M563.86,444.82 C597.3,465.74 638.82,491.72 671.21,511.98 " fill="none" id="AssociatedNetElement-backto-AssociatedNetElementIntrinsic" style="stroke:#A80036;stroke-width:1.0;"/><polygon fill="none" points="559.95,450.63,546.71,434.09,567.38,438.76,559.95,450.63" style="stroke:#A80036;stroke-width:1.0;"/><!--MD5=[4b0a497cb5553327b7bee82669e8d812]
reverse link AssociatedNetElement to AssociatedNetElementCoordinate--><path codeLine="31" d="M496.26,454.06 C491.63,478.45 486.19,507.11 482.67,525.64 " fill="none" id="AssociatedNetElement-backto-AssociatedNetElementCoordinate" style="stroke:#A80036;stroke-width:1.0;"/><polygon fill="none" points="489.44,452.44,500.05,434.09,503.2,455.05,489.44,452.44" style="stroke:#A80036;stroke-width:1.0;"/><!--MD5=[9188a06fac03c27acc47fcd1b6c20339]
reverse link LinearLocation to LinearLocationCoordinate--><path codeLine="42" d="M230.39,315.18 C201.54,338.91 166.04,368.12 143.21,386.9 " fill="none" id="LinearLocation-backto-LinearLocationCoordinate" style="stroke:#A80036;stroke-width:1.0;"/><polygon fill="none" points="226.13,309.61,246.03,302.31,235.03,320.42,226.13,309.61" style="stroke:#A80036;stroke-width:1.0;"/><!--MD5=[9ea819fb9969372bdd014cd492c92474]
reverse link EntityLocation to SpotLocation--><path codeLine="46" d="M570.56,194.63 C614.64,212.53 671.97,235.81 713.13,252.53 " fill="none" id="EntityLocation-backto-SpotLocation" style="stroke:#A80036;stroke-width:1.0;"/><polygon fill="none" points="567.86,201.08,551.96,187.07,573.13,188.11,567.86,201.08" style="stroke:#A80036;stroke-width:1.0;"/><!--MD5=[e05fb90adfee72ef834595c1dbc72d5a]
reverse link EntityLocation to AreaLocation--><path codeLine="47" d="M505,207.67 C505,223.74 505,241.56 505,254.68 " fill="none" id="EntityLocation-backto-AreaLocation" style="stroke:#A80036;stroke-width:1.0;"/><polygon fill="none" points="498,207.44,505,187.44,512,207.44,498,207.44" style="stroke:#A80036;stroke-width:1.0;"/><!--MD5=[17b71445ee792c4953d538ae8805695b]
reverse link EntityLocation to LinearLocation--><path codeLine="48" d="M445.96,195.57 C411.36,211.73 367.91,232.01 333.88,247.91 " fill="none" id="EntityLocation-backto-LinearLocation" style="stroke:#A80036;stroke-width:1.0;"/><polygon fill="none" points="443.07,189.19,464.15,187.07,448.99,201.88,443.07,189.19" style="stroke:#A80036;stroke-width:1.0;"/><!--MD5=[0547b823ea37a97f1b2ce294d817b28f]
reverse link LinearLocation to OrderedAssociatedNetElement--><path codeLine="49" d="M271.41,315.41 C262.1,371.05 245.36,471.12 237.41,518.61 " fill="none" id="LinearLocation-backto-OrderedAssociatedNetElement" style="stroke:#A80036;stroke-width:1.0;"/><polygon fill="#A80036" points="273.6,302.28,268.6604,307.5336,271.6101,314.1139,276.5497,308.8602,273.6,302.28" style="stroke:#A80036;stroke-width:1.0;"/><text fill="#000000" font-family="sans-serif" font-size="13" lengthAdjust="spacing" textLength="111" x="260" y="412.4951">associatedElement</text><!--MD5=[0dd967b19dffde8ecd5d53957efbea91]
reverse link BaseObject to EntityLocation--><path codeLine="51" d="M451.62,65.09 C465.6,91.51 483.8,125.93 494.94,146.97 " fill="none" id="BaseObject-backto-EntityLocation" style="stroke:#A80036;stroke-width:1.0;"/><polygon fill="none" points="445.31,68.14,442.15,47.19,457.69,61.59,445.31,68.14" style="stroke:#A80036;stroke-width:1.0;"/><!--MD5=[632faabdb6e38a91afd5e043481dcd56]
link AssociatedNetElementCoordinate to PositioningSystemCoordinate--><path codeLine="52" d="M473.12,566.32 C468.9,583.96 465.61,610.21 476,630 C481.73,640.91 491.1,649.86 501.19,657 " fill="none" id="AssociatedNetElementCoordinate-to-PositioningSystemCoordinate" style="stroke:#A80036;stroke-width:1.0;"/><polygon fill="#A80036" points="505.55,659.94,500.3332,651.5863,501.4074,657.1402,495.8535,658.2144,505.55,659.94" style="stroke:#A80036;stroke-width:1.0;"/><text fill="#000000" font-family="sans-serif" font-size="13" lengthAdjust="spacing" textLength="26" x="477" y="626.4951">start</text><!--MD5=[632faabdb6e38a91afd5e043481dcd56]
link AssociatedNetElementCoordinate to PositioningSystemCoordinate--><path codeLine="53" d="M488.89,566.19 C501.02,589.75 521.61,629.71 534.74,655.2 " fill="none" id="AssociatedNetElementCoordinate-to-PositioningSystemCoordinate-1" style="stroke:#A80036;stroke-width:1.0;"/><polygon fill="#A80036" points="537.1,659.78,536.5524,649.9464,534.8184,655.3309,529.4339,653.5969,537.1,659.78" style="stroke:#A80036;stroke-width:1.0;"/><text fill="#000000" font-family="sans-serif" font-size="13" lengthAdjust="spacing" textLength="21" x="522" y="626.4951">end</text><!--MD5=[0e74afc234064cfb6af29d45e2666555]
reverse link LocatedNetEntity to EntityLocation--><path codeLine="54" d="M560.79,59.06 C546.71,86.05 526.76,124.29 514.93,146.97 " fill="none" id="LocatedNetEntity-backto-EntityLocation" style="stroke:#A80036;stroke-width:1.0;"/><polygon fill="#A80036" points="566.99,47.19,560.6684,50.6595,561.4397,57.8293,567.7612,54.3597,566.99,47.19" style="stroke:#A80036;stroke-width:1.0;"/><text fill="#000000" font-family="sans-serif" font-size="13" lengthAdjust="spacing" textLength="45" x="550" y="91.4951">location</text><!--MD5=[18e163494f806e0a780dbeb9e1389c02]
link SpotLocation to PositioningNetElement--><path codeLine="56" d="M818.81,293.17 C865.59,310.14 934.01,339.46 984,380 C1041.37,426.53 1061.3,442.03 1085,512 C1098.12,550.73 1098.22,565.31 1085,604 C1078.24,623.79 1063.9,642.41 1051.18,656.15 " fill="none" id="SpotLocation-to-PositioningNetElement" style="stroke:#A80036;stroke-width:1.0;"/><polygon fill="#A80036" points="1047.64,659.89,1056.7364,656.1144,1051.0815,656.2629,1050.933,650.608,1047.64,659.89" style="stroke:#A80036;stroke-width:1.0;"/><text fill="#000000" font-family="sans-serif" font-size="13" lengthAdjust="spacing" textLength="66" x="1074" y="478.4951">netElement</text><!--MD5=[a476e72cb3511b2cb15a57d9cc7d3998]
reverse link AreaLocation to AssociatedNetElement--><path codeLine="57" d="M505,308.48 C505,330.41 505,358.98 505,379.53 " fill="none" id="AreaLocation-backto-AssociatedNetElement" style="stroke:#A80036;stroke-width:1.0;"/><polygon fill="#A80036" points="505,295.18,501,301.18,505,307.18,509,301.18,505,295.18" style="stroke:#A80036;stroke-width:1.0;"/><text fill="#000000" font-family="sans-serif" font-size="13" lengthAdjust="spacing" textLength="131" x="506" y="346.4951">associatedNetElement</text><!--MD5=[b1832090813befa9d7bc9e057f0e6f3f]
link LinearLocationCoordinate to PositioningSystemCoordinate--><path codeLine="58" d="M102.46,427.01 C69.63,464.9 6.21,550.75 52,604 C101.43,661.49 313.37,675.45 443.37,678.52 " fill="none" id="LinearLocationCoordinate-to-PositioningSystemCoordinate" style="stroke:#A80036;stroke-width:1.0;"/><polygon fill="#A80036" points="448.73,678.64,439.824,674.4348,443.7313,678.5254,439.6407,682.4327,448.73,678.64" style="stroke:#A80036;stroke-width:1.0;"/><text fill="#000000" font-family="sans-serif" font-size="13" lengthAdjust="spacing" textLength="60" x="53" y="551.4951">coordinate</text><!--MD5=[207298930330c4a32fbb903d9d84c515]
link SpotLocationCoordinate to PositioningSystemCoordinate--><path codeLine="59" d="M885.96,427.16 C888.8,466.08 889.31,554.86 842,604 C815.47,631.56 724.6,651.93 650.64,664.43 " fill="none" id="SpotLocationCoordinate-to-PositioningSystemCoordinate" style="stroke:#A80036;stroke-width:1.0;"/><polygon fill="#A80036" points="645.35,665.32,654.8886,667.7725,650.2808,664.4911,653.5623,659.8833,645.35,665.32" style="stroke:#A80036;stroke-width:1.0;"/><text fill="#000000" font-family="sans-serif" font-size="13" lengthAdjust="spacing" textLength="60" x="883" y="551.4951">coordinate</text><!--MD5=[70214a04dc306f951dabad964bfc7b77]
link AssociatedNetElement to PositioningNetElement--><path codeLine="60" d="M584.07,429.49 C590.13,431.05 596.16,432.57 602,434 C756.78,471.97 828.48,411.3 952,512 C996.96,548.66 1015.94,617.94 1023.12,654.68 " fill="none" id="AssociatedNetElement-to-PositioningNetElement" style="stroke:#A80036;stroke-width:1.0;"/><polygon fill="#A80036" points="1024.1,659.86,1026.3594,650.2738,1023.1717,654.9469,1018.4985,651.7592,1024.1,659.86" style="stroke:#A80036;stroke-width:1.0;"/><text fill="#000000" font-family="sans-serif" font-size="13" lengthAdjust="spacing" textLength="66" x="1010" y="551.4951">netElement</text><!--MD5=[52342917b6575d825c214ab81760f24a]
link PositioningSystemCoordinate to PositioningNetElement--><!--MD5=[1330710c27826d100d787719b2ec77e8]
@startuml
hide methods
skinparam shadowing false

package "Location" #ccccff {
	class SpotLocation{
		applicationDirection
	}

	class SpotLocationIntrinsic{
		intrinsicCoord
	}
	SpotLocation <|- - SpotLocationIntrinsic
	class SpotLocationCoordinate{
	}
	SpotLocation <|- - SpotLocationCoordinate
	
	class AssociatedNetElement{
		keepsOrientation
	}
	class OrderedAssociatedNetElement{
		sequence
	}
	AssociatedNetElement <|- - OrderedAssociatedNetElement
	class AssociatedNetElementIntrinsic{
		intrinsicCoordBegin
		intrinsicCoordEnd
	}
	AssociatedNetElement <|- - AssociatedNetElementIntrinsic
	class AssociatedNetElementCoordinate{
	}
	AssociatedNetElement <|- - AssociatedNetElementCoordinate

	class AreaLocation{
	}

	class LinearLocation{
		applicationDirection
	}

	class LinearLocationCoordinate{
	}
	LinearLocation <|- - LinearLocationCoordinate
	class EntityLocation{
	}
	
	EntityLocation <|- - SpotLocation
	EntityLocation <|- - AreaLocation
	EntityLocation <|- - LinearLocation
	LinearLocation *- - OrderedAssociatedNetElement : associatedElement
}
BaseObject <|- - EntityLocation
AssociatedNetElementCoordinate - -> PositioningSystemCoordinate : start
AssociatedNetElementCoordinate - -> PositioningSystemCoordinate : end
LocatedNetEntity *- - EntityLocation : location

SpotLocation - -> PositioningNetElement : netElement
AreaLocation *- - AssociatedNetElement : associatedNetElement
LinearLocationCoordinate - -> PositioningSystemCoordinate : coordinate
SpotLocationCoordinate - -> PositioningSystemCoordinate : coordinate
AssociatedNetElement - -> PositioningNetElement : netElement

' together {
'   class PositioningNetElement 
'   class PositioningSystemCoordinate
' }
PositioningSystemCoordinate -[hidden]> PositioningNetElement
' OrderedAssociatedNetElement -[hidden]> PositioningNetElement

@enduml

@startuml
hide methods
skinparam shadowing false

package "Location" #ccccff {
	class SpotLocation{
		applicationDirection
	}

	class SpotLocationIntrinsic{
		intrinsicCoord
	}
	SpotLocation <|- - SpotLocationIntrinsic
	class SpotLocationCoordinate{
	}
	SpotLocation <|- - SpotLocationCoordinate
	
	class AssociatedNetElement{
		keepsOrientation
	}
	class OrderedAssociatedNetElement{
		sequence
	}
	AssociatedNetElement <|- - OrderedAssociatedNetElement
	class AssociatedNetElementIntrinsic{
		intrinsicCoordBegin
		intrinsicCoordEnd
	}
	AssociatedNetElement <|- - AssociatedNetElementIntrinsic
	class AssociatedNetElementCoordinate{
	}
	AssociatedNetElement <|- - AssociatedNetElementCoordinate

	class AreaLocation{
	}

	class LinearLocation{
		applicationDirection
	}

	class LinearLocationCoordinate{
	}
	LinearLocation <|- - LinearLocationCoordinate
	class EntityLocation{
	}
	
	EntityLocation <|- - SpotLocation
	EntityLocation <|- - AreaLocation
	EntityLocation <|- - LinearLocation
	LinearLocation *- - OrderedAssociatedNetElement : associatedElement
}
BaseObject <|- - EntityLocation
AssociatedNetElementCoordinate - -> PositioningSystemCoordinate : start
AssociatedNetElementCoordinate - -> PositioningSystemCoordinate : end
LocatedNetEntity *- - EntityLocation : location

SpotLocation - -> PositioningNetElement : netElement
AreaLocation *- - AssociatedNetElement : associatedNetElement
LinearLocationCoordinate - -> PositioningSystemCoordinate : coordinate
SpotLocationCoordinate - -> PositioningSystemCoordinate : coordinate
AssociatedNetElement - -> PositioningNetElement : netElement

PositioningSystemCoordinate -[hidden]> PositioningNetElement

@enduml

PlantUML version 1.2021.3(Mon Mar 22 17:53:19 CET 2021)
(GPL source distribution)
Java Runtime: OpenJDK Runtime Environment
JVM: OpenJDK Client VM
Default Encoding: Cp1252
Language: en
Country: US
--></g></svg>