<?xml version="1.0" encoding="UTF-8" standalone="no"?><svg xmlns="http://www.w3.org/2000/svg" xmlns:xlink="http://www.w3.org/1999/xlink" contentScriptType="application/ecmascript" contentStyleType="text/css" height="964px" preserveAspectRatio="none" style="width:736px;height:964px;" version="1.1" viewBox="0 0 736 964" width="736px" zoomAndPan="magnify"><defs/><g><!--MD5=[4871d4d8d585da840425bd9d8bd3cf38]
cluster PositioningSystem--><polygon fill="#CCFFCC" points="16,111,151,111,158,134.6094,532,134.6094,532,957,16,957,16,111" style="stroke:#000000;stroke-width:1.5;"/><line style="stroke:#000000;stroke-width:1.5;" x1="16" x2="158" y1="134.6094" y2="134.6094"/><text fill="#000000" font-family="sans-serif" font-size="14" font-weight="bold" lengthAdjust="spacing" textLength="129" x="20" y="127.5332">PositioningSystem</text><!--MD5=[8601e6a634e7a2dbdf412061a10e2601]
class PositioningSystem--><rect codeLine="4" fill="#FEFECE" height="67.6719" id="PositioningSystem" style="stroke:#A80036;stroke-width:1.5;" width="135" x="380.5" y="550"/><ellipse cx="395.5" cy="566" fill="#ADD1B2" rx="11" ry="11" style="stroke:#A80036;stroke-width:1.0;"/><path d="M398.2656,561.875 Q398.4219,561.6563 398.6094,561.5469 Q398.7969,561.4375 399.0156,561.4375 Q399.3906,561.4375 399.625,561.7031 Q399.8594,561.9531 399.8594,562.5625 L399.8594,564.0156 Q399.8594,564.625 399.625,564.8906 Q399.3906,565.1563 399.0156,565.1563 Q398.6719,565.1563 398.4688,564.9531 Q398.2656,564.7656 398.1563,564.25 Q398.1094,563.8906 397.9219,563.7031 Q397.5938,563.3281 396.9844,563.1094 Q396.375,562.8906 395.75,562.8906 Q394.9844,562.8906 394.3438,563.2188 Q393.7188,563.5469 393.2188,564.2969 Q392.7344,565.0469 392.7344,566.0781 L392.7344,567.1719 Q392.7344,568.4063 393.625,569.2344 Q394.5156,570.0469 396.1094,570.0469 Q397.0469,570.0469 397.7031,569.7969 Q398.0938,569.6406 398.5156,569.2031 Q398.7813,568.9375 398.9219,568.8594 Q399.0781,568.7813 399.2813,568.7813 Q399.6094,568.7813 399.8594,569.0469 Q400.125,569.2969 400.125,569.6406 Q400.125,569.9844 399.7813,570.3906 Q399.2813,570.9688 398.4844,571.2969 Q397.4063,571.75 396.1094,571.75 Q394.5938,571.75 393.3906,571.125 Q392.4063,570.625 391.7188,569.5625 Q391.0313,568.4844 391.0313,567.2031 L391.0313,566.0469 Q391.0313,564.7188 391.6406,563.5781 Q392.2656,562.4219 393.3594,561.8125 Q394.4531,561.1875 395.6875,561.1875 Q396.4219,561.1875 397.0625,561.3594 Q397.7188,561.5156 398.2656,561.875 Z " fill="#000000"/><text fill="#000000" font-family="sans-serif" font-size="12" lengthAdjust="spacing" textLength="103" x="409.5" y="570.9102">PositioningSystem</text><line style="stroke:#A80036;stroke-width:1.5;" x1="381.5" x2="514.5" y1="582" y2="582"/><text fill="#000000" font-family="sans-serif" font-size="11" lengthAdjust="spacing" textLength="34" x="386.5" y="597.4189">validTo</text><text fill="#000000" font-family="sans-serif" font-size="11" lengthAdjust="spacing" textLength="46" x="386.5" y="611.2549">validFrom</text><!--MD5=[f08a9b8dfa819cfe8634e56217b58317]
class LinearPositioningSystem--><rect codeLine="8" fill="#FEFECE" height="95.3438" id="LinearPositioningSystem" style="stroke:#A80036;stroke-width:1.5;" width="170" x="119" y="686"/><ellipse cx="134" cy="702" fill="#ADD1B2" rx="11" ry="11" style="stroke:#A80036;stroke-width:1.0;"/><path d="M136.7656,697.875 Q136.9219,697.6563 137.1094,697.5469 Q137.2969,697.4375 137.5156,697.4375 Q137.8906,697.4375 138.125,697.7031 Q138.3594,697.9531 138.3594,698.5625 L138.3594,700.0156 Q138.3594,700.625 138.125,700.8906 Q137.8906,701.1563 137.5156,701.1563 Q137.1719,701.1563 136.9688,700.9531 Q136.7656,700.7656 136.6563,700.25 Q136.6094,699.8906 136.4219,699.7031 Q136.0938,699.3281 135.4844,699.1094 Q134.875,698.8906 134.25,698.8906 Q133.4844,698.8906 132.8438,699.2188 Q132.2188,699.5469 131.7188,700.2969 Q131.2344,701.0469 131.2344,702.0781 L131.2344,703.1719 Q131.2344,704.4063 132.125,705.2344 Q133.0156,706.0469 134.6094,706.0469 Q135.5469,706.0469 136.2031,705.7969 Q136.5938,705.6406 137.0156,705.2031 Q137.2813,704.9375 137.4219,704.8594 Q137.5781,704.7813 137.7813,704.7813 Q138.1094,704.7813 138.3594,705.0469 Q138.625,705.2969 138.625,705.6406 Q138.625,705.9844 138.2813,706.3906 Q137.7813,706.9688 136.9844,707.2969 Q135.9063,707.75 134.6094,707.75 Q133.0938,707.75 131.8906,707.125 Q130.9063,706.625 130.2188,705.5625 Q129.5313,704.4844 129.5313,703.2031 L129.5313,702.0469 Q129.5313,700.7188 130.1406,699.5781 Q130.7656,698.4219 131.8594,697.8125 Q132.9531,697.1875 134.1875,697.1875 Q134.9219,697.1875 135.5625,697.3594 Q136.2188,697.5156 136.7656,697.875 Z " fill="#000000"/><text fill="#000000" font-family="sans-serif" font-size="12" lengthAdjust="spacing" textLength="138" x="148" y="706.9102">LinearPositioningSystem</text><line style="stroke:#A80036;stroke-width:1.5;" x1="120" x2="288" y1="718" y2="718"/><text fill="#000000" font-family="sans-serif" font-size="11" lengthAdjust="spacing" textLength="17" x="125" y="733.4189">unit</text><text fill="#000000" font-family="sans-serif" font-size="11" lengthAdjust="spacing" textLength="60" x="125" y="747.2549">endMeasure</text><text fill="#000000" font-family="sans-serif" font-size="11" lengthAdjust="spacing" textLength="64" x="125" y="761.0908">startMeasure</text><text fill="#000000" font-family="sans-serif" font-size="11" lengthAdjust="spacing" textLength="120" x="125" y="774.9268">linearReferencingMethod</text><!--MD5=[7b6ed10510dab83a5b93e57378b4846f]
class GeometricPositioningSystem--><rect codeLine="16" fill="#FEFECE" height="53.8359" id="GeometricPositioningSystem" style="stroke:#A80036;stroke-width:1.5;" width="192" x="324" y="706.5"/><ellipse cx="339" cy="722.5" fill="#ADD1B2" rx="11" ry="11" style="stroke:#A80036;stroke-width:1.0;"/><path d="M341.7656,718.375 Q341.9219,718.1563 342.1094,718.0469 Q342.2969,717.9375 342.5156,717.9375 Q342.8906,717.9375 343.125,718.2031 Q343.3594,718.4531 343.3594,719.0625 L343.3594,720.5156 Q343.3594,721.125 343.125,721.3906 Q342.8906,721.6563 342.5156,721.6563 Q342.1719,721.6563 341.9688,721.4531 Q341.7656,721.2656 341.6563,720.75 Q341.6094,720.3906 341.4219,720.2031 Q341.0938,719.8281 340.4844,719.6094 Q339.875,719.3906 339.25,719.3906 Q338.4844,719.3906 337.8438,719.7188 Q337.2188,720.0469 336.7188,720.7969 Q336.2344,721.5469 336.2344,722.5781 L336.2344,723.6719 Q336.2344,724.9063 337.125,725.7344 Q338.0156,726.5469 339.6094,726.5469 Q340.5469,726.5469 341.2031,726.2969 Q341.5938,726.1406 342.0156,725.7031 Q342.2813,725.4375 342.4219,725.3594 Q342.5781,725.2813 342.7813,725.2813 Q343.1094,725.2813 343.3594,725.5469 Q343.625,725.7969 343.625,726.1406 Q343.625,726.4844 343.2813,726.8906 Q342.7813,727.4688 341.9844,727.7969 Q340.9063,728.25 339.6094,728.25 Q338.0938,728.25 336.8906,727.625 Q335.9063,727.125 335.2188,726.0625 Q334.5313,724.9844 334.5313,723.7031 L334.5313,722.5469 Q334.5313,721.2188 335.1406,720.0781 Q335.7656,718.9219 336.8594,718.3125 Q337.9531,717.6875 339.1875,717.6875 Q339.9219,717.6875 340.5625,717.8594 Q341.2188,718.0156 341.7656,718.375 Z " fill="#000000"/><text fill="#000000" font-family="sans-serif" font-size="12" lengthAdjust="spacing" textLength="160" x="353" y="727.4102">GeometricPositioningSystem</text><line style="stroke:#A80036;stroke-width:1.5;" x1="325" x2="515" y1="738.5" y2="738.5"/><text fill="#000000" font-family="sans-serif" font-size="11" lengthAdjust="spacing" textLength="68" x="330" y="753.9189">crsDefininition</text><!--MD5=[37ebd3bd6f2e6f416bc11fe9a874c77d]
class AssociatedPositioningSystem--><rect codeLine="20" fill="#FEFECE" height="67.6719" id="AssociatedPositioningSystem" style="stroke:#A80036;stroke-width:1.5;" width="196" x="226" y="147"/><ellipse cx="241" cy="163" fill="#ADD1B2" rx="11" ry="11" style="stroke:#A80036;stroke-width:1.0;"/><path d="M243.7656,158.875 Q243.9219,158.6563 244.1094,158.5469 Q244.2969,158.4375 244.5156,158.4375 Q244.8906,158.4375 245.125,158.7031 Q245.3594,158.9531 245.3594,159.5625 L245.3594,161.0156 Q245.3594,161.625 245.125,161.8906 Q244.8906,162.1563 244.5156,162.1563 Q244.1719,162.1563 243.9688,161.9531 Q243.7656,161.7656 243.6563,161.25 Q243.6094,160.8906 243.4219,160.7031 Q243.0938,160.3281 242.4844,160.1094 Q241.875,159.8906 241.25,159.8906 Q240.4844,159.8906 239.8438,160.2188 Q239.2188,160.5469 238.7188,161.2969 Q238.2344,162.0469 238.2344,163.0781 L238.2344,164.1719 Q238.2344,165.4063 239.125,166.2344 Q240.0156,167.0469 241.6094,167.0469 Q242.5469,167.0469 243.2031,166.7969 Q243.5938,166.6406 244.0156,166.2031 Q244.2813,165.9375 244.4219,165.8594 Q244.5781,165.7813 244.7813,165.7813 Q245.1094,165.7813 245.3594,166.0469 Q245.625,166.2969 245.625,166.6406 Q245.625,166.9844 245.2813,167.3906 Q244.7813,167.9688 243.9844,168.2969 Q242.9063,168.75 241.6094,168.75 Q240.0938,168.75 238.8906,168.125 Q237.9063,167.625 237.2188,166.5625 Q236.5313,165.4844 236.5313,164.2031 L236.5313,163.0469 Q236.5313,161.7188 237.1406,160.5781 Q237.7656,159.4219 238.8594,158.8125 Q239.9531,158.1875 241.1875,158.1875 Q241.9219,158.1875 242.5625,158.3594 Q243.2188,158.5156 243.7656,158.875 Z " fill="#000000"/><text fill="#000000" font-family="sans-serif" font-size="12" lengthAdjust="spacing" textLength="164" x="255" y="167.9102">AssociatedPositioningSystem</text><line style="stroke:#A80036;stroke-width:1.5;" x1="227" x2="421" y1="179" y2="179"/><text fill="#000000" font-family="sans-serif" font-size="11" lengthAdjust="spacing" textLength="34" x="232" y="194.4189">validTo</text><text fill="#000000" font-family="sans-serif" font-size="11" lengthAdjust="spacing" textLength="46" x="232" y="208.2549">validFrom</text><!--MD5=[5c7c5c013edcecf190af28db7a73430c]
class IntrinsicCoordinate--><rect codeLine="24" fill="#FEFECE" height="53.8359" id="IntrinsicCoordinate" style="stroke:#A80036;stroke-width:1.5;" width="136" x="32" y="293"/><ellipse cx="47" cy="309" fill="#ADD1B2" rx="11" ry="11" style="stroke:#A80036;stroke-width:1.0;"/><path d="M49.7656,304.875 Q49.9219,304.6563 50.1094,304.5469 Q50.2969,304.4375 50.5156,304.4375 Q50.8906,304.4375 51.125,304.7031 Q51.3594,304.9531 51.3594,305.5625 L51.3594,307.0156 Q51.3594,307.625 51.125,307.8906 Q50.8906,308.1563 50.5156,308.1563 Q50.1719,308.1563 49.9688,307.9531 Q49.7656,307.7656 49.6563,307.25 Q49.6094,306.8906 49.4219,306.7031 Q49.0938,306.3281 48.4844,306.1094 Q47.875,305.8906 47.25,305.8906 Q46.4844,305.8906 45.8438,306.2188 Q45.2188,306.5469 44.7188,307.2969 Q44.2344,308.0469 44.2344,309.0781 L44.2344,310.1719 Q44.2344,311.4063 45.125,312.2344 Q46.0156,313.0469 47.6094,313.0469 Q48.5469,313.0469 49.2031,312.7969 Q49.5938,312.6406 50.0156,312.2031 Q50.2813,311.9375 50.4219,311.8594 Q50.5781,311.7813 50.7813,311.7813 Q51.1094,311.7813 51.3594,312.0469 Q51.625,312.2969 51.625,312.6406 Q51.625,312.9844 51.2813,313.3906 Q50.7813,313.9688 49.9844,314.2969 Q48.9063,314.75 47.6094,314.75 Q46.0938,314.75 44.8906,314.125 Q43.9063,313.625 43.2188,312.5625 Q42.5313,311.4844 42.5313,310.2031 L42.5313,309.0469 Q42.5313,307.7188 43.1406,306.5781 Q43.7656,305.4219 44.8594,304.8125 Q45.9531,304.1875 47.1875,304.1875 Q47.9219,304.1875 48.5625,304.3594 Q49.2188,304.5156 49.7656,304.875 Z " fill="#000000"/><text fill="#000000" font-family="sans-serif" font-size="12" lengthAdjust="spacing" textLength="104" x="61" y="313.9102">IntrinsicCoordinate</text><line style="stroke:#A80036;stroke-width:1.5;" x1="33" x2="167" y1="325" y2="325"/><text fill="#000000" font-family="sans-serif" font-size="11" lengthAdjust="spacing" textLength="66" x="38" y="340.4189">intrinsicCoord</text><!--MD5=[02a4e21b036f51e0b06039d09daaca82]
class PositioningSystemCoordinate--><rect codeLine="27" fill="#FEFECE" height="40" id="PositioningSystemCoordinate" style="stroke:#A80036;stroke-width:1.5;" width="196" x="87" y="425"/><ellipse cx="102" cy="441" fill="#ADD1B2" rx="11" ry="11" style="stroke:#A80036;stroke-width:1.0;"/><path d="M104.7656,436.875 Q104.9219,436.6563 105.1094,436.5469 Q105.2969,436.4375 105.5156,436.4375 Q105.8906,436.4375 106.125,436.7031 Q106.3594,436.9531 106.3594,437.5625 L106.3594,439.0156 Q106.3594,439.625 106.125,439.8906 Q105.8906,440.1563 105.5156,440.1563 Q105.1719,440.1563 104.9688,439.9531 Q104.7656,439.7656 104.6563,439.25 Q104.6094,438.8906 104.4219,438.7031 Q104.0938,438.3281 103.4844,438.1094 Q102.875,437.8906 102.25,437.8906 Q101.4844,437.8906 100.8438,438.2188 Q100.2188,438.5469 99.7188,439.2969 Q99.2344,440.0469 99.2344,441.0781 L99.2344,442.1719 Q99.2344,443.4063 100.125,444.2344 Q101.0156,445.0469 102.6094,445.0469 Q103.5469,445.0469 104.2031,444.7969 Q104.5938,444.6406 105.0156,444.2031 Q105.2813,443.9375 105.4219,443.8594 Q105.5781,443.7813 105.7813,443.7813 Q106.1094,443.7813 106.3594,444.0469 Q106.625,444.2969 106.625,444.6406 Q106.625,444.9844 106.2813,445.3906 Q105.7813,445.9688 104.9844,446.2969 Q103.9063,446.75 102.6094,446.75 Q101.0938,446.75 99.8906,446.125 Q98.9063,445.625 98.2188,444.5625 Q97.5313,443.4844 97.5313,442.2031 L97.5313,441.0469 Q97.5313,439.7188 98.1406,438.5781 Q98.7656,437.4219 99.8594,436.8125 Q100.9531,436.1875 102.1875,436.1875 Q102.9219,436.1875 103.5625,436.3594 Q104.2188,436.5156 104.7656,436.875 Z " fill="#000000"/><text fill="#000000" font-family="sans-serif" font-size="12" lengthAdjust="spacing" textLength="164" x="116" y="445.9102">PositioningSystemCoordinate</text><line style="stroke:#A80036;stroke-width:1.5;" x1="88" x2="282" y1="457" y2="457"/><!--MD5=[deb9a6d363f46723c280f47b06038715]
class GeometricCoordinate--><rect codeLine="29" fill="#FEFECE" height="81.5078" id="GeometricCoordinate" style="stroke:#A80036;stroke-width:1.5;" width="150" x="32" y="543"/><ellipse cx="47" cy="559" fill="#ADD1B2" rx="11" ry="11" style="stroke:#A80036;stroke-width:1.0;"/><path d="M49.7656,554.875 Q49.9219,554.6563 50.1094,554.5469 Q50.2969,554.4375 50.5156,554.4375 Q50.8906,554.4375 51.125,554.7031 Q51.3594,554.9531 51.3594,555.5625 L51.3594,557.0156 Q51.3594,557.625 51.125,557.8906 Q50.8906,558.1563 50.5156,558.1563 Q50.1719,558.1563 49.9688,557.9531 Q49.7656,557.7656 49.6563,557.25 Q49.6094,556.8906 49.4219,556.7031 Q49.0938,556.3281 48.4844,556.1094 Q47.875,555.8906 47.25,555.8906 Q46.4844,555.8906 45.8438,556.2188 Q45.2188,556.5469 44.7188,557.2969 Q44.2344,558.0469 44.2344,559.0781 L44.2344,560.1719 Q44.2344,561.4063 45.125,562.2344 Q46.0156,563.0469 47.6094,563.0469 Q48.5469,563.0469 49.2031,562.7969 Q49.5938,562.6406 50.0156,562.2031 Q50.2813,561.9375 50.4219,561.8594 Q50.5781,561.7813 50.7813,561.7813 Q51.1094,561.7813 51.3594,562.0469 Q51.625,562.2969 51.625,562.6406 Q51.625,562.9844 51.2813,563.3906 Q50.7813,563.9688 49.9844,564.2969 Q48.9063,564.75 47.6094,564.75 Q46.0938,564.75 44.8906,564.125 Q43.9063,563.625 43.2188,562.5625 Q42.5313,561.4844 42.5313,560.2031 L42.5313,559.0469 Q42.5313,557.7188 43.1406,556.5781 Q43.7656,555.4219 44.8594,554.8125 Q45.9531,554.1875 47.1875,554.1875 Q47.9219,554.1875 48.5625,554.3594 Q49.2188,554.5156 49.7656,554.875 Z " fill="#000000"/><text fill="#000000" font-family="sans-serif" font-size="12" lengthAdjust="spacing" textLength="118" x="61" y="563.9102">GeometricCoordinate</text><line style="stroke:#A80036;stroke-width:1.5;" x1="33" x2="181" y1="575" y2="575"/><text fill="#000000" font-family="sans-serif" font-size="11" lengthAdjust="spacing" textLength="6" x="38" y="590.4189">y</text><text fill="#000000" font-family="sans-serif" font-size="11" lengthAdjust="spacing" textLength="6" x="38" y="604.2549">x</text><text fill="#000000" font-family="sans-serif" font-size="11" lengthAdjust="spacing" textLength="6" x="38" y="618.0908">z</text><!--MD5=[dba72c8ef8e0d8698917185f59dafe7c]
class LinearCoordinate--><rect codeLine="35" fill="#FEFECE" height="81.5078" id="LinearCoordinate" style="stroke:#A80036;stroke-width:1.5;" width="128" x="217" y="543"/><ellipse cx="232" cy="559" fill="#ADD1B2" rx="11" ry="11" style="stroke:#A80036;stroke-width:1.0;"/><path d="M234.7656,554.875 Q234.9219,554.6563 235.1094,554.5469 Q235.2969,554.4375 235.5156,554.4375 Q235.8906,554.4375 236.125,554.7031 Q236.3594,554.9531 236.3594,555.5625 L236.3594,557.0156 Q236.3594,557.625 236.125,557.8906 Q235.8906,558.1563 235.5156,558.1563 Q235.1719,558.1563 234.9688,557.9531 Q234.7656,557.7656 234.6563,557.25 Q234.6094,556.8906 234.4219,556.7031 Q234.0938,556.3281 233.4844,556.1094 Q232.875,555.8906 232.25,555.8906 Q231.4844,555.8906 230.8438,556.2188 Q230.2188,556.5469 229.7188,557.2969 Q229.2344,558.0469 229.2344,559.0781 L229.2344,560.1719 Q229.2344,561.4063 230.125,562.2344 Q231.0156,563.0469 232.6094,563.0469 Q233.5469,563.0469 234.2031,562.7969 Q234.5938,562.6406 235.0156,562.2031 Q235.2813,561.9375 235.4219,561.8594 Q235.5781,561.7813 235.7813,561.7813 Q236.1094,561.7813 236.3594,562.0469 Q236.625,562.2969 236.625,562.6406 Q236.625,562.9844 236.2813,563.3906 Q235.7813,563.9688 234.9844,564.2969 Q233.9063,564.75 232.6094,564.75 Q231.0938,564.75 229.8906,564.125 Q228.9063,563.625 228.2188,562.5625 Q227.5313,561.4844 227.5313,560.2031 L227.5313,559.0469 Q227.5313,557.7188 228.1406,556.5781 Q228.7656,555.4219 229.8594,554.8125 Q230.9531,554.1875 232.1875,554.1875 Q232.9219,554.1875 233.5625,554.3594 Q234.2188,554.5156 234.7656,554.875 Z " fill="#000000"/><text fill="#000000" font-family="sans-serif" font-size="12" lengthAdjust="spacing" textLength="96" x="246" y="563.9102">LinearCoordinate</text><line style="stroke:#A80036;stroke-width:1.5;" x1="218" x2="344" y1="575" y2="575"/><text fill="#000000" font-family="sans-serif" font-size="11" lengthAdjust="spacing" textLength="66" x="223" y="590.4189">verticalOffset</text><text fill="#000000" font-family="sans-serif" font-size="11" lengthAdjust="spacing" textLength="42" x="223" y="604.2549">measure</text><text fill="#000000" font-family="sans-serif" font-size="11" lengthAdjust="spacing" textLength="60" x="223" y="618.0908">lateralOffset</text><!--MD5=[defab21f0fc59c347fdf3fbb7f79cbac]
class LinearAnchorPoint--><rect codeLine="41" fill="#FEFECE" height="81.5078" id="LinearAnchorPoint" style="stroke:#A80036;stroke-width:1.5;" width="133" x="320.5" y="859"/><ellipse cx="335.5" cy="875" fill="#ADD1B2" rx="11" ry="11" style="stroke:#A80036;stroke-width:1.0;"/><path d="M338.2656,870.875 Q338.4219,870.6563 338.6094,870.5469 Q338.7969,870.4375 339.0156,870.4375 Q339.3906,870.4375 339.625,870.7031 Q339.8594,870.9531 339.8594,871.5625 L339.8594,873.0156 Q339.8594,873.625 339.625,873.8906 Q339.3906,874.1563 339.0156,874.1563 Q338.6719,874.1563 338.4688,873.9531 Q338.2656,873.7656 338.1563,873.25 Q338.1094,872.8906 337.9219,872.7031 Q337.5938,872.3281 336.9844,872.1094 Q336.375,871.8906 335.75,871.8906 Q334.9844,871.8906 334.3438,872.2188 Q333.7188,872.5469 333.2188,873.2969 Q332.7344,874.0469 332.7344,875.0781 L332.7344,876.1719 Q332.7344,877.4063 333.625,878.2344 Q334.5156,879.0469 336.1094,879.0469 Q337.0469,879.0469 337.7031,878.7969 Q338.0938,878.6406 338.5156,878.2031 Q338.7813,877.9375 338.9219,877.8594 Q339.0781,877.7813 339.2813,877.7813 Q339.6094,877.7813 339.8594,878.0469 Q340.125,878.2969 340.125,878.6406 Q340.125,878.9844 339.7813,879.3906 Q339.2813,879.9688 338.4844,880.2969 Q337.4063,880.75 336.1094,880.75 Q334.5938,880.75 333.3906,880.125 Q332.4063,879.625 331.7188,878.5625 Q331.0313,877.4844 331.0313,876.2031 L331.0313,875.0469 Q331.0313,873.7188 331.6406,872.5781 Q332.2656,871.4219 333.3594,870.8125 Q334.4531,870.1875 335.6875,870.1875 Q336.4219,870.1875 337.0625,870.3594 Q337.7188,870.5156 338.2656,870.875 Z " fill="#000000"/><text fill="#000000" font-family="sans-serif" font-size="12" lengthAdjust="spacing" textLength="101" x="349.5" y="879.9102">LinearAnchorPoint</text><line style="stroke:#A80036;stroke-width:1.5;" x1="321.5" x2="452.5" y1="891" y2="891"/><text fill="#000000" font-family="sans-serif" font-size="11" lengthAdjust="spacing" textLength="76" x="326.5" y="906.4189">measureToNext</text><text fill="#000000" font-family="sans-serif" font-size="11" lengthAdjust="spacing" textLength="42" x="326.5" y="920.2549">measure</text><text fill="#000000" font-family="sans-serif" font-size="11" lengthAdjust="spacing" textLength="61" x="326.5" y="934.0908">anchorName</text><!--MD5=[7fdce667dd5c2bfd6fafd3e45c05fe82]
class BaseObject--><rect fill="#FEFECE" height="40" id="BaseObject" style="stroke:#A80036;stroke-width:1.5;" width="96" x="471" y="7"/><ellipse cx="486" cy="23" fill="#ADD1B2" rx="11" ry="11" style="stroke:#A80036;stroke-width:1.0;"/><path d="M488.7656,18.875 Q488.9219,18.6563 489.1094,18.5469 Q489.2969,18.4375 489.5156,18.4375 Q489.8906,18.4375 490.125,18.7031 Q490.3594,18.9531 490.3594,19.5625 L490.3594,21.0156 Q490.3594,21.625 490.125,21.8906 Q489.8906,22.1563 489.5156,22.1563 Q489.1719,22.1563 488.9688,21.9531 Q488.7656,21.7656 488.6563,21.25 Q488.6094,20.8906 488.4219,20.7031 Q488.0938,20.3281 487.4844,20.1094 Q486.875,19.8906 486.25,19.8906 Q485.4844,19.8906 484.8438,20.2188 Q484.2188,20.5469 483.7188,21.2969 Q483.2344,22.0469 483.2344,23.0781 L483.2344,24.1719 Q483.2344,25.4063 484.125,26.2344 Q485.0156,27.0469 486.6094,27.0469 Q487.5469,27.0469 488.2031,26.7969 Q488.5938,26.6406 489.0156,26.2031 Q489.2813,25.9375 489.4219,25.8594 Q489.5781,25.7813 489.7813,25.7813 Q490.1094,25.7813 490.3594,26.0469 Q490.625,26.2969 490.625,26.6406 Q490.625,26.9844 490.2813,27.3906 Q489.7813,27.9688 488.9844,28.2969 Q487.9063,28.75 486.6094,28.75 Q485.0938,28.75 483.8906,28.125 Q482.9063,27.625 482.2188,26.5625 Q481.5313,25.4844 481.5313,24.2031 L481.5313,23.0469 Q481.5313,21.7188 482.1406,20.5781 Q482.7656,19.4219 483.8594,18.8125 Q484.9531,18.1875 486.1875,18.1875 Q486.9219,18.1875 487.5625,18.3594 Q488.2188,18.5156 488.7656,18.875 Z " fill="#000000"/><text fill="#000000" font-family="sans-serif" font-size="12" lengthAdjust="spacing" textLength="64" x="500" y="27.9102">BaseObject</text><line style="stroke:#A80036;stroke-width:1.5;" x1="472" x2="566" y1="39" y2="39"/><!--MD5=[9f9bbf549fc731e8561a3deacc0a77b9]
class NamedResource--><rect fill="#FEFECE" height="40" id="NamedResource" style="stroke:#A80036;stroke-width:1.5;" width="127" x="548.5" y="425"/><ellipse cx="563.5" cy="441" fill="#ADD1B2" rx="11" ry="11" style="stroke:#A80036;stroke-width:1.0;"/><path d="M566.2656,436.875 Q566.4219,436.6563 566.6094,436.5469 Q566.7969,436.4375 567.0156,436.4375 Q567.3906,436.4375 567.625,436.7031 Q567.8594,436.9531 567.8594,437.5625 L567.8594,439.0156 Q567.8594,439.625 567.625,439.8906 Q567.3906,440.1563 567.0156,440.1563 Q566.6719,440.1563 566.4688,439.9531 Q566.2656,439.7656 566.1563,439.25 Q566.1094,438.8906 565.9219,438.7031 Q565.5938,438.3281 564.9844,438.1094 Q564.375,437.8906 563.75,437.8906 Q562.9844,437.8906 562.3438,438.2188 Q561.7188,438.5469 561.2188,439.2969 Q560.7344,440.0469 560.7344,441.0781 L560.7344,442.1719 Q560.7344,443.4063 561.625,444.2344 Q562.5156,445.0469 564.1094,445.0469 Q565.0469,445.0469 565.7031,444.7969 Q566.0938,444.6406 566.5156,444.2031 Q566.7813,443.9375 566.9219,443.8594 Q567.0781,443.7813 567.2813,443.7813 Q567.6094,443.7813 567.8594,444.0469 Q568.125,444.2969 568.125,444.6406 Q568.125,444.9844 567.7813,445.3906 Q567.2813,445.9688 566.4844,446.2969 Q565.4063,446.75 564.1094,446.75 Q562.5938,446.75 561.3906,446.125 Q560.4063,445.625 559.7188,444.5625 Q559.0313,443.4844 559.0313,442.2031 L559.0313,441.0469 Q559.0313,439.7188 559.6406,438.5781 Q560.2656,437.4219 561.3594,436.8125 Q562.4531,436.1875 563.6875,436.1875 Q564.4219,436.1875 565.0625,436.3594 Q565.7188,436.5156 566.2656,436.875 Z " fill="#000000"/><text fill="#000000" font-family="sans-serif" font-size="12" lengthAdjust="spacing" textLength="95" x="577.5" y="445.9102">NamedResource</text><line style="stroke:#A80036;stroke-width:1.5;" x1="549.5" x2="674.5" y1="457" y2="457"/><!--MD5=[c30feab4fd629f52fcb312dfb305dae4]
class PositioningNetElement--><rect fill="#FEFECE" height="40" id="PositioningNetElement" style="stroke:#A80036;stroke-width:1.5;" width="159" x="201.5" y="7"/><ellipse cx="216.5" cy="23" fill="#ADD1B2" rx="11" ry="11" style="stroke:#A80036;stroke-width:1.0;"/><path d="M219.2656,18.875 Q219.4219,18.6563 219.6094,18.5469 Q219.7969,18.4375 220.0156,18.4375 Q220.3906,18.4375 220.625,18.7031 Q220.8594,18.9531 220.8594,19.5625 L220.8594,21.0156 Q220.8594,21.625 220.625,21.8906 Q220.3906,22.1563 220.0156,22.1563 Q219.6719,22.1563 219.4688,21.9531 Q219.2656,21.7656 219.1563,21.25 Q219.1094,20.8906 218.9219,20.7031 Q218.5938,20.3281 217.9844,20.1094 Q217.375,19.8906 216.75,19.8906 Q215.9844,19.8906 215.3438,20.2188 Q214.7188,20.5469 214.2188,21.2969 Q213.7344,22.0469 213.7344,23.0781 L213.7344,24.1719 Q213.7344,25.4063 214.625,26.2344 Q215.5156,27.0469 217.1094,27.0469 Q218.0469,27.0469 218.7031,26.7969 Q219.0938,26.6406 219.5156,26.2031 Q219.7813,25.9375 219.9219,25.8594 Q220.0781,25.7813 220.2813,25.7813 Q220.6094,25.7813 220.8594,26.0469 Q221.125,26.2969 221.125,26.6406 Q221.125,26.9844 220.7813,27.3906 Q220.2813,27.9688 219.4844,28.2969 Q218.4063,28.75 217.1094,28.75 Q215.5938,28.75 214.3906,28.125 Q213.4063,27.625 212.7188,26.5625 Q212.0313,25.4844 212.0313,24.2031 L212.0313,23.0469 Q212.0313,21.7188 212.6406,20.5781 Q213.2656,19.4219 214.3594,18.8125 Q215.4531,18.1875 216.6875,18.1875 Q217.4219,18.1875 218.0625,18.3594 Q218.7188,18.5156 219.2656,18.875 Z " fill="#000000"/><text fill="#000000" font-family="sans-serif" font-size="12" lengthAdjust="spacing" textLength="127" x="230.5" y="27.9102">PositioningNetElement</text><line style="stroke:#A80036;stroke-width:1.5;" x1="202.5" x2="359.5" y1="39" y2="39"/><!--MD5=[707a31ff3b48170381fa4021096194a8]
reverse link PositioningSystem to LinearPositioningSystem--><path codeLine="15" d="M375.87,628.6 C346.09,646.6 311.53,667.5 281.24,685.81 " fill="none" id="PositioningSystem-backto-LinearPositioningSystem" style="stroke:#A80036;stroke-width:1.0;"/><polygon fill="none" points="372.5,622.46,393.24,618.1,379.75,634.44,372.5,622.46" style="stroke:#A80036;stroke-width:1.0;"/><!--MD5=[3774de20239500894fafea12bda02cc7]
reverse link PositioningSystem to GeometricPositioningSystem--><path codeLine="19" d="M437.96,637.91 C433.54,661.16 428.56,687.43 424.96,706.37 " fill="none" id="PositioningSystem-backto-GeometricPositioningSystem" style="stroke:#A80036;stroke-width:1.0;"/><polygon fill="none" points="431.11,636.45,441.72,618.1,444.86,639.06,431.11,636.45" style="stroke:#A80036;stroke-width:1.0;"/><!--MD5=[4a0d6cacbaeddcb8cf1a0f9d40649481]
reverse link PositioningSystemCoordinate to GeometricCoordinate--><path codeLine="34" d="M164.16,482.6 C153.61,501.14 140.76,523.7 129.93,542.73 " fill="none" id="PositioningSystemCoordinate-backto-GeometricCoordinate" style="stroke:#A80036;stroke-width:1.0;"/><polygon fill="none" points="158.18,478.97,174.15,465.05,170.34,485.89,158.18,478.97" style="stroke:#A80036;stroke-width:1.0;"/><!--MD5=[f8c13739863db1200afc57ed2759596d]
reverse link PositioningSystemCoordinate to LinearCoordinate--><path codeLine="40" d="M208.83,482.03 C215.6,492.11 223.02,503.03 230,513 C236.81,522.73 244.27,533.12 251.34,542.84 " fill="none" id="PositioningSystemCoordinate-backto-LinearCoordinate" style="stroke:#A80036;stroke-width:1.0;"/><polygon fill="none" points="202.88,485.72,197.61,465.19,214.53,477.95,202.88,485.72" style="stroke:#A80036;stroke-width:1.0;"/><!--MD5=[2dd8e353c757d3611a15f6016176274a]
reverse link AssociatedPositioningSystem to IntrinsicCoordinate--><path codeLine="46" d="M258.46,222.08 C221.06,244.96 175.25,272.98 142.52,292.99 " fill="none" id="AssociatedPositioningSystem-backto-IntrinsicCoordinate" style="stroke:#A80036;stroke-width:1.0;"/><polygon fill="#A80036" points="269.78,215.16,262.5743,214.8808,259.5452,221.4249,266.7509,221.704,269.78,215.16" style="stroke:#A80036;stroke-width:1.0;"/><text fill="#000000" font-family="sans-serif" font-size="13" lengthAdjust="spacing" textLength="107" x="219" y="259.4951">intrinsicCoordinate</text><!--MD5=[ad5a77d1db286f9c52c74711e207e132]
link IntrinsicCoordinate to IntrinsicCoordinate--><path codeLine="47" d="M168.35,313.84 C187.91,314.08 203,316.13 203,320 C203,323.5 190.61,325.52 173.72,326.05 " fill="none" id="IntrinsicCoordinate-to-IntrinsicCoordinate" style="stroke:#A80036;stroke-width:1.0;"/><polygon fill="#A80036" points="168.35,326.16,177.4282,329.9792,173.349,326.06,177.2682,321.9808,168.35,326.16" style="stroke:#A80036;stroke-width:1.0;"/><text fill="#000000" font-family="sans-serif" font-size="13" lengthAdjust="spacing" textLength="100" x="209" y="325.4951">reachesTransitive</text><!--MD5=[ad5a77d1db286f9c52c74711e207e132]
link IntrinsicCoordinate to IntrinsicCoordinate--><path codeLine="48" d="M168.04,309.51 C233.3,305.03 315,308.53 315,320 C315,331.18 237.39,334.79 173.04,330.81 " fill="none" id="IntrinsicCoordinate-to-IntrinsicCoordinate-1" style="stroke:#A80036;stroke-width:1.0;"/><polygon fill="#A80036" points="168.04,330.49,176.7575,335.0732,173.0292,330.8188,177.2836,327.0905,168.04,330.49" style="stroke:#A80036;stroke-width:1.0;"/><text fill="#000000" font-family="sans-serif" font-size="13" lengthAdjust="spacing" textLength="46" x="321" y="325.4951">reaches</text><!--MD5=[0827304025568c8da14dbc64301323a6]
link AssociatedPositioningSystem to PositioningSystem--><path codeLine="49" d="M348.81,215.32 C363.47,236.55 381.21,265.19 392,293 C425.5,379.31 439.6,488.13 445,544.77 " fill="none" id="AssociatedPositioningSystem-to-PositioningSystem" style="stroke:#A80036;stroke-width:1.0;"/><polygon fill="#A80036" points="445.47,549.75,448.605,540.4134,444.9993,544.7722,440.6405,541.1665,445.47,549.75" style="stroke:#A80036;stroke-width:1.0;"/><text fill="#000000" font-family="sans-serif" font-size="13" lengthAdjust="spacing" textLength="107" x="422" y="391.4951">positioningSystem</text><!--MD5=[350754bf383968e5f5a39652756e4d03]
link PositioningSystemCoordinate to PositioningSystem--><path codeLine="50" d="M211.54,465.07 C232.07,479.33 261.55,498.75 289,513 C320.5,529.35 330.49,528.77 363,543 C367.17,544.82 371.44,546.73 375.74,548.67 " fill="none" id="PositioningSystemCoordinate-to-PositioningSystem" style="stroke:#A80036;stroke-width:1.0;"/><polygon fill="#A80036" points="380.41,550.79,373.8528,543.4413,375.8528,548.7328,370.5613,550.7329,380.41,550.79" style="stroke:#A80036;stroke-width:1.0;"/><text fill="#000000" font-family="sans-serif" font-size="13" lengthAdjust="spacing" textLength="107" x="290" y="509.4951">positioningSystem</text><!--MD5=[fffd928ff6561ddf9f4fe627afa8e6c9]
reverse link LinearPositioningSystem to LinearAnchorPoint--><path codeLine="51" d="M265.75,790.01 C290.87,812.59 319.33,838.18 342.37,858.88 " fill="none" id="LinearPositioningSystem-backto-LinearAnchorPoint" style="stroke:#A80036;stroke-width:1.0;"/><polygon fill="#A80036" points="255.95,781.2,257.7362,788.1864,264.8722,789.2247,263.086,782.2383,255.95,781.2" style="stroke:#A80036;stroke-width:1.0;"/><text fill="#000000" font-family="sans-serif" font-size="13" lengthAdjust="spacing" textLength="39" x="307" y="825.4951">anchor</text><!--MD5=[00197718d2cff55d8488a238f2cbd281]
link IntrinsicCoordinate to PositioningSystemCoordinate--><path codeLine="52" d="M118.03,347.09 C133.04,368.81 154.24,399.48 168.74,420.47 " fill="none" id="IntrinsicCoordinate-to-PositioningSystemCoordinate" style="stroke:#A80036;stroke-width:1.0;"/><polygon fill="#A80036" points="171.72,424.79,169.8946,415.1118,168.8777,420.6765,163.313,419.6595,171.72,424.79" style="stroke:#A80036;stroke-width:1.0;"/><text fill="#000000" font-family="sans-serif" font-size="13" lengthAdjust="spacing" textLength="60" x="151" y="391.4951">coordinate</text><!--MD5=[877de891214774805a7a3327c6e0d12b]
reverse link BaseObject to LinearAnchorPoint--><path codeLine="54" d="M586.3,46 C647.72,67 729,108.32 729,180 C729,180 729,180 729,734.5 C729,855.4 553.28,887.5 453.75,895.98 " fill="none" id="BaseObject-backto-LinearAnchorPoint" style="stroke:#A80036;stroke-width:1.0;"/><polygon fill="none" points="584.1,52.65,567.18,39.89,588.36,39.32,584.1,52.65" style="stroke:#A80036;stroke-width:1.0;"/><!--MD5=[888c9e77d0fdc21182c478aea64cbe58]
reverse link BaseObject to AssociatedPositioningSystem--><path codeLine="55" d="M489.76,62.28 C479.61,73.3 467.79,85.19 456,95 C433.16,114.01 405.84,132.24 382,146.91 " fill="none" id="BaseObject-backto-AssociatedPositioningSystem" style="stroke:#A80036;stroke-width:1.0;"/><polygon fill="none" points="484.75,57.39,503.27,47.1,495.21,66.7,484.75,57.39" style="stroke:#A80036;stroke-width:1.0;"/><!--MD5=[195e8d1cebcf775786d68a1a2326948d]
reverse link BaseObject to IntrinsicCoordinate--><path codeLine="56" d="M511.35,67.03 C501.4,108.47 480.32,173.58 440,215 C367.99,288.98 244.95,310.68 168.29,316.84 " fill="none" id="BaseObject-backto-IntrinsicCoordinate" style="stroke:#A80036;stroke-width:1.0;"/><polygon fill="none" points="504.56,65.3,515.68,47.26,518.24,68.29,504.56,65.3" style="stroke:#A80036;stroke-width:1.0;"/><!--MD5=[a4e15be1733e8b19f4eeb581dafc7fb0]
reverse link NamedResource to PositioningSystem--><path codeLine="57" d="M573.55,478.12 C547.7,499.71 513.72,528.1 487.63,549.89 " fill="none" id="NamedResource-backto-PositioningSystem" style="stroke:#A80036;stroke-width:1.0;"/><polygon fill="none" points="569.36,472.5,589.2,465.05,578.34,483.24,569.36,472.5" style="stroke:#A80036;stroke-width:1.0;"/><!--MD5=[02568cfaf0a33e6d457d1ee5eb9bbae6]
reverse link PositioningNetElement to AssociatedPositioningSystem--><path codeLine="59" d="M275.79,60.27 C274.98,71.42 275.19,83.89 278,95 C282.61,113.22 291.99,131.76 301.09,146.87 " fill="none" id="PositioningNetElement-backto-AssociatedPositioningSystem" style="stroke:#A80036;stroke-width:1.0;"/><polygon fill="#A80036" points="277.25,47.07,272.6152,52.5944,275.9321,58.9974,280.5668,53.473,277.25,47.07" style="stroke:#A80036;stroke-width:1.0;"/><text fill="#000000" font-family="sans-serif" font-size="13" lengthAdjust="spacing" textLength="172" x="279" y="91.4951">associatedPositioningSystem</text><!--MD5=[53ad0891573d64e60069cfcfc85e3bd8]
@startuml
hide methods
skinparam shadowing false
package "PositioningSystem" #ccffcc {
	class PositioningSystem{
		validTo
		validFrom
	}
	class LinearPositioningSystem{
		unit
		endMeasure
		startMeasure
		linearReferencingMethod
	}

	PositioningSystem <|- - LinearPositioningSystem
	class GeometricPositioningSystem{
		crsDefininition
	}
	PositioningSystem <|- - GeometricPositioningSystem
	class AssociatedPositioningSystem{
		validTo
		validFrom
	}
	class IntrinsicCoordinate{
		intrinsicCoord
	}
	class PositioningSystemCoordinate{
	}
	class GeometricCoordinate{
		y
		x
		z
	}
	PositioningSystemCoordinate <|- - GeometricCoordinate
	class LinearCoordinate{
		verticalOffset
		measure
		lateralOffset
	}
	PositioningSystemCoordinate <|- - LinearCoordinate
	class LinearAnchorPoint{
		measureToNext
		measure
		anchorName
	}
	AssociatedPositioningSystem *- - IntrinsicCoordinate : intrinsicCoordinate
	IntrinsicCoordinate - -> IntrinsicCoordinate : reachesTransitive
	IntrinsicCoordinate - -> IntrinsicCoordinate : reaches
	AssociatedPositioningSystem - -> PositioningSystem : positioningSystem
	PositioningSystemCoordinate - -> PositioningSystem : positioningSystem
	LinearPositioningSystem *- - LinearAnchorPoint : anchor
	IntrinsicCoordinate - -> PositioningSystemCoordinate : coordinate
}
BaseObject <|- - LinearAnchorPoint
BaseObject <|- - AssociatedPositioningSystem
BaseObject <|- - IntrinsicCoordinate
NamedResource <|- - PositioningSystem

PositioningNetElement *- - AssociatedPositioningSystem : associatedPositioningSystem
@enduml

PlantUML version 1.2021.3(Mon Mar 22 17:53:19 CET 2021)
(GPL source distribution)
Java Runtime: OpenJDK Runtime Environment
JVM: OpenJDK Client VM
Default Encoding: Cp1252
Language: en
Country: US
--></g></svg>