<?xml version="1.0" encoding="UTF-8" standalone="no"?><svg xmlns="http://www.w3.org/2000/svg" xmlns:xlink="http://www.w3.org/1999/xlink" contentScriptType="application/ecmascript" contentStyleType="text/css" height="721px" preserveAspectRatio="none" style="width:878px;height:721px;" version="1.1" viewBox="0 0 878 721" width="878px" zoomAndPan="magnify"><defs/><g><!--MD5=[4111ce999984b5c6214785ba955d478b]
cluster Topology--><polygon fill="#FFFFCC" points="119,94,189,94,196,117.6094,659,117.6094,659,714,119,714,119,94" style="stroke:#000000;stroke-width:1.5;"/><line style="stroke:#000000;stroke-width:1.5;" x1="119" x2="196" y1="117.6094" y2="117.6094"/><text fill="#000000" font-family="sans-serif" font-size="14" font-weight="bold" lengthAdjust="spacing" textLength="64" x="123" y="110.5332">Topology</text><!--MD5=[7c350008158c966c7df100181ccbc55a]
class NetElement--><rect codeLine="4" fill="#FEFECE" height="40" id="NetElement" style="stroke:#A80036;stroke-width:1.5;" width="97" x="399.5" y="130"/><ellipse cx="414.5" cy="146" fill="#ADD1B2" rx="11" ry="11" style="stroke:#A80036;stroke-width:1.0;"/><path d="M417.2656,141.875 Q417.4219,141.6563 417.6094,141.5469 Q417.7969,141.4375 418.0156,141.4375 Q418.3906,141.4375 418.625,141.7031 Q418.8594,141.9531 418.8594,142.5625 L418.8594,144.0156 Q418.8594,144.625 418.625,144.8906 Q418.3906,145.1563 418.0156,145.1563 Q417.6719,145.1563 417.4688,144.9531 Q417.2656,144.7656 417.1563,144.25 Q417.1094,143.8906 416.9219,143.7031 Q416.5938,143.3281 415.9844,143.1094 Q415.375,142.8906 414.75,142.8906 Q413.9844,142.8906 413.3438,143.2188 Q412.7188,143.5469 412.2188,144.2969 Q411.7344,145.0469 411.7344,146.0781 L411.7344,147.1719 Q411.7344,148.4063 412.625,149.2344 Q413.5156,150.0469 415.1094,150.0469 Q416.0469,150.0469 416.7031,149.7969 Q417.0938,149.6406 417.5156,149.2031 Q417.7813,148.9375 417.9219,148.8594 Q418.0781,148.7813 418.2813,148.7813 Q418.6094,148.7813 418.8594,149.0469 Q419.125,149.2969 419.125,149.6406 Q419.125,149.9844 418.7813,150.3906 Q418.2813,150.9688 417.4844,151.2969 Q416.4063,151.75 415.1094,151.75 Q413.5938,151.75 412.3906,151.125 Q411.4063,150.625 410.7188,149.5625 Q410.0313,148.4844 410.0313,147.2031 L410.0313,146.0469 Q410.0313,144.7188 410.6406,143.5781 Q411.2656,142.4219 412.3594,141.8125 Q413.4531,141.1875 414.6875,141.1875 Q415.4219,141.1875 416.0625,141.3594 Q416.7188,141.5156 417.2656,141.875 Z " fill="#000000"/><text fill="#000000" font-family="sans-serif" font-size="12" lengthAdjust="spacing" textLength="65" x="428.5" y="150.9102">NetElement</text><line style="stroke:#A80036;stroke-width:1.5;" x1="400.5" x2="495.5" y1="162" y2="162"/><!--MD5=[534474e9f05b14d7c70186ae077f30e0]
class Relation--><rect codeLine="6" fill="#FEFECE" height="40" id="Relation" style="stroke:#A80036;stroke-width:1.5;" width="78" x="565" y="248"/><ellipse cx="580" cy="264" fill="#ADD1B2" rx="11" ry="11" style="stroke:#A80036;stroke-width:1.0;"/><path d="M582.7656,259.875 Q582.9219,259.6563 583.1094,259.5469 Q583.2969,259.4375 583.5156,259.4375 Q583.8906,259.4375 584.125,259.7031 Q584.3594,259.9531 584.3594,260.5625 L584.3594,262.0156 Q584.3594,262.625 584.125,262.8906 Q583.8906,263.1563 583.5156,263.1563 Q583.1719,263.1563 582.9688,262.9531 Q582.7656,262.7656 582.6563,262.25 Q582.6094,261.8906 582.4219,261.7031 Q582.0938,261.3281 581.4844,261.1094 Q580.875,260.8906 580.25,260.8906 Q579.4844,260.8906 578.8438,261.2188 Q578.2188,261.5469 577.7188,262.2969 Q577.2344,263.0469 577.2344,264.0781 L577.2344,265.1719 Q577.2344,266.4063 578.125,267.2344 Q579.0156,268.0469 580.6094,268.0469 Q581.5469,268.0469 582.2031,267.7969 Q582.5938,267.6406 583.0156,267.2031 Q583.2813,266.9375 583.4219,266.8594 Q583.5781,266.7813 583.7813,266.7813 Q584.1094,266.7813 584.3594,267.0469 Q584.625,267.2969 584.625,267.6406 Q584.625,267.9844 584.2813,268.3906 Q583.7813,268.9688 582.9844,269.2969 Q581.9063,269.75 580.6094,269.75 Q579.0938,269.75 577.8906,269.125 Q576.9063,268.625 576.2188,267.5625 Q575.5313,266.4844 575.5313,265.2031 L575.5313,264.0469 Q575.5313,262.7188 576.1406,261.5781 Q576.7656,260.4219 577.8594,259.8125 Q578.9531,259.1875 580.1875,259.1875 Q580.9219,259.1875 581.5625,259.3594 Q582.2188,259.5156 582.7656,259.875 Z " fill="#000000"/><text fill="#000000" font-family="sans-serif" font-size="12" lengthAdjust="spacing" textLength="46" x="594" y="268.9102">Relation</text><line style="stroke:#A80036;stroke-width:1.5;" x1="566" x2="642" y1="280" y2="280"/><!--MD5=[c30feab4fd629f52fcb312dfb305dae4]
class PositioningNetElement--><rect codeLine="9" fill="#FEFECE" height="40" id="PositioningNetElement" style="stroke:#A80036;stroke-width:1.5;" width="159" x="483.5" y="533"/><ellipse cx="498.5" cy="549" fill="#ADD1B2" rx="11" ry="11" style="stroke:#A80036;stroke-width:1.0;"/><path d="M501.2656,544.875 Q501.4219,544.6563 501.6094,544.5469 Q501.7969,544.4375 502.0156,544.4375 Q502.3906,544.4375 502.625,544.7031 Q502.8594,544.9531 502.8594,545.5625 L502.8594,547.0156 Q502.8594,547.625 502.625,547.8906 Q502.3906,548.1563 502.0156,548.1563 Q501.6719,548.1563 501.4688,547.9531 Q501.2656,547.7656 501.1563,547.25 Q501.1094,546.8906 500.9219,546.7031 Q500.5938,546.3281 499.9844,546.1094 Q499.375,545.8906 498.75,545.8906 Q497.9844,545.8906 497.3438,546.2188 Q496.7188,546.5469 496.2188,547.2969 Q495.7344,548.0469 495.7344,549.0781 L495.7344,550.1719 Q495.7344,551.4063 496.625,552.2344 Q497.5156,553.0469 499.1094,553.0469 Q500.0469,553.0469 500.7031,552.7969 Q501.0938,552.6406 501.5156,552.2031 Q501.7813,551.9375 501.9219,551.8594 Q502.0781,551.7813 502.2813,551.7813 Q502.6094,551.7813 502.8594,552.0469 Q503.125,552.2969 503.125,552.6406 Q503.125,552.9844 502.7813,553.3906 Q502.2813,553.9688 501.4844,554.2969 Q500.4063,554.75 499.1094,554.75 Q497.5938,554.75 496.3906,554.125 Q495.4063,553.625 494.7188,552.5625 Q494.0313,551.4844 494.0313,550.2031 L494.0313,549.0469 Q494.0313,547.7188 494.6406,546.5781 Q495.2656,545.4219 496.3594,544.8125 Q497.4531,544.1875 498.6875,544.1875 Q499.4219,544.1875 500.0625,544.3594 Q500.7188,544.5156 501.2656,544.875 Z " fill="#000000"/><text fill="#000000" font-family="sans-serif" font-size="12" lengthAdjust="spacing" textLength="127" x="512.5" y="553.9102">PositioningNetElement</text><line style="stroke:#A80036;stroke-width:1.5;" x1="484.5" x2="641.5" y1="565" y2="565"/><!--MD5=[436e963f4f56acf1a6d8b274550d41ac]
class LinearElement--><rect codeLine="11" fill="#FEFECE" height="40" id="LinearElement" style="stroke:#A80036;stroke-width:1.5;" width="113" x="521.5" y="658"/><ellipse cx="536.5" cy="674" fill="#ADD1B2" rx="11" ry="11" style="stroke:#A80036;stroke-width:1.0;"/><path d="M539.2656,669.875 Q539.4219,669.6563 539.6094,669.5469 Q539.7969,669.4375 540.0156,669.4375 Q540.3906,669.4375 540.625,669.7031 Q540.8594,669.9531 540.8594,670.5625 L540.8594,672.0156 Q540.8594,672.625 540.625,672.8906 Q540.3906,673.1563 540.0156,673.1563 Q539.6719,673.1563 539.4688,672.9531 Q539.2656,672.7656 539.1563,672.25 Q539.1094,671.8906 538.9219,671.7031 Q538.5938,671.3281 537.9844,671.1094 Q537.375,670.8906 536.75,670.8906 Q535.9844,670.8906 535.3438,671.2188 Q534.7188,671.5469 534.2188,672.2969 Q533.7344,673.0469 533.7344,674.0781 L533.7344,675.1719 Q533.7344,676.4063 534.625,677.2344 Q535.5156,678.0469 537.1094,678.0469 Q538.0469,678.0469 538.7031,677.7969 Q539.0938,677.6406 539.5156,677.2031 Q539.7813,676.9375 539.9219,676.8594 Q540.0781,676.7813 540.2813,676.7813 Q540.6094,676.7813 540.8594,677.0469 Q541.125,677.2969 541.125,677.6406 Q541.125,677.9844 540.7813,678.3906 Q540.2813,678.9688 539.4844,679.2969 Q538.4063,679.75 537.1094,679.75 Q535.5938,679.75 534.3906,679.125 Q533.4063,678.625 532.7188,677.5625 Q532.0313,676.4844 532.0313,675.2031 L532.0313,674.0469 Q532.0313,672.7188 532.6406,671.5781 Q533.2656,670.4219 534.3594,669.8125 Q535.4531,669.1875 536.6875,669.1875 Q537.4219,669.1875 538.0625,669.3594 Q538.7188,669.5156 539.2656,669.875 Z " fill="#000000"/><text fill="#000000" font-family="sans-serif" font-size="12" lengthAdjust="spacing" textLength="81" x="550.5" y="678.9102">LinearElement</text><line style="stroke:#A80036;stroke-width:1.5;" x1="522.5" x2="633.5" y1="690" y2="690"/><!--MD5=[14eaa5d4ec6a6c03473e3e92abe35866]
class NonLinearElement--><rect codeLine="13" fill="#FEFECE" height="40" id="NonLinearElement" style="stroke:#A80036;stroke-width:1.5;" width="136" x="350" y="658"/><ellipse cx="365" cy="674" fill="#ADD1B2" rx="11" ry="11" style="stroke:#A80036;stroke-width:1.0;"/><path d="M367.7656,669.875 Q367.9219,669.6563 368.1094,669.5469 Q368.2969,669.4375 368.5156,669.4375 Q368.8906,669.4375 369.125,669.7031 Q369.3594,669.9531 369.3594,670.5625 L369.3594,672.0156 Q369.3594,672.625 369.125,672.8906 Q368.8906,673.1563 368.5156,673.1563 Q368.1719,673.1563 367.9688,672.9531 Q367.7656,672.7656 367.6563,672.25 Q367.6094,671.8906 367.4219,671.7031 Q367.0938,671.3281 366.4844,671.1094 Q365.875,670.8906 365.25,670.8906 Q364.4844,670.8906 363.8438,671.2188 Q363.2188,671.5469 362.7188,672.2969 Q362.2344,673.0469 362.2344,674.0781 L362.2344,675.1719 Q362.2344,676.4063 363.125,677.2344 Q364.0156,678.0469 365.6094,678.0469 Q366.5469,678.0469 367.2031,677.7969 Q367.5938,677.6406 368.0156,677.2031 Q368.2813,676.9375 368.4219,676.8594 Q368.5781,676.7813 368.7813,676.7813 Q369.1094,676.7813 369.3594,677.0469 Q369.625,677.2969 369.625,677.6406 Q369.625,677.9844 369.2813,678.3906 Q368.7813,678.9688 367.9844,679.2969 Q366.9063,679.75 365.6094,679.75 Q364.0938,679.75 362.8906,679.125 Q361.9063,678.625 361.2188,677.5625 Q360.5313,676.4844 360.5313,675.2031 L360.5313,674.0469 Q360.5313,672.7188 361.1406,671.5781 Q361.7656,670.4219 362.8594,669.8125 Q363.9531,669.1875 365.1875,669.1875 Q365.9219,669.1875 366.5625,669.3594 Q367.2188,669.5156 367.7656,669.875 Z " fill="#000000"/><text fill="#000000" font-family="sans-serif" font-size="12" lengthAdjust="spacing" textLength="104" x="379" y="678.9102">NonLinearElement</text><line style="stroke:#A80036;stroke-width:1.5;" x1="351" x2="485" y1="690" y2="690"/><!--MD5=[cff76d6265a9e7696c4c66f31a4c719c]
class PositionedRelation--><rect codeLine="15" fill="#FEFECE" height="81.5078" id="PositionedRelation" style="stroke:#A80036;stroke-width:1.5;" width="137" x="505.5" y="366"/><ellipse cx="520.5" cy="382" fill="#ADD1B2" rx="11" ry="11" style="stroke:#A80036;stroke-width:1.0;"/><path d="M523.2656,377.875 Q523.4219,377.6563 523.6094,377.5469 Q523.7969,377.4375 524.0156,377.4375 Q524.3906,377.4375 524.625,377.7031 Q524.8594,377.9531 524.8594,378.5625 L524.8594,380.0156 Q524.8594,380.625 524.625,380.8906 Q524.3906,381.1563 524.0156,381.1563 Q523.6719,381.1563 523.4688,380.9531 Q523.2656,380.7656 523.1563,380.25 Q523.1094,379.8906 522.9219,379.7031 Q522.5938,379.3281 521.9844,379.1094 Q521.375,378.8906 520.75,378.8906 Q519.9844,378.8906 519.3438,379.2188 Q518.7188,379.5469 518.2188,380.2969 Q517.7344,381.0469 517.7344,382.0781 L517.7344,383.1719 Q517.7344,384.4063 518.625,385.2344 Q519.5156,386.0469 521.1094,386.0469 Q522.0469,386.0469 522.7031,385.7969 Q523.0938,385.6406 523.5156,385.2031 Q523.7813,384.9375 523.9219,384.8594 Q524.0781,384.7813 524.2813,384.7813 Q524.6094,384.7813 524.8594,385.0469 Q525.125,385.2969 525.125,385.6406 Q525.125,385.9844 524.7813,386.3906 Q524.2813,386.9688 523.4844,387.2969 Q522.4063,387.75 521.1094,387.75 Q519.5938,387.75 518.3906,387.125 Q517.4063,386.625 516.7188,385.5625 Q516.0313,384.4844 516.0313,383.2031 L516.0313,382.0469 Q516.0313,380.7188 516.6406,379.5781 Q517.2656,378.4219 518.3594,377.8125 Q519.4531,377.1875 520.6875,377.1875 Q521.4219,377.1875 522.0625,377.3594 Q522.7188,377.5156 523.2656,377.875 Z " fill="#000000"/><text fill="#000000" font-family="sans-serif" font-size="12" lengthAdjust="spacing" textLength="105" x="534.5" y="386.9102">PositionedRelation</text><line style="stroke:#A80036;stroke-width:1.5;" x1="506.5" x2="641.5" y1="398" y2="398"/><text fill="#000000" font-family="sans-serif" font-size="11" lengthAdjust="spacing" textLength="53" x="511.5" y="413.4189">navigability</text><text fill="#000000" font-family="sans-serif" font-size="11" lengthAdjust="spacing" textLength="59" x="511.5" y="427.2549">positionOnA</text><text fill="#000000" font-family="sans-serif" font-size="11" lengthAdjust="spacing" textLength="58" x="511.5" y="441.0908">positionOnB</text><!--MD5=[f6887a16f46a197412a1e78597669ad5]
class CompositionNetElement--><rect codeLine="20" fill="#FEFECE" height="40" id="CompositionNetElement" style="stroke:#A80036;stroke-width:1.5;" width="168" x="362" y="248"/><ellipse cx="377" cy="264" fill="#ADD1B2" rx="11" ry="11" style="stroke:#A80036;stroke-width:1.0;"/><path d="M379.7656,259.875 Q379.9219,259.6563 380.1094,259.5469 Q380.2969,259.4375 380.5156,259.4375 Q380.8906,259.4375 381.125,259.7031 Q381.3594,259.9531 381.3594,260.5625 L381.3594,262.0156 Q381.3594,262.625 381.125,262.8906 Q380.8906,263.1563 380.5156,263.1563 Q380.1719,263.1563 379.9688,262.9531 Q379.7656,262.7656 379.6563,262.25 Q379.6094,261.8906 379.4219,261.7031 Q379.0938,261.3281 378.4844,261.1094 Q377.875,260.8906 377.25,260.8906 Q376.4844,260.8906 375.8438,261.2188 Q375.2188,261.5469 374.7188,262.2969 Q374.2344,263.0469 374.2344,264.0781 L374.2344,265.1719 Q374.2344,266.4063 375.125,267.2344 Q376.0156,268.0469 377.6094,268.0469 Q378.5469,268.0469 379.2031,267.7969 Q379.5938,267.6406 380.0156,267.2031 Q380.2813,266.9375 380.4219,266.8594 Q380.5781,266.7813 380.7813,266.7813 Q381.1094,266.7813 381.3594,267.0469 Q381.625,267.2969 381.625,267.6406 Q381.625,267.9844 381.2813,268.3906 Q380.7813,268.9688 379.9844,269.2969 Q378.9063,269.75 377.6094,269.75 Q376.0938,269.75 374.8906,269.125 Q373.9063,268.625 373.2188,267.5625 Q372.5313,266.4844 372.5313,265.2031 L372.5313,264.0469 Q372.5313,262.7188 373.1406,261.5781 Q373.7656,260.4219 374.8594,259.8125 Q375.9531,259.1875 377.1875,259.1875 Q377.9219,259.1875 378.5625,259.3594 Q379.2188,259.5156 379.7656,259.875 Z " fill="#000000"/><text fill="#000000" font-family="sans-serif" font-size="12" lengthAdjust="spacing" textLength="136" x="391" y="268.9102">CompositionNetElement</text><line style="stroke:#A80036;stroke-width:1.5;" x1="363" x2="529" y1="280" y2="280"/><!--MD5=[878019f5f30677308ef26921f1bc7ed2]
class ElementPartCollection--><rect codeLine="23" fill="#FEFECE" height="40" id="ElementPartCollection" style="stroke:#A80036;stroke-width:1.5;" width="155" x="206.5" y="387"/><ellipse cx="221.5" cy="403" fill="#ADD1B2" rx="11" ry="11" style="stroke:#A80036;stroke-width:1.0;"/><path d="M224.2656,398.875 Q224.4219,398.6563 224.6094,398.5469 Q224.7969,398.4375 225.0156,398.4375 Q225.3906,398.4375 225.625,398.7031 Q225.8594,398.9531 225.8594,399.5625 L225.8594,401.0156 Q225.8594,401.625 225.625,401.8906 Q225.3906,402.1563 225.0156,402.1563 Q224.6719,402.1563 224.4688,401.9531 Q224.2656,401.7656 224.1563,401.25 Q224.1094,400.8906 223.9219,400.7031 Q223.5938,400.3281 222.9844,400.1094 Q222.375,399.8906 221.75,399.8906 Q220.9844,399.8906 220.3438,400.2188 Q219.7188,400.5469 219.2188,401.2969 Q218.7344,402.0469 218.7344,403.0781 L218.7344,404.1719 Q218.7344,405.4063 219.625,406.2344 Q220.5156,407.0469 222.1094,407.0469 Q223.0469,407.0469 223.7031,406.7969 Q224.0938,406.6406 224.5156,406.2031 Q224.7813,405.9375 224.9219,405.8594 Q225.0781,405.7813 225.2813,405.7813 Q225.6094,405.7813 225.8594,406.0469 Q226.125,406.2969 226.125,406.6406 Q226.125,406.9844 225.7813,407.3906 Q225.2813,407.9688 224.4844,408.2969 Q223.4063,408.75 222.1094,408.75 Q220.5938,408.75 219.3906,408.125 Q218.4063,407.625 217.7188,406.5625 Q217.0313,405.4844 217.0313,404.2031 L217.0313,403.0469 Q217.0313,401.7188 217.6406,400.5781 Q218.2656,399.4219 219.3594,398.8125 Q220.4531,398.1875 221.6875,398.1875 Q222.4219,398.1875 223.0625,398.3594 Q223.7188,398.5156 224.2656,398.875 Z " fill="#000000"/><text fill="#000000" font-family="sans-serif" font-size="12" lengthAdjust="spacing" textLength="123" x="235.5" y="407.9102">ElementPartCollection</text><line style="stroke:#A80036;stroke-width:1.5;" x1="207.5" x2="360.5" y1="419" y2="419"/><!--MD5=[ef10486a6896783fdbe7ee0b833e9509]
class UnorderedCollection--><rect codeLine="25" fill="#FEFECE" height="40" id="UnorderedCollection" style="stroke:#A80036;stroke-width:1.5;" width="146" x="302" y="533"/><ellipse cx="317" cy="549" fill="#ADD1B2" rx="11" ry="11" style="stroke:#A80036;stroke-width:1.0;"/><path d="M319.7656,544.875 Q319.9219,544.6563 320.1094,544.5469 Q320.2969,544.4375 320.5156,544.4375 Q320.8906,544.4375 321.125,544.7031 Q321.3594,544.9531 321.3594,545.5625 L321.3594,547.0156 Q321.3594,547.625 321.125,547.8906 Q320.8906,548.1563 320.5156,548.1563 Q320.1719,548.1563 319.9688,547.9531 Q319.7656,547.7656 319.6563,547.25 Q319.6094,546.8906 319.4219,546.7031 Q319.0938,546.3281 318.4844,546.1094 Q317.875,545.8906 317.25,545.8906 Q316.4844,545.8906 315.8438,546.2188 Q315.2188,546.5469 314.7188,547.2969 Q314.2344,548.0469 314.2344,549.0781 L314.2344,550.1719 Q314.2344,551.4063 315.125,552.2344 Q316.0156,553.0469 317.6094,553.0469 Q318.5469,553.0469 319.2031,552.7969 Q319.5938,552.6406 320.0156,552.2031 Q320.2813,551.9375 320.4219,551.8594 Q320.5781,551.7813 320.7813,551.7813 Q321.1094,551.7813 321.3594,552.0469 Q321.625,552.2969 321.625,552.6406 Q321.625,552.9844 321.2813,553.3906 Q320.7813,553.9688 319.9844,554.2969 Q318.9063,554.75 317.6094,554.75 Q316.0938,554.75 314.8906,554.125 Q313.9063,553.625 313.2188,552.5625 Q312.5313,551.4844 312.5313,550.2031 L312.5313,549.0469 Q312.5313,547.7188 313.1406,546.5781 Q313.7656,545.4219 314.8594,544.8125 Q315.9531,544.1875 317.1875,544.1875 Q317.9219,544.1875 318.5625,544.3594 Q319.2188,544.5156 319.7656,544.875 Z " fill="#000000"/><text fill="#000000" font-family="sans-serif" font-size="12" lengthAdjust="spacing" textLength="114" x="331" y="553.9102">UnorderedCollection</text><line style="stroke:#A80036;stroke-width:1.5;" x1="303" x2="447" y1="565" y2="565"/><!--MD5=[2c0c64d47539ff3c03316fc6f3da763f]
class OrderedCollection--><rect codeLine="28" fill="#FEFECE" height="53.8359" id="OrderedCollection" style="stroke:#A80036;stroke-width:1.5;" width="132" x="135" y="526"/><ellipse cx="150" cy="542" fill="#ADD1B2" rx="11" ry="11" style="stroke:#A80036;stroke-width:1.0;"/><path d="M152.7656,537.875 Q152.9219,537.6563 153.1094,537.5469 Q153.2969,537.4375 153.5156,537.4375 Q153.8906,537.4375 154.125,537.7031 Q154.3594,537.9531 154.3594,538.5625 L154.3594,540.0156 Q154.3594,540.625 154.125,540.8906 Q153.8906,541.1563 153.5156,541.1563 Q153.1719,541.1563 152.9688,540.9531 Q152.7656,540.7656 152.6563,540.25 Q152.6094,539.8906 152.4219,539.7031 Q152.0938,539.3281 151.4844,539.1094 Q150.875,538.8906 150.25,538.8906 Q149.4844,538.8906 148.8438,539.2188 Q148.2188,539.5469 147.7188,540.2969 Q147.2344,541.0469 147.2344,542.0781 L147.2344,543.1719 Q147.2344,544.4063 148.125,545.2344 Q149.0156,546.0469 150.6094,546.0469 Q151.5469,546.0469 152.2031,545.7969 Q152.5938,545.6406 153.0156,545.2031 Q153.2813,544.9375 153.4219,544.8594 Q153.5781,544.7813 153.7813,544.7813 Q154.1094,544.7813 154.3594,545.0469 Q154.625,545.2969 154.625,545.6406 Q154.625,545.9844 154.2813,546.3906 Q153.7813,546.9688 152.9844,547.2969 Q151.9063,547.75 150.6094,547.75 Q149.0938,547.75 147.8906,547.125 Q146.9063,546.625 146.2188,545.5625 Q145.5313,544.4844 145.5313,543.2031 L145.5313,542.0469 Q145.5313,540.7188 146.1406,539.5781 Q146.7656,538.4219 147.8594,537.8125 Q148.9531,537.1875 150.1875,537.1875 Q150.9219,537.1875 151.5625,537.3594 Q152.2188,537.5156 152.7656,537.875 Z " fill="#000000"/><text fill="#000000" font-family="sans-serif" font-size="12" lengthAdjust="spacing" textLength="100" x="164" y="546.9102">OrderedCollection</text><line style="stroke:#A80036;stroke-width:1.5;" x1="136" x2="266" y1="558" y2="558"/><text fill="#000000" font-family="sans-serif" font-size="11" lengthAdjust="spacing" textLength="48" x="141" y="573.4189">sequence</text><!--MD5=[7fdce667dd5c2bfd6fafd3e45c05fe82]
class BaseObject--><rect fill="#FEFECE" height="40" id="BaseObject" style="stroke:#A80036;stroke-width:1.5;" width="96" x="7" y="248"/><ellipse cx="22" cy="264" fill="#ADD1B2" rx="11" ry="11" style="stroke:#A80036;stroke-width:1.0;"/><path d="M24.7656,259.875 Q24.9219,259.6563 25.1094,259.5469 Q25.2969,259.4375 25.5156,259.4375 Q25.8906,259.4375 26.125,259.7031 Q26.3594,259.9531 26.3594,260.5625 L26.3594,262.0156 Q26.3594,262.625 26.125,262.8906 Q25.8906,263.1563 25.5156,263.1563 Q25.1719,263.1563 24.9688,262.9531 Q24.7656,262.7656 24.6563,262.25 Q24.6094,261.8906 24.4219,261.7031 Q24.0938,261.3281 23.4844,261.1094 Q22.875,260.8906 22.25,260.8906 Q21.4844,260.8906 20.8438,261.2188 Q20.2188,261.5469 19.7188,262.2969 Q19.2344,263.0469 19.2344,264.0781 L19.2344,265.1719 Q19.2344,266.4063 20.125,267.2344 Q21.0156,268.0469 22.6094,268.0469 Q23.5469,268.0469 24.2031,267.7969 Q24.5938,267.6406 25.0156,267.2031 Q25.2813,266.9375 25.4219,266.8594 Q25.5781,266.7813 25.7813,266.7813 Q26.1094,266.7813 26.3594,267.0469 Q26.625,267.2969 26.625,267.6406 Q26.625,267.9844 26.2813,268.3906 Q25.7813,268.9688 24.9844,269.2969 Q23.9063,269.75 22.6094,269.75 Q21.0938,269.75 19.8906,269.125 Q18.9063,268.625 18.2188,267.5625 Q17.5313,266.4844 17.5313,265.2031 L17.5313,264.0469 Q17.5313,262.7188 18.1406,261.5781 Q18.7656,260.4219 19.8594,259.8125 Q20.9531,259.1875 22.1875,259.1875 Q22.9219,259.1875 23.5625,259.3594 Q24.2188,259.5156 24.7656,259.875 Z " fill="#000000"/><text fill="#000000" font-family="sans-serif" font-size="12" lengthAdjust="spacing" textLength="64" x="36" y="268.9102">BaseObject</text><line style="stroke:#A80036;stroke-width:1.5;" x1="8" x2="102" y1="280" y2="280"/><!--MD5=[68ebd5602d5c1818272b8fbc834ffe1f]
class NetworkResource--><rect fill="#FEFECE" height="40" id="NetworkResource" style="stroke:#A80036;stroke-width:1.5;" width="131" x="469.5" y="7"/><ellipse cx="484.5" cy="23" fill="#ADD1B2" rx="11" ry="11" style="stroke:#A80036;stroke-width:1.0;"/><path d="M487.2656,18.875 Q487.4219,18.6563 487.6094,18.5469 Q487.7969,18.4375 488.0156,18.4375 Q488.3906,18.4375 488.625,18.7031 Q488.8594,18.9531 488.8594,19.5625 L488.8594,21.0156 Q488.8594,21.625 488.625,21.8906 Q488.3906,22.1563 488.0156,22.1563 Q487.6719,22.1563 487.4688,21.9531 Q487.2656,21.7656 487.1563,21.25 Q487.1094,20.8906 486.9219,20.7031 Q486.5938,20.3281 485.9844,20.1094 Q485.375,19.8906 484.75,19.8906 Q483.9844,19.8906 483.3438,20.2188 Q482.7188,20.5469 482.2188,21.2969 Q481.7344,22.0469 481.7344,23.0781 L481.7344,24.1719 Q481.7344,25.4063 482.625,26.2344 Q483.5156,27.0469 485.1094,27.0469 Q486.0469,27.0469 486.7031,26.7969 Q487.0938,26.6406 487.5156,26.2031 Q487.7813,25.9375 487.9219,25.8594 Q488.0781,25.7813 488.2813,25.7813 Q488.6094,25.7813 488.8594,26.0469 Q489.125,26.2969 489.125,26.6406 Q489.125,26.9844 488.7813,27.3906 Q488.2813,27.9688 487.4844,28.2969 Q486.4063,28.75 485.1094,28.75 Q483.5938,28.75 482.3906,28.125 Q481.4063,27.625 480.7188,26.5625 Q480.0313,25.4844 480.0313,24.2031 L480.0313,23.0469 Q480.0313,21.7188 480.6406,20.5781 Q481.2656,19.4219 482.3594,18.8125 Q483.4531,18.1875 484.6875,18.1875 Q485.4219,18.1875 486.0625,18.3594 Q486.7188,18.5156 487.2656,18.875 Z " fill="#000000"/><text fill="#000000" font-family="sans-serif" font-size="12" lengthAdjust="spacing" textLength="99" x="498.5" y="27.9102">NetworkResource</text><line style="stroke:#A80036;stroke-width:1.5;" x1="470.5" x2="599.5" y1="39" y2="39"/><!--MD5=[37ebd3bd6f2e6f416bc11fe9a874c77d]
class AssociatedPositioningSystem--><rect fill="#FEFECE" height="40" id="AssociatedPositioningSystem" style="stroke:#A80036;stroke-width:1.5;" width="196" x="675" y="658"/><ellipse cx="690" cy="674" fill="#ADD1B2" rx="11" ry="11" style="stroke:#A80036;stroke-width:1.0;"/><path d="M692.7656,669.875 Q692.9219,669.6563 693.1094,669.5469 Q693.2969,669.4375 693.5156,669.4375 Q693.8906,669.4375 694.125,669.7031 Q694.3594,669.9531 694.3594,670.5625 L694.3594,672.0156 Q694.3594,672.625 694.125,672.8906 Q693.8906,673.1563 693.5156,673.1563 Q693.1719,673.1563 692.9688,672.9531 Q692.7656,672.7656 692.6563,672.25 Q692.6094,671.8906 692.4219,671.7031 Q692.0938,671.3281 691.4844,671.1094 Q690.875,670.8906 690.25,670.8906 Q689.4844,670.8906 688.8438,671.2188 Q688.2188,671.5469 687.7188,672.2969 Q687.2344,673.0469 687.2344,674.0781 L687.2344,675.1719 Q687.2344,676.4063 688.125,677.2344 Q689.0156,678.0469 690.6094,678.0469 Q691.5469,678.0469 692.2031,677.7969 Q692.5938,677.6406 693.0156,677.2031 Q693.2813,676.9375 693.4219,676.8594 Q693.5781,676.7813 693.7813,676.7813 Q694.1094,676.7813 694.3594,677.0469 Q694.625,677.2969 694.625,677.6406 Q694.625,677.9844 694.2813,678.3906 Q693.7813,678.9688 692.9844,679.2969 Q691.9063,679.75 690.6094,679.75 Q689.0938,679.75 687.8906,679.125 Q686.9063,678.625 686.2188,677.5625 Q685.5313,676.4844 685.5313,675.2031 L685.5313,674.0469 Q685.5313,672.7188 686.1406,671.5781 Q686.7656,670.4219 687.8594,669.8125 Q688.9531,669.1875 690.1875,669.1875 Q690.9219,669.1875 691.5625,669.3594 Q692.2188,669.5156 692.7656,669.875 Z " fill="#000000"/><text fill="#000000" font-family="sans-serif" font-size="12" lengthAdjust="spacing" textLength="164" x="704" y="678.9102">AssociatedPositioningSystem</text><line style="stroke:#A80036;stroke-width:1.5;" x1="676" x2="870" y1="690" y2="690"/><!--MD5=[781ea16d60079cacbd4188ad8afa3252]
reverse link Relation to PositionedRelation--><path codeLine="22" d="M595.53,307.67 C591.56,325.8 586.83,347.4 582.82,365.73 " fill="none" id="Relation-backto-PositionedRelation" style="stroke:#A80036;stroke-width:1.0;"/><polygon fill="none" points="588.71,306.09,599.83,288.05,602.39,309.08,588.71,306.09" style="stroke:#A80036;stroke-width:1.0;"/><!--MD5=[95ddbb8c0deb444812b38d96b55c276f]
reverse link ElementPartCollection to UnorderedCollection--><path codeLine="27" d="M306.96,444.33 C324.73,472.45 348.63,510.28 362.87,532.8 " fill="none" id="ElementPartCollection-backto-UnorderedCollection" style="stroke:#A80036;stroke-width:1.0;"/><polygon fill="none" points="300.85,447.77,296.08,427.12,312.69,440.29,300.85,447.77" style="stroke:#A80036;stroke-width:1.0;"/><!--MD5=[f5c5f06b7366dd01c5b59effeed6584b]
reverse link ElementPartCollection to OrderedCollection--><path codeLine="31" d="M262.84,444.72 C248.2,470.11 229.09,503.27 216.01,525.97 " fill="none" id="ElementPartCollection-backto-OrderedCollection" style="stroke:#A80036;stroke-width:1.0;"/><polygon fill="none" points="256.93,440.95,272.98,427.12,269.06,447.95,256.93,440.95" style="stroke:#A80036;stroke-width:1.0;"/><!--MD5=[51a125e0cfea6f1b328e326fff7fa1e1]
reverse link PositioningNetElement to LinearElement--><path codeLine="32" d="M567.79,593.3 C570.43,614.9 573.58,640.72 575.67,657.92 " fill="none" id="PositioningNetElement-backto-LinearElement" style="stroke:#A80036;stroke-width:1.0;"/><polygon fill="none" points="560.82,593.92,565.34,573.22,574.71,592.22,560.82,593.92" style="stroke:#A80036;stroke-width:1.0;"/><!--MD5=[90b91bc670421d2d5f28051b85276643]
reverse link PositioningNetElement to NonLinearElement--><path codeLine="33" d="M524.87,586.34 C498.02,609.12 463,638.83 440.5,657.92 " fill="none" id="PositioningNetElement-backto-NonLinearElement" style="stroke:#A80036;stroke-width:1.0;"/><polygon fill="none" points="520.56,580.82,540.34,573.22,529.62,591.49,520.56,580.82" style="stroke:#A80036;stroke-width:1.0;"/><!--MD5=[fdb06f6996c8a31f5a488b985738023a]
reverse link NetElement to CompositionNetElement--><path codeLine="34" d="M434.2,189.45 C433.31,192.99 432.55,196.54 432,200 C429.42,216.2 433.69,234.4 438.18,247.74 " fill="none" id="NetElement-backto-CompositionNetElement" style="stroke:#A80036;stroke-width:1.0;"/><polygon fill="none" points="427.56,187.23,440.17,170.2,440.93,191.38,427.56,187.23" style="stroke:#A80036;stroke-width:1.0;"/><!--MD5=[224ba51839d690d77aa70bbcf2f95d1d]
reverse link CompositionNetElement to PositioningNetElement--><path codeLine="35" d="M489.79,302.06 C493.9,306.94 497.47,312.28 500,318 C508.91,338.11 493.4,344.68 488,366 C473.75,422.29 447.06,445.1 475,496 C483.8,512.03 499.36,524.13 514.96,532.9 " fill="none" id="CompositionNetElement-backto-PositioningNetElement" style="stroke:#A80036;stroke-width:1.0;"/><polygon fill="none" points="484.86,307.02,475.44,288.04,494.64,297,484.86,307.02" style="stroke:#A80036;stroke-width:1.0;"/><!--MD5=[3a2f90dd2db3bbf9ceed78abf4b2fd3e]
link UnorderedCollection to NetElement--><path codeLine="36" d="M382.33,532.73 C396.96,490.86 425.35,389.61 388,318 C377.22,297.34 355.78,308.66 345,288 C336.78,272.24 337.95,264.32 345,248 C358.72,216.24 388.52,190.06 412.56,172.94 " fill="none" id="UnorderedCollection-to-NetElement" style="stroke:#A80036;stroke-width:1.0;"/><polygon fill="#A80036" points="416.67,170.06,407.0066,171.9624,412.5792,172.935,411.6066,178.5076,416.67,170.06" style="stroke:#A80036;stroke-width:1.0;"/><text fill="#000000" font-family="sans-serif" font-size="13" lengthAdjust="spacing" textLength="70" x="396" y="332.4951">elementPart</text><!--MD5=[602d62cbd114e2fb7b1c8ce29e134f1e]
link OrderedCollection to NetElement--><path codeLine="37" d="M191.68,525.84 C177.19,480.42 154.54,385.42 191,318 C233.93,238.63 332.76,191.13 394.59,168.11 " fill="none" id="OrderedCollection-to-NetElement" style="stroke:#A80036;stroke-width:1.0;"/><polygon fill="#A80036" points="399.35,166.36,389.5225,165.7124,394.6573,168.0859,392.2839,173.2207,399.35,166.36" style="stroke:#A80036;stroke-width:1.0;"/><text fill="#000000" font-family="sans-serif" font-size="13" lengthAdjust="spacing" textLength="70" x="192" y="332.4951">elementPart</text><!--MD5=[9fde504759bc0b18313e7168e190b42f]
reverse link CompositionNetElement to ElementPartCollection--><path codeLine="38" d="M348.59,287.18 C317.33,295.12 288.35,305.51 279,318 C264.23,337.72 270.02,367.44 276.34,386.79 " fill="none" id="CompositionNetElement-backto-ElementPartCollection" style="stroke:#A80036;stroke-width:1.0;"/><polygon fill="#A80036" points="361.59,284.03,354.8179,281.5523,349.9262,286.8504,356.6982,289.3282,361.59,284.03" style="stroke:#A80036;stroke-width:1.0;"/><text fill="#000000" font-family="sans-serif" font-size="13" lengthAdjust="spacing" textLength="103" x="280" y="332.4951">elementCollection</text><!--MD5=[a527230f00dda736aeb70b7cb7c2769e]
link Relation to NetElement--><path codeLine="39" d="M578.2,247.82 C550.64,227.32 507,194.87 477.94,173.26 " fill="none" id="Relation-to-NetElement" style="stroke:#A80036;stroke-width:1.0;"/><polygon fill="#A80036" points="473.76,170.16,478.5943,178.7407,477.772,173.144,483.3687,172.3216,473.76,170.16" style="stroke:#A80036;stroke-width:1.0;"/><text fill="#000000" font-family="sans-serif" font-size="13" lengthAdjust="spacing" textLength="46" x="536" y="214.4951">element</text><!--MD5=[de571caed7871961c5bbfa0313f259f2]
link NetElement to Relation--><path codeLine="42" d="M447.84,170.3 C448.74,185.07 452.3,205.04 464,218 C464.86,218.96 519.33,237.86 560.06,251.9 " fill="none" id="NetElement-to-Relation" style="stroke:#A80036;stroke-width:1.0;"/><polygon fill="#A80036" points="564.96,253.59,557.7531,246.8773,560.2325,251.9618,555.148,254.4412,564.96,253.59" style="stroke:#A80036;stroke-width:1.0;"/><text fill="#000000" font-family="sans-serif" font-size="13" lengthAdjust="spacing" textLength="42" x="465" y="214.4951">relation</text><!--MD5=[4da396bf5c6cbc2f5881424d6ca83992]
link PositionedRelation to PositioningNetElement--><path codeLine="40" d="M508.91,448.07 C499.64,456.75 491.43,466.75 486,478 C475.84,499.06 494.37,517.32 515.79,530.44 " fill="none" id="PositionedRelation-to-PositioningNetElement" style="stroke:#A80036;stroke-width:1.0;"/><polygon fill="#A80036" points="520.11,532.99,514.419,524.9518,515.8125,530.4343,510.33,531.8278,520.11,532.99" style="stroke:#A80036;stroke-width:1.0;"/><text fill="#000000" font-family="sans-serif" font-size="13" lengthAdjust="spacing" textLength="55" x="487" y="492.4951">elementA</text><!--MD5=[4da396bf5c6cbc2f5881424d6ca83992]
link PositionedRelation to PositioningNetElement--><path codeLine="41" d="M570.94,448.11 C568.98,473.69 566.51,506 564.85,527.74 " fill="none" id="PositionedRelation-to-PositioningNetElement-1" style="stroke:#A80036;stroke-width:1.0;"/><polygon fill="#A80036" points="564.47,532.75,569.1523,524.0853,564.8557,527.7649,561.1761,523.4683,564.47,532.75" style="stroke:#A80036;stroke-width:1.0;"/><text fill="#000000" font-family="sans-serif" font-size="13" lengthAdjust="spacing" textLength="55" x="569" y="492.4951">elementB</text><!--MD5=[e97d84296d5659aa3100a0a1b8f8a3cd]
reverse link BaseObject to ElementPartCollection--><path codeLine="44" d="M86.47,302.54 C98.43,314.09 112.64,326.5 127,336 C158.98,357.16 198.42,374.71 229.76,386.95 " fill="none" id="BaseObject-backto-ElementPartCollection" style="stroke:#A80036;stroke-width:1.0;"/><polygon fill="none" points="81.33,307.3,72.22,288.16,91.27,297.44,81.33,307.3" style="stroke:#A80036;stroke-width:1.0;"/><!--MD5=[988ff518f837c563f824bc94d5e9129a]
reverse link NetworkResource to NetElement--><path codeLine="45" d="M509.45,63.53 C493.84,85.24 474.49,112.16 461.72,129.92 " fill="none" id="NetworkResource-backto-NetElement" style="stroke:#A80036;stroke-width:1.0;"/><polygon fill="none" points="503.86,59.32,521.21,47.17,515.22,67.5,503.86,59.32" style="stroke:#A80036;stroke-width:1.0;"/><!--MD5=[64b50922d67dce6b406038ea98e35e0b]
reverse link NetworkResource to Relation--><path codeLine="46" d="M548.91,66.12 C561.17,100.71 578.92,153.3 591,200 C595.13,215.94 598.6,234.33 600.92,247.8 " fill="none" id="NetworkResource-backto-Relation" style="stroke:#A80036;stroke-width:1.0;"/><polygon fill="none" points="542.26,68.31,542.08,47.12,555.43,63.57,542.26,68.31" style="stroke:#A80036;stroke-width:1.0;"/><!--MD5=[02568cfaf0a33e6d457d1ee5eb9bbae6]
reverse link PositioningNetElement to AssociatedPositioningSystem--><path codeLine="48" d="M607.05,579.8 C646.88,603.13 704.6,636.94 740.42,657.92 " fill="none" id="PositioningNetElement-backto-AssociatedPositioningSystem" style="stroke:#A80036;stroke-width:1.0;"/><polygon fill="#A80036" points="595.81,573.22,598.968,579.7028,606.1667,579.2812,603.0088,572.7984,595.81,573.22" style="stroke:#A80036;stroke-width:1.0;"/><text fill="#000000" font-family="sans-serif" font-size="13" lengthAdjust="spacing" textLength="172" x="687" y="624.4951">associatedPositioningSystem</text><!--MD5=[d1335cedb8a6141400db1dd63ad6618d]
@startuml
hide methods
skinparam shadowing false
package "Topology" #ffffcc {
	class NetElement{
	}
	class Relation{
	}
    
	class PositioningNetElement{
	}
	class LinearElement{
	}
	class NonLinearElement{
	}
	class PositionedRelation{
		navigability
		positionOnA
		positionOnB
	}
	class CompositionNetElement{
	}
	Relation <|- - PositionedRelation
	class ElementPartCollection{
	}
	class UnorderedCollection{
	}
	ElementPartCollection <|- - UnorderedCollection
	class OrderedCollection{
		sequence
	}
	ElementPartCollection <|- - OrderedCollection
	PositioningNetElement <|- - LinearElement
	PositioningNetElement <|- - NonLinearElement
	NetElement <|- - CompositionNetElement
	CompositionNetElement <|- - PositioningNetElement
	UnorderedCollection - -> NetElement : elementPart
	OrderedCollection - -> NetElement : elementPart
	CompositionNetElement *- - ElementPartCollection : elementCollection
	Relation - -> NetElement : element
	PositionedRelation - -> PositioningNetElement : elementA
	PositionedRelation - -> PositioningNetElement : elementB
	NetElement - -> Relation : relation
}
BaseObject <|- - ElementPartCollection
NetworkResource <|- - NetElement
NetworkResource <|- - Relation

PositioningNetElement *- - AssociatedPositioningSystem : associatedPositioningSystem


@enduml

PlantUML version 1.2021.3(Mon Mar 22 17:53:19 CET 2021)
(GPL source distribution)
Java Runtime: OpenJDK Runtime Environment
JVM: OpenJDK Client VM
Default Encoding: Cp1252
Language: en
Country: US
--></g></svg>