<?xml version="1.0" encoding="UTF-8" standalone="no"?><svg xmlns="http://www.w3.org/2000/svg" xmlns:xlink="http://www.w3.org/1999/xlink" contentScriptType="application/ecmascript" contentStyleType="text/css" height="439px" preserveAspectRatio="none" style="width:883px;height:439px;" version="1.1" viewBox="0 0 883 439" width="883px" zoomAndPan="magnify"><defs/><g><!--MD5=[4111ce999984b5c6214785ba955d478b]
cluster Topology--><polygon fill="#FFFFCC" points="38.0946,58,119.0946,58,126.0946,80.2969,678.0946,80.2969,678.0946,367,38.0946,367,38.0946,58" style="stroke:#000000;stroke-width:1.5;"/><line style="stroke:#000000;stroke-width:1.5;" x1="38.0946" x2="126.0946" y1="80.2969" y2="80.2969"/><text fill="#000000" font-family="sans-serif" font-size="14" font-weight="bold" lengthAdjust="spacing" textLength="75" x="42.0946" y="72.9951">Topology</text><!--MD5=[7c350008158c966c7df100181ccbc55a]
class NetElement--><rect codeLine="15" fill="#FFFFFF" height="23.9688" id="NetElement" style="stroke:#A80036;stroke-width:1.5;" width="74" x="286.0946" y="93"/><text fill="#000000" font-family="sans-serif" font-size="12" lengthAdjust="spacing" textLength="68" x="289.0946" y="109.1387">NetElement</text><!--MD5=[534474e9f05b14d7c70186ae077f30e0]
class Relation--><rect codeLine="17" fill="#FFFFFF" height="23.9688" id="Relation" style="stroke:#A80036;stroke-width:1.5;" width="53" x="444.5946" y="93"/><text fill="#000000" font-family="sans-serif" font-size="12" lengthAdjust="spacing" textLength="47" x="447.5946" y="109.1387">Relation</text><!--MD5=[c30feab4fd629f52fcb312dfb305dae4]
class PositioningNetElement--><rect codeLine="20" fill="#FFFFFF" height="23.9688" id="PositioningNetElement" style="stroke:#A80036;stroke-width:1.5;" width="138" x="485.0946" y="245"/><text fill="#000000" font-family="sans-serif" font-size="12" lengthAdjust="spacing" textLength="132" x="488.0946" y="261.1387">PositioningNetElement</text><!--MD5=[436e963f4f56acf1a6d8b274550d41ac]
class LinearElement--><rect codeLine="22" fill="#FFFFFF" height="23.9688" id="LinearElement" style="stroke:#A80036;stroke-width:1.5;" width="90" x="562.0946" y="316.5"/><text fill="#000000" font-family="sans-serif" font-size="12" lengthAdjust="spacing" textLength="84" x="565.0946" y="332.6387">LinearElement</text><!--MD5=[14eaa5d4ec6a6c03473e3e92abe35866]
class NonLinearElement--><rect codeLine="24" fill="#FFFFFF" height="23.9688" id="NonLinearElement" style="stroke:#A80036;stroke-width:1.5;" width="113" x="413.5946" y="316.5"/><text fill="#000000" font-family="sans-serif" font-size="12" lengthAdjust="spacing" textLength="107" x="416.5946" y="332.6387">NonLinearElement</text><!--MD5=[cff76d6265a9e7696c4c66f31a4c719c]
class PositionedRelation--><rect codeLine="26" fill="#FFFFFF" height="70.3828" id="PositionedRelation" style="stroke:#A80036;stroke-width:1.5;" width="115" x="543.5946" y="138"/><text fill="#000000" font-family="sans-serif" font-size="12" lengthAdjust="spacing" textLength="109" x="546.5946" y="154.1387">PositionedRelation</text><line style="stroke:#A80036;stroke-width:1.5;" x1="544.5946" x2="657.5946" y1="161.9688" y2="161.9688"/><text fill="#000000" font-family="sans-serif" font-size="11" lengthAdjust="spacing" textLength="65" x="549.5946" y="176.1792">navigability</text><text fill="#000000" font-family="sans-serif" font-size="11" lengthAdjust="spacing" textLength="68" x="549.5946" y="188.9839">positionOnA</text><text fill="#000000" font-family="sans-serif" font-size="11" lengthAdjust="spacing" textLength="68" x="549.5946" y="201.7886">positionOnB</text><!--MD5=[f6887a16f46a197412a1e78597669ad5]
class CompositionNetElement--><rect codeLine="31" fill="#FFFFFF" height="23.9688" id="CompositionNetElement" style="stroke:#A80036;stroke-width:1.5;" width="149" x="359.5946" y="161"/><text fill="#000000" font-family="sans-serif" font-size="12" lengthAdjust="spacing" textLength="143" x="362.5946" y="177.1387">CompositionNetElement</text><!--MD5=[878019f5f30677308ef26921f1bc7ed2]
class ElementPartCollection--><rect codeLine="34" fill="#FFFFFF" height="23.9688" id="ElementPartCollection" style="stroke:#A80036;stroke-width:1.5;" width="135" x="134.5946" y="245"/><text fill="#000000" font-family="sans-serif" font-size="12" lengthAdjust="spacing" textLength="129" x="137.5946" y="261.1387">ElementPartCollection</text><!--MD5=[ef10486a6896783fdbe7ee0b833e9509]
class UnorderedCollection--><rect codeLine="36" fill="#FFFFFF" height="23.9688" id="UnorderedCollection" style="stroke:#A80036;stroke-width:1.5;" width="131" x="241.5946" y="316.5"/><text fill="#000000" font-family="sans-serif" font-size="12" lengthAdjust="spacing" textLength="125" x="244.5946" y="332.6387">UnorderedCollection</text><!--MD5=[2c0c64d47539ff3c03316fc6f3da763f]
class OrderedCollection--><rect codeLine="39" fill="#FFFFFF" height="44.7734" id="OrderedCollection" style="stroke:#A80036;stroke-width:1.5;" width="117" x="76.5946" y="306"/><text fill="#000000" font-family="sans-serif" font-size="12" lengthAdjust="spacing" textLength="111" x="79.5946" y="322.1387">OrderedCollection</text><line style="stroke:#A80036;stroke-width:1.5;" x1="77.5946" x2="192.5946" y1="329.9688" y2="329.9688"/><text fill="#000000" font-family="sans-serif" font-size="11" lengthAdjust="spacing" textLength="57" x="82.5946" y="344.1792">sequence</text><!--MD5=[a77019b7956e801113a2a5efb1689f3f]
entity ##332426--><!--MD5=[7fdce667dd5c2bfd6fafd3e45c05fe82]
class BaseObject--><rect codeLine="60" fill="#FFFFFF" height="23.9688" id="BaseObject" style="stroke:#A80036;stroke-width:1.5;" width="76" x="74.0946" y="7"/><text fill="#000000" font-family="sans-serif" font-size="12" lengthAdjust="spacing" textLength="70" x="77.0946" y="23.1387">BaseObject</text><!--MD5=[68ebd5602d5c1818272b8fbc834ffe1f]
class NetworkResource--><rect codeLine="61" fill="#FFFFFF" height="23.9688" id="NetworkResource" style="stroke:#A80036;stroke-width:1.5;" width="113" x="266.5946" y="7"/><text fill="#000000" font-family="sans-serif" font-size="12" lengthAdjust="spacing" textLength="107" x="269.5946" y="23.1387">NetworkResource</text><!--MD5=[37ebd3bd6f2e6f416bc11fe9a874c77d]
class AssociatedPositioningSystem--><rect fill="#FFFFFF" height="23.9688" id="AssociatedPositioningSystem" style="stroke:#A80036;stroke-width:1.5;" width="182" x="694.0946" y="316.5"/><text fill="#000000" font-family="sans-serif" font-size="12" lengthAdjust="spacing" textLength="176" x="697.0946" y="332.6387">AssociatedPositioningSystem</text><!--MD5=[a0e5ab1fe18887224d30a03db556b5a7]
class rdf:List--><rect fill="#FFFFFF" height="23.9688" id="rdf:List" style="stroke:#A80036;stroke-width:1.5;" width="47" x="111.5946" y="410"/><text fill="#000000" font-family="sans-serif" font-size="12" lengthAdjust="spacing" textLength="41" x="114.5946" y="426.1387">rdf:List</text><!--MD5=[781ea16d60079cacbd4188ad8afa3252]
reverse link Relation to PositionedRelation--><path codeLine="33" d="M510.9886,126.254 C521.2196,131.448 532.4316,137.14 543.3646,142.691 " fill="none" id="Relation-backto-PositionedRelation" style="stroke:#A80036;stroke-width:1.0;"/><polygon fill="none" points="507.5186,132.342,492.8536,117.047,513.8556,119.859,507.5186,132.342" style="stroke:#A80036;stroke-width:1.0;"/><!--MD5=[95ddbb8c0deb444812b38d96b55c276f]
reverse link ElementPartCollection to UnorderedCollection--><path codeLine="38" d="M235.9036,280.379 C254.0656,292.4 275.6606,306.694 290.2666,316.361 " fill="none" id="ElementPartCollection-backto-UnorderedCollection" style="stroke:#A80036;stroke-width:1.0;"/><polygon fill="none" points="231.7786,286.043,218.9646,269.166,239.5056,274.368,231.7786,286.043" style="stroke:#A80036;stroke-width:1.0;"/><!--MD5=[f5c5f06b7366dd01c5b59effeed6584b]
reverse link ElementPartCollection to OrderedCollection--><path codeLine="42" d="M177.2976,283.723 C170.2386,291.045 162.6266,298.941 155.8366,305.984 " fill="none" id="ElementPartCollection-backto-OrderedCollection" style="stroke:#A80036;stroke-width:1.0;"/><polygon fill="none" points="172.4096,278.707,191.3296,269.166,182.4886,288.423,172.4096,278.707" style="stroke:#A80036;stroke-width:1.0;"/><!--MD5=[51a125e0cfea6f1b328e326fff7fa1e1]
reverse link PositioningNetElement to LinearElement--><path codeLine="43" d="M574.7576,285.096 C582.9866,295.887 592.0066,307.715 598.4246,316.13 " fill="none" id="PositioningNetElement-backto-LinearElement" style="stroke:#A80036;stroke-width:1.0;"/><polygon fill="none" points="569.1716,289.315,562.6096,269.166,580.3036,280.825,569.1716,289.315" style="stroke:#A80036;stroke-width:1.0;"/><!--MD5=[90b91bc670421d2d5f28051b85276643]
reverse link PositioningNetElement to NonLinearElement--><path codeLine="44" d="M524.9756,282.092 C510.9016,293.737 494.6916,307.149 483.5576,316.361 " fill="none" id="PositioningNetElement-backto-NonLinearElement" style="stroke:#A80036;stroke-width:1.0;"/><polygon fill="none" points="520.7266,276.523,540.5986,269.166,529.6516,287.309,520.7266,276.523" style="stroke:#A80036;stroke-width:1.0;"/><!--MD5=[fdb06f6996c8a31f5a488b985738023a]
reverse link NetElement to CompositionNetElement--><path codeLine="45" d="M358.9616,127.326 C377.7856,138.519 400.0696,151.769 415.4546,160.917 " fill="none" id="NetElement-backto-CompositionNetElement" style="stroke:#A80036;stroke-width:1.0;"/><polygon fill="none" points="355.2866,133.285,341.6736,117.047,362.4416,121.252,355.2866,133.285" style="stroke:#A80036;stroke-width:1.0;"/><!--MD5=[224ba51839d690d77aa70bbcf2f95d1d]
reverse link CompositionNetElement to PositioningNetElement--><path codeLine="46" d="M450.1296,202.787 C457.8376,214.29 468.0366,226.74 480.0946,235 C485.9336,239 492.5266,242.244 499.3116,244.873 " fill="none" id="CompositionNetElement-backto-PositioningNetElement" style="stroke:#A80036;stroke-width:1.0;"/><polygon fill="none" points="443.8856,205.985,439.6226,185.228,455.8996,198.796,443.8856,205.985" style="stroke:#A80036;stroke-width:1.0;"/><!--MD5=[3a2f90dd2db3bbf9ceed78abf4b2fd3e]
link UnorderedCollection to NetElement--><path codeLine="47" d="M310.5076,316.247 C315.5506,298.972 324.7566,264.785 328.0946,235 C332.6206,194.621 328.2286,146.739 325.2796,122.231 " fill="none" id="UnorderedCollection-to-NetElement" style="stroke:#A80036;stroke-width:1.0;"/><polygon fill="#A80036" points="324.6406,117.084,321.7821,126.5089,325.2578,122.0458,329.7209,125.5214,324.6406,117.084" style="stroke:#A80036;stroke-width:1.0;"/><text fill="#000000" font-family="sans-serif" font-size="13" lengthAdjust="spacing" textLength="79" x="331.0946" y="231.0669">elementPart</text><!--MD5=[602d62cbd114e2fb7b1c8ce29e134f1e]
link OrderedCollection to NetElement--><path codeLine="48" d="M121.9573,305.817 C109.7338,282.562 95.6772,245.301 112.0946,218 C148.6676,157.18 230.6266,127.626 280.9526,114.714 " fill="none" id="OrderedCollection-to-NetElement" style="stroke:#A80036;stroke-width:1.0;"/><polygon fill="#A80036" points="286.0226,113.442,276.3195,111.7537,281.1731,114.6594,278.2673,119.5129,286.0226,113.442" style="stroke:#A80036;stroke-width:1.0;"/><text fill="#000000" font-family="sans-serif" font-size="13" lengthAdjust="spacing" textLength="79" x="113.0946" y="231.0669">elementPart</text><!--MD5=[9fde504759bc0b18313e7168e190b42f]
reverse link CompositionNetElement to ElementPartCollection--><path codeLine="49" d="M346.1766,180.548 C290.7196,186.591 226.1016,197.804 207.0946,218 C200.4366,225.075 199.7466,236.439 200.3826,244.9 " fill="none" id="CompositionNetElement-backto-ElementPartCollection" style="stroke:#A80036;stroke-width:1.0;"/><polygon fill="#A80036" points="359.3086,179.192,352.9297,175.8289,347.372,180.4236,353.7508,183.7867,359.3086,179.192" style="stroke:#A80036;stroke-width:1.0;"/><text fill="#000000" font-family="sans-serif" font-size="13" lengthAdjust="spacing" textLength="115" x="208.0946" y="231.0669">elementCollection</text><!--MD5=[a527230f00dda736aeb70b7cb7c2769e]
link Relation to NetElement--><path codeLine="50" d="M444.4966,105 C422.5166,105 390.9026,105 365.4456,105 " fill="none" id="Relation-to-NetElement" style="stroke:#A80036;stroke-width:1.0;"/><polygon fill="#A80036" points="360.4416,105,369.4416,109,365.4416,105,369.4416,101,360.4416,105" style="stroke:#A80036;stroke-width:1.0;"/><text fill="#000000" font-family="sans-serif" font-size="13" lengthAdjust="spacing" textLength="53" x="375.8446" y="98.0669">element</text><!--MD5=[de571caed7871961c5bbfa0313f259f2]
link NetElement to Relation--><path codeLine="53" d="M349.8906,117.005 C358.4816,120.272 368.1546,123.36 377.3446,125 C399.2216,128.904 405.6316,129.728 427.3446,125 C433.2096,123.723 439.2306,121.586 444.8566,119.174 " fill="none" id="NetElement-to-Relation" style="stroke:#A80036;stroke-width:1.0;"/><polygon fill="#A80036" points="449.4776,117.095,439.6288,117.1396,444.9178,119.1463,442.911,124.4353,449.4776,117.095" style="stroke:#A80036;stroke-width:1.0;"/><text fill="#000000" font-family="sans-serif" font-size="13" lengthAdjust="spacing" textLength="48" x="378.3446" y="121.0669">relation</text><!--MD5=[4da396bf5c6cbc2f5881424d6ca83992]
link PositionedRelation to PositioningNetElement--><path codeLine="51" d="M543.2876,201.17 C537.5236,203.588 531.7226,205.908 526.0946,208 C511.3306,213.487 501.5306,205.388 492.0946,218 C487.5676,224.05 487.6916,228.86 492.0946,235 C493.8746,237.482 495.9636,239.674 498.2786,241.61 " fill="none" id="PositionedRelation-to-PositioningNetElement" style="stroke:#A80036;stroke-width:1.0;"/><polygon fill="#A80036" points="502.6686,244.826,497.7706,236.2814,498.6346,241.8719,493.0441,242.7359,502.6686,244.826" style="stroke:#A80036;stroke-width:1.0;"/><text fill="#000000" font-family="sans-serif" font-size="13" lengthAdjust="spacing" textLength="62" x="493.0946" y="231.0669">elementA</text><!--MD5=[4da396bf5c6cbc2f5881424d6ca83992]
link PositionedRelation to PositioningNetElement--><path codeLine="52" d="M581.4346,208.3 C575.1526,219.261 568.4936,230.878 563.3206,239.904 " fill="none" id="PositionedRelation-to-PositioningNetElement-1" style="stroke:#A80036;stroke-width:1.0;"/><polygon fill="#A80036" points="560.6116,244.631,568.5587,238.8135,563.0989,240.2936,561.6188,234.8338,560.6116,244.631" style="stroke:#A80036;stroke-width:1.0;"/><text fill="#000000" font-family="sans-serif" font-size="13" lengthAdjust="spacing" textLength="61" x="575.0946" y="231.0669">elementB</text><!--MD5=[e97d84296d5659aa3100a0a1b8f8a3cd]
reverse link BaseObject to ElementPartCollection--><path codeLine="55" d="M90.4205,47.605 C58.1342,92.261 6,180.802 53.0946,235 C63.8896,247.423 100.1533,252.704 134.1996,254.865 " fill="none" id="BaseObject-backto-ElementPartCollection" style="stroke:#A80036;stroke-width:1.0;"/><polygon fill="none" points="85.0456,43.107,102.6951,31.381,96.2102,51.554,85.0456,43.107" style="stroke:#A80036;stroke-width:1.0;"/><!--MD5=[988ff518f837c563f824bc94d5e9129a]
reverse link NetworkResource to NetElement--><path codeLine="56" d="M323.0946,51.572 C323.0946,66.07 323.0946,82.336 323.0946,92.851 " fill="none" id="NetworkResource-backto-NetElement" style="stroke:#A80036;stroke-width:1.0;"/><polygon fill="none" points="316.0946,51.329,323.0946,31.329,330.0946,51.329,316.0946,51.329" style="stroke:#A80036;stroke-width:1.0;"/><!--MD5=[64b50922d67dce6b406038ea98e35e0b]
reverse link NetworkResource to Relation--><path codeLine="57" d="M360.8256,40.871 C366.2906,43.921 371.8426,47.033 377.0946,50 C403.1486,64.72 433.0996,81.986 452.0566,92.957 " fill="none" id="NetworkResource-backto-Relation" style="stroke:#A80036;stroke-width:1.0;"/><polygon fill="none" points="357.2196,46.876,343.1356,31.045,364.0186,34.637,357.2196,46.876" style="stroke:#A80036;stroke-width:1.0;"/><!--MD5=[f500090738f07efed4ded172a7eac6e6]
link BaseObject to NetworkResource--><!--MD5=[02568cfaf0a33e6d457d1ee5eb9bbae6]
reverse link PositioningNetElement to AssociatedPositioningSystem--><path codeLine="65" d="M603.2416,272.787 C646.6676,285.852 709.0306,304.615 748.2816,316.424 " fill="none" id="PositioningNetElement-backto-AssociatedPositioningSystem" style="stroke:#A80036;stroke-width:1.0;"/><polygon fill="#A80036" points="590.6976,269.012,595.2906,274.5712,602.1887,272.4696,597.5957,266.9104,590.6976,269.012" style="stroke:#A80036;stroke-width:1.0;"/><text fill="#000000" font-family="sans-serif" font-size="13" lengthAdjust="spacing" textLength="187" x="677.0946" y="292.0669">associatedPositioningSystem</text><!--MD5=[15f16820c99e77d82548d44702e3858c]
link OrderedCollection to rdf:List--><path codeLine="67" d="M135.0946,351.1842 C135.0946,367.5636 135.0946,389.6962 135.0946,404.6145 " fill="none" id="OrderedCollection-to-rdf:List" style="stroke:#A80036;stroke-width:1.0;"/><polygon fill="#A80036" points="135.0946,409.7603,139.0946,400.7603,135.0946,404.7603,131.0946,400.7603,135.0946,409.7603" style="stroke:#A80036;stroke-width:1.0;"/><text fill="#000000" font-family="sans-serif" font-size="13" lengthAdjust="spacing" textLength="101" x="136.0946" y="396.0669">elementPartList</text><!--MD5=[067525f13157d4a481da4a041062bfad]
@startuml
skinparam shadowing false
hide empty members
hide circle
'skinparam monochrome true
skinparam class {
BackgroundColor White
'ArrowColor SeaGreen
'BorderColor SpringGreen
}
hide methods
skinparam shadowing false
skinparam ranksep 20

package "Topology" #ffffcc {
	class NetElement{
	}
	class Relation{
	}
    
	class PositioningNetElement{
	}
	class LinearElement{
	}
	class NonLinearElement{
	}
	class PositionedRelation{
		navigability
		positionOnA
		positionOnB
	}
	class CompositionNetElement{
	}
	Relation <|- PositionedRelation
	class ElementPartCollection{
	}
	class UnorderedCollection{
	}
	ElementPartCollection <|- - UnorderedCollection
	class OrderedCollection{
		sequence
	}
	ElementPartCollection <|- - OrderedCollection
	PositioningNetElement <|- - LinearElement
	PositioningNetElement <|- - NonLinearElement
	NetElement <|- - CompositionNetElement
	CompositionNetElement <|- - PositioningNetElement
	UnorderedCollection - -> NetElement : elementPart
	OrderedCollection - -> NetElement : elementPart
	CompositionNetElement *- - ElementPartCollection : elementCollection
	Relation -> NetElement : element
	PositionedRelation - -> PositioningNetElement : elementA
	PositionedRelation - -> PositioningNetElement : elementB
	NetElement -> Relation : relation
}
BaseObject <|- - ElementPartCollection
NetworkResource <|- - NetElement
NetworkResource <|- - Relation

together { 
 class BaseObject
 class NetworkResource
}
BaseObject -[hidden]> NetworkResource

PositioningNetElement *- - AssociatedPositioningSystem : associatedPositioningSystem

OrderedCollection - -> "rdf:List" : elementPartList
@enduml

@startuml
skinparam shadowing false
hide empty members
hide circle
skinparam class {
BackgroundColor White
}
hide methods
skinparam shadowing false
skinparam ranksep 20

package "Topology" #ffffcc {
	class NetElement{
	}
	class Relation{
	}
    
	class PositioningNetElement{
	}
	class LinearElement{
	}
	class NonLinearElement{
	}
	class PositionedRelation{
		navigability
		positionOnA
		positionOnB
	}
	class CompositionNetElement{
	}
	Relation <|- PositionedRelation
	class ElementPartCollection{
	}
	class UnorderedCollection{
	}
	ElementPartCollection <|- - UnorderedCollection
	class OrderedCollection{
		sequence
	}
	ElementPartCollection <|- - OrderedCollection
	PositioningNetElement <|- - LinearElement
	PositioningNetElement <|- - NonLinearElement
	NetElement <|- - CompositionNetElement
	CompositionNetElement <|- - PositioningNetElement
	UnorderedCollection - -> NetElement : elementPart
	OrderedCollection - -> NetElement : elementPart
	CompositionNetElement *- - ElementPartCollection : elementCollection
	Relation -> NetElement : element
	PositionedRelation - -> PositioningNetElement : elementA
	PositionedRelation - -> PositioningNetElement : elementB
	NetElement -> Relation : relation
}
BaseObject <|- - ElementPartCollection
NetworkResource <|- - NetElement
NetworkResource <|- - Relation

together { 
 class BaseObject
 class NetworkResource
}
BaseObject -[hidden]> NetworkResource

PositioningNetElement *- - AssociatedPositioningSystem : associatedPositioningSystem

OrderedCollection - -> "rdf:List" : elementPartList
@enduml

PlantUML version 1.2021.5beta3(Unknown compile time)
(GPL source distribution)
Java Runtime: Java(TM) SE Runtime Environment
JVM: Java HotSpot(TM) 64-Bit Server VM
Default Encoding: UTF-8
Language: en
Country: US
--></g></svg>